<?xml version="1.0" encoding="UTF-8"?><svg id="Layer_1" xmlns="http://www.w3.org/2000/svg" xmlns:xlink="http://www.w3.org/1999/xlink" viewBox="0 0 1080 576"><defs><style>.cls-1{stroke:#d7191c;}.cls-1,.cls-2,.cls-3,.cls-4,.cls-5,.cls-6,.cls-7,.cls-8,.cls-9,.cls-10{fill:none;}.cls-1,.cls-2,.cls-3,.cls-4,.cls-5,.cls-6,.cls-7,.cls-8,.cls-10{stroke-linecap:round;stroke-linejoin:round;}.cls-1,.cls-2,.cls-3,.cls-6,.cls-8{stroke-width:1.5px;}.cls-11,.cls-12{fill:#fdae61;}.cls-12,.cls-13,.cls-14,.cls-15,.cls-16{opacity:.25;}.cls-2{stroke:#fdae61;}.cls-13,.cls-17{fill:#2b83ba;}.cls-18{opacity:.5;}.cls-3{stroke:#abdda4;}.cls-4,.cls-5,.cls-7,.cls-10{stroke-width:.75px;}.cls-4,.cls-10{stroke:#d3d3d3;}.cls-14,.cls-19{fill:#ffffbf;}.cls-20{clip-path:url(#clippath-2);}.cls-5{stroke:#000;}.cls-21{opacity:.75;}.cls-15,.cls-22{fill:#d7191c;}.cls-6{stroke:#ffffbf;}.cls-23{clip-path:url(#clippath-1);}.cls-24,.cls-16{fill:#abdda4;}.cls-7{stroke:#6495ed;}.cls-8{stroke:#2b83ba;}.cls-25{clip-path:url(#clippath);}.cls-10{stroke-dasharray:0 0 0 3;}</style><clipPath id="clippath"><rect class="cls-9" x="14.4" y="14.4" width="1065.6" height="547.2"/></clipPath><clipPath id="clippath-1"><rect class="cls-9" x="86.4" y="28.8" width="993.6" height="475.2"/></clipPath><clipPath id="clippath-2"><rect class="cls-9" x="86.4" y="28.8" width="993.6" height="475.2"/></clipPath></defs><line class="cls-5" x1="86.4" y1="456.48" x2="86.4" y2="76.32"/><line class="cls-5" x1="86.4" y1="456.48" x2="79.2" y2="456.48"/><line class="cls-5" x1="86.4" y1="361.44" x2="79.2" y2="361.44"/><line class="cls-5" x1="86.4" y1="266.4" x2="79.2" y2="266.4"/><line class="cls-5" x1="86.4" y1="171.36" x2="79.2" y2="171.36"/><line class="cls-5" x1="86.4" y1="76.32" x2="79.2" y2="76.32"/><path d="m54.96,457.24v.98h-6.11v-.98h6.11Z"/><path d="m60.92,453.74c.38.69.56,1.64.56,2.84,0,1.14-.17,2.08-.51,2.83-.49,1.07-1.3,1.61-2.41,1.61-1.01,0-1.76-.44-2.25-1.31-.41-.73-.62-1.71-.62-2.94,0-.95.12-1.77.37-2.46.46-1.27,1.29-1.91,2.5-1.91,1.09,0,1.87.45,2.36,1.34Zm-1.06,5.59c.32-.48.49-1.39.49-2.71,0-.95-.12-1.74-.35-2.35s-.69-.92-1.37-.92c-.62,0-1.08.29-1.36.88s-.43,1.44-.43,2.58c0,.86.09,1.54.28,2.06.28.79.76,1.19,1.44,1.19.55,0,.98-.24,1.31-.73Z"/><path d="m63.02,459.51h1.22v1.28h-1.22v-1.28Z"/><path d="m66.15,458.9c.26-.54.77-1.02,1.52-1.46l1.12-.65c.5-.29.86-.54,1.06-.75.32-.32.48-.7.48-1.11,0-.49-.15-.88-.44-1.16s-.68-.43-1.17-.43c-.72,0-1.22.27-1.5.82-.15.29-.23.7-.25,1.22h-1.07c.01-.73.15-1.33.4-1.79.46-.81,1.26-1.22,2.42-1.22.96,0,1.66.26,2.11.78s.67,1.1.67,1.73c0,.67-.24,1.25-.71,1.72-.27.28-.76.61-1.47,1.01l-.8.45c-.38.21-.68.41-.9.6-.39.34-.64.72-.74,1.13h4.58v1h-5.76c.04-.72.19-1.35.45-1.89Z"/><path d="m60.92,358.7c.38.69.56,1.64.56,2.84,0,1.14-.17,2.08-.51,2.83-.49,1.07-1.3,1.61-2.41,1.61-1.01,0-1.76-.44-2.25-1.31-.41-.73-.62-1.71-.62-2.94,0-.95.12-1.77.37-2.46.46-1.27,1.29-1.91,2.5-1.91,1.09,0,1.87.45,2.36,1.34Zm-1.06,5.59c.32-.48.49-1.39.49-2.71,0-.95-.12-1.74-.35-2.35s-.69-.92-1.37-.92c-.62,0-1.08.29-1.36.88s-.43,1.44-.43,2.58c0,.86.09,1.54.28,2.06.28.79.76,1.19,1.44,1.19.55,0,.98-.24,1.31-.73Z"/><path d="m63.02,364.47h1.22v1.28h-1.22v-1.28Z"/><path d="m70.93,358.7c.38.69.56,1.64.56,2.84,0,1.14-.17,2.08-.51,2.83-.49,1.07-1.3,1.61-2.41,1.61-1.01,0-1.76-.44-2.25-1.31-.41-.73-.62-1.71-.62-2.94,0-.95.12-1.77.37-2.46.46-1.27,1.29-1.91,2.5-1.91,1.09,0,1.87.45,2.36,1.34Zm-1.06,5.59c.32-.48.49-1.39.49-2.71,0-.95-.12-1.74-.35-2.35s-.69-.92-1.37-.92c-.62,0-1.08.29-1.36.88s-.43,1.44-.43,2.58c0,.86.09,1.54.28,2.06.28.79.76,1.19,1.44,1.19.55,0,.98-.24,1.31-.73Z"/><path d="m60.92,263.66c.38.69.56,1.64.56,2.84,0,1.14-.17,2.08-.51,2.83-.49,1.07-1.3,1.61-2.41,1.61-1.01,0-1.76-.44-2.25-1.31-.41-.73-.62-1.71-.62-2.94,0-.95.12-1.77.37-2.46.46-1.27,1.29-1.91,2.5-1.91,1.09,0,1.87.45,2.36,1.34Zm-1.06,5.59c.32-.48.49-1.39.49-2.71,0-.95-.12-1.74-.35-2.35s-.69-.92-1.37-.92c-.62,0-1.08.29-1.36.88s-.43,1.44-.43,2.58c0,.86.09,1.54.28,2.06.28.79.76,1.19,1.44,1.19.55,0,.98-.24,1.31-.73Z"/><path d="m63.02,269.43h1.22v1.28h-1.22v-1.28Z"/><path d="m66.15,268.82c.26-.54.77-1.02,1.52-1.46l1.12-.65c.5-.29.86-.54,1.06-.75.32-.32.48-.7.48-1.11,0-.49-.15-.88-.44-1.16s-.68-.43-1.17-.43c-.72,0-1.22.27-1.5.82-.15.29-.23.7-.25,1.22h-1.07c.01-.73.15-1.33.4-1.79.46-.81,1.26-1.22,2.42-1.22.96,0,1.66.26,2.11.78s.67,1.1.67,1.73c0,.67-.24,1.25-.71,1.72-.27.28-.76.61-1.47,1.01l-.8.45c-.38.21-.68.41-.9.6-.39.34-.64.72-.74,1.13h4.58v1h-5.76c.04-.72.19-1.35.45-1.89Z"/><path d="m60.92,168.62c.38.69.56,1.64.56,2.84,0,1.14-.17,2.08-.51,2.83-.49,1.07-1.3,1.61-2.41,1.61-1.01,0-1.76-.44-2.25-1.31-.41-.73-.62-1.71-.62-2.94,0-.95.12-1.77.37-2.46.46-1.27,1.29-1.91,2.5-1.91,1.09,0,1.87.45,2.36,1.34Zm-1.06,5.59c.32-.48.49-1.39.49-2.71,0-.95-.12-1.74-.35-2.35s-.69-.92-1.37-.92c-.62,0-1.08.29-1.36.88s-.43,1.44-.43,2.58c0,.86.09,1.54.28,2.06.28.79.76,1.19,1.44,1.19.55,0,.98-.24,1.31-.73Z"/><path d="m63.02,174.39h1.22v1.28h-1.22v-1.28Z"/><path d="m69.31,175.67v-2.05h-3.68v-1.03l3.84-5.33h.89v5.44h1.24v.92h-1.24v2.05h-1.05Zm-.02-2.97v-3.8l-2.69,3.8h2.69Z"/><path d="m60.92,73.58c.38.69.56,1.64.56,2.84,0,1.14-.17,2.08-.51,2.83-.49,1.07-1.3,1.61-2.41,1.61-1.01,0-1.76-.44-2.25-1.31-.41-.73-.62-1.71-.62-2.94,0-.95.12-1.77.37-2.46.46-1.27,1.29-1.91,2.5-1.91,1.09,0,1.87.45,2.36,1.34Zm-1.06,5.59c.32-.48.49-1.39.49-2.71,0-.95-.12-1.74-.35-2.35s-.69-.92-1.37-.92c-.62,0-1.08.29-1.36.88s-.43,1.44-.43,2.58c0,.86.09,1.54.28,2.06.28.79.76,1.19,1.44,1.19.55,0,.98-.24,1.31-.73Z"/><path d="m63.02,79.35h1.22v1.28h-1.22v-1.28Z"/><path d="m70.8,72.93c.37.49.55.99.55,1.5h-1.04c-.06-.33-.16-.59-.3-.78-.25-.35-.64-.53-1.15-.53-.59,0-1.06.27-1.41.82s-.54,1.33-.58,2.34c.24-.36.55-.62.91-.8.34-.16.71-.23,1.12-.23.7,0,1.32.22,1.84.67s.79,1.12.79,2.01c0,.76-.25,1.44-.74,2.02s-1.2.88-2.12.88c-.79,0-1.46-.3-2.03-.89s-.86-1.6-.86-3.01c0-1.04.13-1.93.38-2.65.49-1.39,1.38-2.09,2.68-2.09.94,0,1.59.24,1.96.73Zm-.79,6.42c.28-.37.41-.81.41-1.32,0-.43-.12-.84-.37-1.23s-.69-.58-1.34-.58c-.45,0-.85.15-1.19.45s-.51.75-.51,1.36c0,.53.16.98.47,1.34s.74.54,1.29.54.97-.19,1.25-.56Z"/><g class="cls-25"><path d="m34.04,287.39v-1h1.08c-.21-.08-.47-.28-.77-.6s-.45-.69-.45-1.11c0-.02,0-.05,0-.1s.01-.13.02-.24h1.11c-.01.06-.02.12-.02.17s0,.11,0,.17c0,.53.17.94.51,1.22s.74.43,1.18.43h3.61v1.05h-6.28Z"/><path d="m36.52,280.18c-.03-.24-.13-.4-.3-.49-.09-.05-.23-.07-.4-.07-.36,0-.62.13-.78.38s-.24.62-.24,1.1c0,.55.15.94.45,1.17.16.13.41.21.73.25v.98c-.77-.02-1.31-.27-1.61-.75s-.45-1.04-.45-1.68c0-.74.14-1.34.42-1.8.28-.46.72-.69,1.31-.69h3.62c.11,0,.2-.02.26-.07s.1-.14.1-.28c0-.05,0-.1,0-.16s-.01-.12-.03-.19h.78c.05.16.08.29.09.38s.02.2.02.35c0,.36-.13.63-.39.79-.14.09-.33.15-.58.18.28.21.53.52.73.93s.31.85.31,1.33c0,.58-.18,1.06-.53,1.43s-.8.55-1.33.55c-.58,0-1.03-.18-1.35-.54s-.52-.84-.59-1.43l-.21-1.68Zm2.85,2.22c.18-.22.26-.49.26-.79,0-.37-.09-.73-.26-1.08-.29-.59-.75-.88-1.4-.88h-.85c.08.13.15.29.21.5s.09.4.12.6l.08.64c.05.38.13.67.24.86.18.32.48.49.88.49.3,0,.54-.11.72-.33Z"/><path d="m32.29,276.66v-1.07h1.75v-1h.86v1h4.1c.22,0,.37-.07.44-.22.04-.08.06-.22.06-.41,0-.05,0-.11,0-.16s0-.13-.01-.21h.83c.04.12.06.25.08.38s.02.27.02.42c0,.49-.13.83-.38,1s-.58.26-.98.26h-4.15v.85h-.86v-.85h-1.75Z"/><path d="m31.71,273.53v-1.07h1.2v1.07h-1.2Zm2.36,0v-1.07h6.25v1.07h-6.25Z"/><path d="m34.67,266.28c.54-.56,1.33-.84,2.38-.84s1.85.25,2.51.74.99,1.26.99,2.29c0,.86-.29,1.55-.88,2.06s-1.37.76-2.35.76c-1.05,0-1.89-.27-2.52-.8s-.94-1.25-.94-2.16c0-.81.27-1.49.81-2.05Zm4.17.65c-.53-.26-1.12-.39-1.77-.39-.59,0-1.06.09-1.43.28-.58.3-.87.81-.87,1.54,0,.64.25,1.11.74,1.41s1.09.44,1.78.44,1.22-.15,1.67-.44.67-.76.67-1.39c0-.7-.26-1.18-.79-1.44Z"/><path d="m36.77,254.98h.98v6.11h-.98v-6.11Z"/><path d="m34.38,250.14h-.81c-.07-.76-.2-1.29-.37-1.59s-.58-.53-1.23-.67v-.83h8.36v1.12h-5.94v1.97Z"/></g><path d="m464,15.84h3.06l4.58,12.96h-2.94l-.85-2.66h-4.77l-.88,2.66h-2.83l4.62-12.96Zm-.18,8.06h3.32l-1.64-5.1-1.68,5.1Z"/><path d="m475.65,28.8h-2.5v-12.96h2.5v12.96Z"/><path d="m480.65,28.8h-2.5v-12.96h2.5v12.96Z"/><path d="m487.11,21.09v-1.78h1.34v-2.67h2.48v2.67h1.56v1.78h-1.56v5.06c0,.39.05.64.15.73s.4.15.91.15c.08,0,.16,0,.24,0s.17,0,.25-.01v1.87l-1.19.04c-1.18.04-1.99-.16-2.43-.62-.28-.29-.42-.73-.42-1.33v-5.9h-1.34Z"/><path d="m500.97,19.27c.48.21.88.52,1.19.94.26.36.42.73.48,1.1.06.38.09,1,.09,1.85v5.63h-2.56v-5.83c0-.52-.09-.93-.26-1.25-.23-.45-.66-.67-1.29-.67s-1.16.22-1.5.66-.51,1.07-.51,1.9v5.19h-2.5v-12.91h2.5v4.57c.36-.56.78-.94,1.26-1.16.48-.22.98-.33,1.5-.33.59,0,1.12.1,1.61.31Z"/><path d="m510.4,19s.1,0,.22.01v2.57c-.16-.02-.3-.03-.42-.04s-.22,0-.3,0c-1.01,0-1.68.33-2.03.98-.19.37-.29.94-.29,1.71v4.58h-2.52v-9.58h2.39v1.67c.39-.64.72-1.08,1.01-1.31.47-.39,1.08-.59,1.83-.59.05,0,.09,0,.12,0Z"/><path d="m518.33,19.41c.67.3,1.22.77,1.66,1.42.39.57.65,1.23.76,1.98.07.44.09,1.07.08,1.9h-6.98c.04.96.37,1.63,1,2.02.38.24.84.36,1.38.36.57,0,1.03-.15,1.39-.44.19-.16.37-.38.52-.66h2.56c-.07.57-.38,1.15-.93,1.73-.86.93-2.06,1.4-3.6,1.4-1.27,0-2.4-.39-3.37-1.18s-1.46-2.06-1.46-3.84c0-1.66.44-2.93,1.32-3.82.88-.89,2.02-1.33,3.43-1.33.83,0,1.58.15,2.25.45Zm-3.75,2.16c-.35.36-.58.86-.67,1.48h4.32c-.05-.67-.27-1.17-.67-1.51-.4-.34-.89-.52-1.49-.52-.64,0-1.14.18-1.5.55Z"/><path d="m524.04,25.74c.05.45.17.76.34.95.31.33.89.5,1.73.5.49,0,.89-.07,1.18-.22s.44-.37.44-.66-.12-.5-.35-.64-1.11-.4-2.62-.76c-1.09-.27-1.86-.61-2.3-1.01-.45-.4-.67-.97-.67-1.72,0-.88.35-1.65,1.04-2.28.7-.64,1.67-.95,2.94-.95s2.17.24,2.93.72,1.19,1.3,1.3,2.47h-2.5c-.04-.32-.13-.58-.27-.76-.28-.34-.75-.51-1.41-.51-.55,0-.94.08-1.17.25s-.35.37-.35.6c0,.29.12.5.37.62.25.13,1.12.37,2.62.69,1,.23,1.75.59,2.24,1.06.49.48.74,1.08.74,1.8,0,.95-.35,1.72-1.06,2.32-.71.6-1.8.9-3.28.9s-2.62-.32-3.34-.95c-.72-.64-1.08-1.45-1.08-2.43h2.54Z"/><path d="m538.99,19.27c.48.21.88.52,1.19.94.26.36.42.73.48,1.1.06.38.09,1,.09,1.85v5.63h-2.56v-5.83c0-.52-.09-.93-.26-1.25-.23-.45-.66-.67-1.29-.67s-1.16.22-1.5.66-.51,1.07-.51,1.9v5.19h-2.5v-12.91h2.5v4.57c.36-.56.78-.94,1.26-1.16.48-.22.98-.33,1.5-.33.59,0,1.12.1,1.61.31Z"/><path d="m551.09,27.63c-.81,1-2.04,1.5-3.68,1.5s-2.87-.5-3.68-1.5-1.21-2.2-1.21-3.6.4-2.58,1.21-3.59c.81-1.01,2.04-1.52,3.68-1.52s2.87.51,3.68,1.52c.81,1.01,1.21,2.21,1.21,3.59s-.4,2.61-1.21,3.6Zm-2-1.38c.39-.52.59-1.26.59-2.22s-.2-1.7-.59-2.22c-.39-.52-.96-.78-1.69-.78s-1.3.26-1.69.78c-.4.52-.59,1.26-.59,2.22s.2,1.7.59,2.22c.39.52.96.78,1.69.78s1.29-.26,1.69-.78Z"/><path d="m556.65,28.8h-2.5v-12.96h2.5v12.96Z"/><path d="m564.18,19.37c.45.25.82.61,1.1,1.06v-4.57h2.54v12.94h-2.43v-1.33c-.36.57-.76.98-1.22,1.24s-1.03.39-1.71.39c-1.12,0-2.06-.45-2.83-1.36-.77-.91-1.15-2.07-1.15-3.48,0-1.63.38-2.92,1.13-3.86.75-.94,1.76-1.41,3.02-1.41.58,0,1.1.13,1.55.38Zm.62,6.82c.37-.53.55-1.21.55-2.05,0-1.17-.3-2.01-.89-2.51-.36-.3-.79-.46-1.27-.46-.73,0-1.27.28-1.61.83-.34.55-.51,1.24-.51,2.06,0,.88.17,1.59.52,2.12s.88.8,1.59.8,1.25-.26,1.62-.79Z"/><path d="m572.04,25.74c.05.45.17.76.34.95.31.33.89.5,1.73.5.5,0,.89-.07,1.18-.22.29-.15.44-.37.44-.66s-.12-.5-.35-.64c-.23-.15-1.11-.4-2.62-.76-1.09-.27-1.86-.61-2.3-1.01-.45-.4-.67-.97-.67-1.72,0-.88.35-1.65,1.04-2.28.7-.64,1.67-.95,2.94-.95,1.2,0,2.17.24,2.93.72.75.48,1.19,1.3,1.3,2.47h-2.5c-.04-.32-.13-.58-.27-.76-.28-.34-.75-.51-1.41-.51-.55,0-.94.08-1.17.25-.23.17-.35.37-.35.6,0,.29.12.5.37.62.25.13,1.12.37,2.62.69,1,.23,1.75.59,2.24,1.06.49.48.74,1.08.74,1.8,0,.95-.35,1.72-1.06,2.32-.71.6-1.8.9-3.28.9s-2.62-.32-3.34-.95c-.72-.64-1.08-1.45-1.08-2.43h2.54Z"/><path d="m594.1,22.88v2.29h-9.52v-2.29h9.52Z"/><path d="m602.56,25.74c.05.45.17.76.34.95.31.33.89.5,1.73.5.5,0,.89-.07,1.18-.22.29-.15.44-.37.44-.66s-.12-.5-.35-.64c-.23-.15-1.11-.4-2.62-.76-1.09-.27-1.86-.61-2.3-1.01-.45-.4-.67-.97-.67-1.72,0-.88.35-1.65,1.04-2.28.7-.64,1.67-.95,2.94-.95,1.2,0,2.17.24,2.93.72.75.48,1.19,1.3,1.3,2.47h-2.5c-.04-.32-.13-.58-.27-.76-.28-.34-.75-.51-1.41-.51-.55,0-.94.08-1.17.25-.23.17-.35.37-.35.6,0,.29.12.5.37.62.25.13,1.12.37,2.62.69,1,.23,1.75.59,2.24,1.06.49.48.74,1.08.74,1.8,0,.95-.35,1.72-1.06,2.32-.71.6-1.8.9-3.28.9s-2.62-.32-3.34-.95c-.72-.64-1.08-1.45-1.08-2.43h2.54Z"/><path d="m609.64,21.09v-1.78h1.34v-2.67h2.48v2.67h1.56v1.78h-1.56v5.06c0,.39.05.64.15.73s.4.15.91.15c.08,0,.16,0,.24,0,.08,0,.17,0,.25-.01v1.87l-1.19.04c-1.18.04-1.99-.16-2.43-.62-.28-.29-.42-.73-.42-1.33v-5.9h-1.34Z"/><path d="m620.42,22.97c.47-.06.8-.13,1-.22.36-.15.54-.39.54-.71,0-.39-.14-.66-.41-.81s-.68-.22-1.22-.22c-.6,0-1.02.15-1.27.44-.18.22-.3.51-.36.88h-2.42c.05-.84.29-1.53.71-2.07.67-.84,1.81-1.27,3.42-1.27,1.05,0,1.99.21,2.81.62.82.42,1.23,1.2,1.23,2.36v4.39c0,.3,0,.67.02,1.11.02.33.07.55.15.67s.21.21.37.29v.37h-2.72c-.08-.19-.13-.38-.16-.54s-.05-.36-.07-.58c-.35.38-.75.69-1.2.96-.54.31-1.16.47-1.84.47-.87,0-1.59-.25-2.16-.74-.57-.5-.85-1.2-.85-2.1,0-1.18.46-2.03,1.37-2.56.5-.29,1.24-.49,2.21-.62l.86-.11Zm1.53,1.17c-.16.1-.32.18-.49.24-.16.06-.39.12-.67.17l-.57.11c-.53.09-.92.21-1.15.34-.39.23-.59.58-.59,1.06,0,.43.12.74.36.93s.53.29.88.29c.55,0,1.05-.16,1.51-.47s.7-.89.72-1.73v-.93Z"/><path d="m625.65,21.09v-1.78h1.34v-2.67h2.48v2.67h1.56v1.78h-1.56v5.06c0,.39.05.64.15.73s.4.15.91.15c.08,0,.16,0,.24,0,.08,0,.17,0,.25-.01v1.87l-1.19.04c-1.18.04-1.99-.16-2.43-.62-.28-.29-.42-.73-.42-1.33v-5.9h-1.34Z"/><path d="m633.5,19.59h2.66v2.63h-2.66v-2.63Zm0,6.58h2.66v2.63h-2.66v-2.63Z"/><path d="m651.42,16.13c.91.3,1.64.85,2.21,1.64.45.64.76,1.34.92,2.09s.25,1.46.25,2.14c0,1.72-.35,3.18-1.04,4.38-.94,1.61-2.39,2.42-4.34,2.42h-5.59v-12.96h5.59c.8.01,1.47.11,2,.28Zm-4.96,1.97v8.46h2.5c1.28,0,2.17-.63,2.68-1.89.28-.69.41-1.51.41-2.47,0-1.32-.21-2.33-.62-3.04-.41-.71-1.24-1.06-2.47-1.06h-2.5Z"/><path d="m662.86,19.41c.67.3,1.22.77,1.66,1.42.39.57.65,1.23.76,1.98.07.44.1,1.07.08,1.9h-6.98c.04.96.37,1.63,1,2.02.38.24.84.36,1.38.36.57,0,1.03-.15,1.39-.44.2-.16.37-.38.52-.66h2.56c-.07.57-.38,1.15-.93,1.73-.86.93-2.06,1.4-3.6,1.4-1.27,0-2.4-.39-3.37-1.18s-1.46-2.06-1.46-3.84c0-1.66.44-2.93,1.32-3.82.88-.89,2.02-1.33,3.43-1.33.83,0,1.58.15,2.25.45Zm-3.75,2.16c-.35.36-.58.86-.67,1.48h4.32c-.05-.67-.27-1.17-.67-1.51s-.89-.52-1.49-.52c-.64,0-1.14.18-1.5.55Z"/><path d="m674.36,19.77c.63.52.94,1.38.94,2.58v6.45h-2.57v-5.83c0-.5-.07-.89-.2-1.16-.25-.49-.71-.74-1.4-.74-.84,0-1.42.36-1.74,1.08-.16.38-.24.87-.24,1.46v5.19h-2.5v-9.56h2.43v1.4c.32-.49.62-.85.91-1.06.51-.39,1.16-.58,1.95-.58.99,0,1.79.26,2.42.78Z"/><path d="m679.57,25.74c.05.45.17.76.34.95.31.33.89.5,1.73.5.5,0,.89-.07,1.18-.22.29-.15.44-.37.44-.66s-.12-.5-.35-.64c-.23-.15-1.11-.4-2.62-.76-1.09-.27-1.86-.61-2.3-1.01-.45-.4-.67-.97-.67-1.72,0-.88.35-1.65,1.04-2.28.7-.64,1.67-.95,2.94-.95,1.2,0,2.17.24,2.93.72.75.48,1.19,1.3,1.3,2.47h-2.5c-.04-.32-.13-.58-.27-.76-.28-.34-.75-.51-1.41-.51-.55,0-.94.08-1.17.25-.23.17-.35.37-.35.6,0,.29.12.5.37.62.25.13,1.12.37,2.62.69,1,.23,1.75.59,2.24,1.06.49.48.74,1.08.74,1.8,0,.95-.35,1.72-1.06,2.32-.71.6-1.8.9-3.28.9s-2.62-.32-3.34-.95c-.72-.64-1.08-1.45-1.08-2.43h2.54Z"/><path d="m690.21,18.08h-2.54v-2.31h2.54v2.31Zm-2.54,1.14h2.54v9.58h-2.54v-9.58Z"/><path d="m691.65,21.09v-1.78h1.34v-2.67h2.48v2.67h1.56v1.78h-1.56v5.06c0,.39.05.64.15.73s.4.15.91.15c.08,0,.16,0,.24,0,.08,0,.17,0,.25-.01v1.87l-1.19.04c-1.18.04-1.99-.16-2.43-.62-.28-.29-.42-.73-.42-1.33v-5.9h-1.34Z"/><path d="m699.01,30.64l.32.02c.25.01.48,0,.7-.03s.41-.1.56-.2c.15-.1.28-.31.41-.62s.18-.51.16-.58l-3.52-10h2.79l2.09,7.07,1.98-7.07h2.66l-3.29,9.42c-.63,1.82-1.14,2.94-1.51,3.38-.37.44-1.11.65-2.22.65-.22,0-.4,0-.54,0-.14,0-.34-.01-.61-.03v-2Z"/><g class="cls-23"><line class="cls-10" x1="86.4" y1="504" x2="1080" y2="504"/><line class="cls-10" x1="86.4" y1="480.24" x2="1080" y2="480.24"/><line class="cls-10" x1="86.4" y1="456.48" x2="1080" y2="456.48"/><line class="cls-10" x1="86.4" y1="432.72" x2="1080" y2="432.72"/><line class="cls-10" x1="86.4" y1="408.96" x2="1080" y2="408.96"/><line class="cls-10" x1="86.4" y1="385.2" x2="1080" y2="385.2"/><line class="cls-10" x1="86.4" y1="361.44" x2="1080" y2="361.44"/><line class="cls-10" x1="86.4" y1="337.68" x2="1080" y2="337.68"/><line class="cls-10" x1="86.4" y1="313.92" x2="1080" y2="313.92"/><line class="cls-10" x1="86.4" y1="290.16" x2="1080" y2="290.16"/><line class="cls-10" x1="86.4" y1="266.4" x2="1080" y2="266.4"/><line class="cls-10" x1="86.4" y1="242.64" x2="1080" y2="242.64"/><line class="cls-10" x1="86.4" y1="218.88" x2="1080" y2="218.88"/><line class="cls-10" x1="86.4" y1="195.12" x2="1080" y2="195.12"/><line class="cls-10" x1="86.4" y1="171.36" x2="1080" y2="171.36"/><line class="cls-10" x1="86.4" y1="147.6" x2="1080" y2="147.6"/><line class="cls-10" x1="86.4" y1="123.84" x2="1080" y2="123.84"/><line class="cls-10" x1="86.4" y1="100.08" x2="1080" y2="100.08"/><line class="cls-10" x1="86.4" y1="76.32" x2="1080" y2="76.32"/><line class="cls-10" x1="86.4" y1="52.56" x2="1080" y2="52.56"/><line class="cls-10" x1="86.4" y1="28.8" x2="1080" y2="28.8"/><line class="cls-4" x1="104.64" y1="504" x2="104.64" y2="28.8"/><line class="cls-4" x1="244.98" y1="504" x2="244.98" y2="28.8"/><line class="cls-4" x1="385.32" y1="504" x2="385.32" y2="28.8"/><line class="cls-4" x1="525.66" y1="504" x2="525.66" y2="28.8"/><line class="cls-4" x1="666" y1="504" x2="666" y2="28.8"/><line class="cls-4" x1="806.34" y1="504" x2="806.34" y2="28.8"/><line class="cls-4" x1="946.68" y1="504" x2="946.68" y2="28.8"/><line class="cls-4" x1="225.34" y1="504" x2="225.34" y2="28.8"/><line class="cls-4" x1="365.67" y1="504" x2="365.67" y2="28.8"/><line class="cls-4" x1="506.01" y1="504" x2="506.01" y2="28.8"/><line class="cls-4" x1="646.35" y1="504" x2="646.35" y2="28.8"/><line class="cls-4" x1="786.69" y1="504" x2="786.69" y2="28.8"/><line class="cls-4" x1="927.03" y1="504" x2="927.03" y2="28.8"/><line class="cls-4" x1="1067.37" y1="504" x2="1067.37" y2="28.8"/></g><path d="m128.48,521.18h5.81c1.15,0,2.07.32,2.78.97s1.05,1.56,1.05,2.73c0,1.01-.31,1.88-.94,2.63-.63.75-1.59,1.12-2.89,1.12h-4.06v5.46h-1.75v-12.91Zm6.82,1.78c-.39-.18-.92-.27-1.59-.27h-3.48v4.47h3.48c.79,0,1.42-.17,1.91-.5s.73-.92.73-1.77c0-.95-.35-1.59-1.05-1.93Z"/><path d="m144.43,528.39c.36-.05.61-.2.73-.46.07-.14.11-.34.11-.61,0-.54-.19-.93-.58-1.17-.38-.24-.93-.36-1.65-.36-.83,0-1.41.22-1.76.67-.19.25-.32.61-.38,1.1h-1.48c.03-1.16.41-1.97,1.13-2.42.72-.45,1.56-.68,2.52-.68,1.11,0,2.01.21,2.7.63.69.42,1.03,1.08,1.03,1.97v5.42c0,.16.03.3.1.4s.21.15.43.15c.07,0,.15,0,.24-.01.09,0,.18-.02.28-.04v1.17c-.25.07-.43.11-.56.13s-.3.03-.53.03c-.54,0-.94-.19-1.19-.58-.13-.21-.22-.5-.27-.87-.32.42-.79.79-1.39,1.1s-1.27.47-2,.47c-.87,0-1.59-.27-2.14-.79-.55-.53-.83-1.19-.83-1.99,0-.87.27-1.55.82-2.03s1.26-.78,2.14-.89l2.52-.32Zm-3.33,4.28c.33.26.73.4,1.19.4.56,0,1.1-.13,1.62-.39.88-.43,1.32-1.13,1.32-2.1v-1.27c-.19.12-.44.23-.75.31s-.6.14-.9.18l-.96.12c-.57.08-1,.2-1.29.36-.49.28-.73.71-.73,1.32,0,.46.17.82.5,1.08Z"/><path d="m149.44,521.18h1.58v12.91h-1.58v-12.91Z"/><path d="m159.26,524.94c.63.31,1.1.72,1.43,1.22.32.47.53,1.03.63,1.66.09.43.14,1.12.14,2.07h-6.9c.03.96.25,1.72.68,2.3s1.08.87,1.96.87c.83,0,1.49-.27,1.98-.82.28-.32.48-.68.6-1.1h1.56c-.04.35-.18.73-.41,1.16s-.49.77-.78,1.04c-.48.47-1.08.79-1.78.95-.38.09-.81.14-1.29.14-1.17,0-2.17-.43-2.98-1.28-.81-.85-1.22-2.05-1.22-3.58s.41-2.74,1.23-3.68,1.89-1.42,3.22-1.42c.67,0,1.32.16,1.94.47Zm.58,3.7c-.06-.69-.21-1.23-.45-1.64-.43-.76-1.16-1.14-2.17-1.14-.73,0-1.34.26-1.83.79s-.75,1.19-.78,2h5.23Z"/><path d="m164.35,531.14c.05.53.18.93.4,1.21.4.51,1.09.76,2.07.76.59,0,1.1-.13,1.55-.38.45-.26.67-.65.67-1.18,0-.4-.18-.71-.54-.92-.23-.13-.68-.28-1.35-.45l-1.26-.32c-.8-.2-1.39-.42-1.78-.67-.68-.43-1.02-1.02-1.02-1.78,0-.89.32-1.61.96-2.16s1.5-.83,2.59-.83c1.42,0,2.44.42,3.07,1.25.39.53.58,1.1.57,1.71h-1.49c-.03-.36-.16-.68-.38-.98-.36-.42-.99-.62-1.89-.62-.6,0-1.05.11-1.36.34s-.46.53-.46.91c0,.41.2.74.61.98.23.15.58.28,1.04.39l1.05.25c1.14.28,1.9.54,2.29.8.62.4.92,1.04.92,1.91s-.32,1.56-.95,2.17-1.6.91-2.9.91c-1.4,0-2.39-.32-2.98-.95-.58-.63-.9-1.42-.94-2.36h1.52Z"/><path d="m172.72,522.05h1.6v2.63h1.5v1.29h-1.5v6.14c0,.33.11.55.33.66.12.06.33.1.62.1.08,0,.16,0,.25,0,.09,0,.19,0,.31-.02v1.25c-.18.05-.37.09-.57.11s-.41.04-.64.04c-.74,0-1.24-.19-1.5-.57-.26-.38-.4-.87-.4-1.47v-6.23h-1.27v-1.29h1.27v-2.63Z"/><path d="m177.41,521.18h1.61v1.79h-1.61v-1.79Zm0,3.54h1.61v9.37h-1.61v-9.37Z"/><path d="m181.41,524.68h1.5v1.34c.45-.55.92-.95,1.42-1.19s1.05-.36,1.66-.36c1.34,0,2.24.47,2.71,1.4.26.51.39,1.24.39,2.19v6.04h-1.61v-5.93c0-.57-.08-1.04-.25-1.39-.28-.59-.79-.88-1.53-.88-.38,0-.68.04-.92.11-.43.13-.81.39-1.14.77-.26.31-.44.63-.51.96s-.12.8-.12,1.42v4.93h-1.58v-9.41Z"/><path d="m191.42,521.18h1.61v1.79h-1.61v-1.79Zm0,3.54h1.61v9.37h-1.61v-9.37Z"/><path d="m200.46,528.39c.36-.05.61-.2.73-.46.07-.14.11-.34.11-.61,0-.54-.19-.93-.58-1.17-.38-.24-.93-.36-1.65-.36-.83,0-1.41.22-1.76.67-.19.25-.32.61-.38,1.1h-1.48c.03-1.16.41-1.97,1.13-2.42.72-.45,1.56-.68,2.52-.68,1.11,0,2.01.21,2.7.63.69.42,1.03,1.08,1.03,1.97v5.42c0,.16.03.3.1.4s.21.15.43.15c.07,0,.15,0,.24-.01.09,0,.18-.02.28-.04v1.17c-.25.07-.43.11-.56.13s-.3.03-.53.03c-.54,0-.94-.19-1.19-.58-.13-.21-.22-.5-.27-.87-.32.42-.79.79-1.39,1.1s-1.27.47-2,.47c-.87,0-1.59-.27-2.14-.79-.55-.53-.83-1.19-.83-1.99,0-.87.27-1.55.82-2.03s1.26-.78,2.14-.89l2.52-.32Zm-3.33,4.28c.33.26.73.4,1.19.4.56,0,1.1-.13,1.62-.39.88-.43,1.32-1.13,1.32-2.1v-1.27c-.19.12-.44.23-.75.31s-.6.14-.9.18l-.96.12c-.57.08-1,.2-1.29.36-.49.28-.73.71-.73,1.32,0,.46.17.82.5,1.08Z"/><path d="m205.43,524.68h1.5v1.34c.45-.55.92-.95,1.42-1.19s1.05-.36,1.66-.36c1.34,0,2.24.47,2.71,1.4.26.51.39,1.24.39,2.19v6.04h-1.61v-5.93c0-.57-.08-1.04-.25-1.39-.28-.59-.79-.88-1.53-.88-.38,0-.68.04-.92.11-.43.13-.81.39-1.14.77-.26.31-.44.63-.51.96s-.12.8-.12,1.42v4.93h-1.58v-9.41Z"/><path d="m280.94,528.36c.04.73.21,1.33.52,1.78.58.86,1.6,1.28,3.07,1.28.66,0,1.25-.09,1.79-.28,1.04-.36,1.56-1.01,1.56-1.95,0-.7-.22-1.2-.66-1.5-.45-.29-1.14-.55-2.09-.76l-1.75-.4c-1.14-.26-1.95-.54-2.43-.85-.82-.54-1.23-1.34-1.23-2.42,0-1.16.4-2.11,1.2-2.86s1.94-1.12,3.41-1.12c1.35,0,2.5.33,3.45.98s1.42,1.7,1.42,3.13h-1.64c-.09-.69-.28-1.22-.56-1.59-.53-.67-1.44-1.01-2.72-1.01-1.03,0-1.77.22-2.22.65s-.68.94-.68,1.51c0,.63.26,1.1.79,1.39.35.19,1.13.42,2.35.7l1.81.41c.87.2,1.55.47,2.02.82.82.6,1.23,1.48,1.23,2.63,0,1.43-.52,2.45-1.56,3.07s-2.25.92-3.63.92c-1.61,0-2.86-.41-3.77-1.23-.91-.81-1.35-1.92-1.34-3.31h1.64Z"/><path d="m291.47,523.16h1.54v1.25c.32-.43.66-.76,1.04-.99.53-.35,1.16-.53,1.88-.53,1.07,0,1.97.41,2.72,1.23.74.82,1.12,1.99,1.12,3.5,0,2.05-.54,3.52-1.61,4.39-.68.56-1.47.83-2.37.83-.71,0-1.3-.16-1.78-.47-.28-.18-.59-.48-.94-.91v4.81h-1.58v-13.12Zm5.94,7.38c.49-.62.73-1.54.73-2.77,0-.75-.11-1.39-.33-1.93-.41-1.04-1.16-1.56-2.25-1.56s-1.85.55-2.25,1.64c-.22.59-.33,1.33-.33,2.23,0,.73.11,1.34.33,1.85.41.97,1.16,1.46,2.25,1.46.74,0,1.35-.31,1.84-.93Z"/><path d="m306.65,526.83c.36-.05.61-.2.73-.46.07-.14.11-.34.11-.61,0-.54-.19-.93-.58-1.17-.38-.24-.93-.36-1.65-.36-.83,0-1.41.22-1.76.67-.19.25-.32.61-.38,1.1h-1.48c.03-1.16.41-1.97,1.13-2.42.72-.45,1.56-.68,2.52-.68,1.11,0,2.01.21,2.7.63.69.42,1.03,1.08,1.03,1.97v5.42c0,.16.03.3.1.4s.21.15.43.15c.07,0,.15,0,.24-.01.09,0,.18-.02.28-.04v1.17c-.25.07-.43.11-.56.13s-.3.03-.53.03c-.54,0-.94-.19-1.19-.58-.13-.21-.22-.5-.27-.87-.32.42-.79.79-1.39,1.1s-1.27.47-2,.47c-.87,0-1.59-.27-2.14-.79-.55-.53-.83-1.19-.83-1.99,0-.87.27-1.55.82-2.03s1.26-.78,2.14-.89l2.52-.32Zm-3.33,4.28c.33.26.73.4,1.19.4.56,0,1.1-.13,1.62-.39.88-.43,1.32-1.13,1.32-2.1v-1.27c-.19.12-.44.23-.75.31s-.6.14-.9.18l-.96.12c-.57.08-1,.2-1.29.36-.49.28-.73.71-.73,1.32,0,.46.17.82.5,1.08Z"/><path d="m311.62,523.12h1.5v1.34c.45-.55.92-.95,1.42-1.19s1.05-.36,1.66-.36c1.34,0,2.24.47,2.71,1.4.26.51.39,1.24.39,2.19v6.04h-1.61v-5.93c0-.57-.08-1.04-.25-1.39-.28-.59-.79-.88-1.53-.88-.38,0-.68.04-.92.11-.43.13-.81.39-1.14.77-.26.31-.44.63-.51.96s-.12.8-.12,1.42v4.93h-1.58v-9.41Z"/><path d="m321.63,519.62h1.61v1.79h-1.61v-1.79Zm0,3.54h1.61v9.37h-1.61v-9.37Z"/><path d="m326.57,529.58c.05.53.18.93.4,1.21.4.51,1.09.76,2.07.76.59,0,1.1-.13,1.55-.38.45-.26.67-.65.67-1.18,0-.4-.18-.71-.54-.92-.23-.13-.68-.28-1.35-.45l-1.26-.32c-.8-.2-1.39-.42-1.78-.67-.68-.43-1.02-1.02-1.02-1.78,0-.89.32-1.61.96-2.16s1.5-.83,2.59-.83c1.42,0,2.44.42,3.07,1.25.39.53.58,1.1.57,1.71h-1.49c-.03-.36-.16-.68-.38-.98-.36-.42-.99-.62-1.89-.62-.6,0-1.05.11-1.36.34s-.46.53-.46.91c0,.41.2.74.61.98.23.15.58.28,1.04.39l1.05.25c1.14.28,1.9.54,2.29.8.62.4.92,1.04.92,1.91s-.32,1.56-.95,2.17-1.6.91-2.9.91c-1.4,0-2.39-.32-2.98-.95-.58-.63-.9-1.42-.94-2.36h1.52Z"/><path d="m334.63,519.58h1.58v4.82c.38-.47.71-.81,1.01-1,.51-.33,1.15-.5,1.91-.5,1.37,0,2.29.48,2.78,1.43.26.52.4,1.25.4,2.17v6.04h-1.63v-5.93c0-.69-.09-1.2-.26-1.52-.29-.52-.83-.77-1.62-.77-.66,0-1.25.23-1.78.68s-.8,1.3-.8,2.56v4.99h-1.58v-12.96Z"/><path d="m417.54,521.18h1.77v12.91h-1.77v-12.91Z"/><path d="m428.15,525.18c.67.52,1.06,1.4,1.2,2.66h-1.54c-.09-.58-.31-1.06-.64-1.45-.33-.38-.87-.58-1.61-.58-1.01,0-1.73.49-2.16,1.48-.28.64-.42,1.43-.42,2.36s.2,1.74.6,2.38,1.03.97,1.88.97c.66,0,1.18-.2,1.56-.6.38-.4.65-.95.8-1.65h1.54c-.18,1.25-.62,2.16-1.32,2.74-.7.58-1.6.87-2.7.87-1.23,0-2.21-.45-2.94-1.35s-1.1-2.02-1.1-3.37c0-1.65.4-2.94,1.2-3.86s1.83-1.38,3.07-1.38c1.06,0,1.92.26,2.59.77Z"/><path d="m436.79,524.94c.63.31,1.1.72,1.43,1.22.32.47.53,1.03.63,1.66.09.43.14,1.12.14,2.07h-6.9c.03.96.25,1.72.68,2.3s1.08.87,1.96.87c.83,0,1.49-.27,1.98-.82.28-.32.48-.68.6-1.1h1.56c-.04.35-.18.73-.41,1.16s-.49.77-.78,1.04c-.48.47-1.08.79-1.78.95-.38.09-.81.14-1.29.14-1.17,0-2.17-.43-2.98-1.28-.81-.85-1.22-2.05-1.22-3.58s.41-2.74,1.23-3.68,1.89-1.42,3.22-1.42c.67,0,1.32.16,1.94.47Zm.58,3.7c-.06-.69-.21-1.23-.45-1.64-.43-.76-1.16-1.14-2.17-1.14-.73,0-1.34.26-1.83.79s-.75,1.19-.78,2h5.23Z"/><path d="m440.99,521.18h1.58v12.91h-1.58v-12.91Z"/><path d="m449.99,528.39c.36-.05.61-.2.73-.46.07-.14.11-.34.11-.61,0-.54-.19-.93-.58-1.17-.38-.24-.93-.36-1.65-.36-.83,0-1.41.22-1.76.67-.19.25-.32.61-.38,1.1h-1.48c.03-1.16.41-1.97,1.13-2.42.72-.45,1.56-.68,2.52-.68,1.11,0,2.01.21,2.7.63.69.42,1.03,1.08,1.03,1.97v5.42c0,.16.03.3.1.4s.21.15.43.15c.07,0,.15,0,.24-.01.09,0,.18-.02.28-.04v1.17c-.25.07-.43.11-.56.13s-.3.03-.53.03c-.54,0-.94-.19-1.19-.58-.13-.21-.22-.5-.27-.87-.32.42-.79.79-1.39,1.1s-1.27.47-2,.47c-.87,0-1.59-.27-2.14-.79-.55-.53-.83-1.19-.83-1.99,0-.87.27-1.55.82-2.03s1.26-.78,2.14-.89l2.52-.32Zm-3.33,4.28c.33.26.73.4,1.19.4.56,0,1.1-.13,1.62-.39.88-.43,1.32-1.13,1.32-2.1v-1.27c-.19.12-.44.23-.75.31s-.6.14-.9.18l-.96.12c-.57.08-1,.2-1.29.36-.49.28-.73.71-.73,1.32,0,.46.17.82.5,1.08Z"/><path d="m454.95,524.68h1.5v1.34c.45-.55.92-.95,1.42-1.19s1.05-.36,1.66-.36c1.34,0,2.24.47,2.71,1.4.26.51.39,1.24.39,2.19v6.04h-1.61v-5.93c0-.57-.08-1.04-.25-1.39-.28-.59-.79-.88-1.53-.88-.38,0-.68.04-.92.11-.43.13-.81.39-1.14.77-.26.31-.44.63-.51.96s-.12.8-.12,1.42v4.93h-1.58v-9.41Z"/><path d="m470.16,524.97c.28.18.6.48.96.92v-4.75h1.52v12.96h-1.42v-1.31c-.37.58-.81,1-1.31,1.26s-1.08.39-1.73.39c-1.05,0-1.96-.44-2.72-1.32s-1.15-2.06-1.15-3.52c0-1.37.35-2.56,1.05-3.56s1.7-1.51,3-1.51c.72,0,1.32.15,1.81.46Zm-3.55,7.06c.43.68,1.11,1.02,2.06,1.02.73,0,1.33-.31,1.81-.94s.71-1.53.71-2.71-.24-2.07-.73-2.64c-.49-.57-1.09-.86-1.8-.86-.8,0-1.44.3-1.94.91s-.74,1.51-.74,2.69c0,1.01.21,1.85.64,2.53Z"/><path d="m474.97,521.18h1.61v1.79h-1.61v-1.79Zm0,3.54h1.61v9.37h-1.61v-9.37Z"/><path d="m485.19,525.18c.67.52,1.06,1.4,1.2,2.66h-1.54c-.09-.58-.31-1.06-.64-1.45-.33-.38-.87-.58-1.61-.58-1.01,0-1.73.49-2.16,1.48-.28.64-.42,1.43-.42,2.36s.2,1.74.6,2.38,1.03.97,1.88.97c.66,0,1.18-.2,1.56-.6.38-.4.65-.95.8-1.65h1.54c-.18,1.25-.62,2.16-1.32,2.74-.7.58-1.6.87-2.7.87-1.23,0-2.21-.45-2.94-1.35s-1.1-2.02-1.1-3.37c0-1.65.4-2.94,1.2-3.86s1.83-1.38,3.07-1.38c1.06,0,1.92.26,2.59.77Z"/><path d="m568.62,530.05c.04.73.21,1.33.52,1.78.58.86,1.6,1.28,3.07,1.28.66,0,1.25-.09,1.79-.28,1.04-.36,1.56-1.01,1.56-1.95,0-.7-.22-1.2-.66-1.5-.45-.29-1.14-.55-2.09-.76l-1.75-.4c-1.14-.26-1.95-.54-2.43-.85-.82-.54-1.23-1.34-1.23-2.42,0-1.16.4-2.11,1.2-2.86s1.94-1.12,3.41-1.12c1.35,0,2.5.33,3.45.98.95.65,1.42,1.7,1.42,3.13h-1.64c-.09-.69-.28-1.22-.56-1.59-.53-.67-1.44-1.01-2.72-1.01-1.03,0-1.77.22-2.22.65s-.68.94-.68,1.51c0,.63.26,1.1.79,1.39.35.19,1.13.42,2.35.7l1.81.41c.87.2,1.55.47,2.02.82.82.6,1.23,1.48,1.23,2.63,0,1.43-.52,2.45-1.56,3.07s-2.25.92-3.62.92c-1.61,0-2.86-.41-3.77-1.23-.91-.81-1.35-1.92-1.34-3.31h1.64Z"/><path d="m584.32,528.52c.36-.05.61-.2.73-.46.07-.14.11-.34.11-.61,0-.54-.19-.93-.58-1.17-.38-.24-.93-.36-1.65-.36-.83,0-1.41.22-1.76.67-.19.25-.32.61-.38,1.1h-1.48c.03-1.16.41-1.97,1.13-2.42.72-.45,1.56-.68,2.52-.68,1.11,0,2.01.21,2.7.63.69.42,1.03,1.08,1.03,1.97v5.42c0,.16.03.3.1.4.07.1.21.15.43.15.07,0,.15,0,.24-.01.09,0,.18-.02.28-.04v1.17c-.25.07-.43.11-.56.13s-.3.03-.53.03c-.54,0-.94-.19-1.19-.58-.13-.21-.22-.5-.27-.87-.32.42-.79.79-1.39,1.1s-1.27.47-2,.47c-.87,0-1.59-.27-2.14-.79-.55-.53-.83-1.19-.83-1.99,0-.87.27-1.55.82-2.03s1.26-.78,2.14-.89l2.52-.32Zm-3.33,4.28c.33.26.73.4,1.19.4.56,0,1.1-.13,1.62-.39.88-.43,1.32-1.13,1.32-2.1v-1.27c-.19.12-.44.23-.75.31s-.6.14-.9.18l-.96.12c-.57.08-1,.2-1.29.36-.49.28-.73.71-.73,1.32,0,.46.17.82.5,1.08Z"/><path d="m594.33,528.52c.36-.05.61-.2.73-.46.07-.14.11-.34.11-.61,0-.54-.19-.93-.58-1.17-.38-.24-.93-.36-1.65-.36-.83,0-1.41.22-1.76.67-.19.25-.32.61-.38,1.1h-1.48c.03-1.16.41-1.97,1.13-2.42.72-.45,1.56-.68,2.52-.68,1.11,0,2.01.21,2.7.63.69.42,1.03,1.08,1.03,1.97v5.42c0,.16.03.3.1.4.07.1.21.15.43.15.07,0,.15,0,.24-.01.09,0,.18-.02.28-.04v1.17c-.25.07-.43.11-.56.13s-.3.03-.53.03c-.54,0-.94-.19-1.19-.58-.13-.21-.22-.5-.27-.87-.32.42-.79.79-1.39,1.1s-1.27.47-2,.47c-.87,0-1.59-.27-2.14-.79-.55-.53-.83-1.19-.83-1.99,0-.87.27-1.55.82-2.03s1.26-.78,2.14-.89l2.52-.32Zm-3.33,4.28c.33.26.73.4,1.19.4.56,0,1.1-.13,1.62-.39.88-.43,1.32-1.13,1.32-2.1v-1.27c-.19.12-.44.23-.75.31s-.6.14-.9.18l-.96.12c-.57.08-1,.2-1.29.36-.49.28-.73.71-.73,1.32,0,.46.17.82.5,1.08Z"/><path d="m599.3,524.81h1.56v1.34c.38-.46.71-.8,1.02-1.01.52-.36,1.11-.54,1.78-.54.75,0,1.35.18,1.81.55.26.21.49.52.7.93.35-.5.76-.88,1.24-1.12.47-.24,1.01-.36,1.6-.36,1.27,0,2.13.46,2.58,1.37.25.49.37,1.15.37,1.99v6.27h-1.64v-6.54c0-.63-.16-1.06-.47-1.29s-.7-.35-1.15-.35c-.62,0-1.16.21-1.6.62-.45.42-.67,1.11-.67,2.08v5.48h-1.61v-6.14c0-.64-.08-1.1-.23-1.4-.24-.44-.69-.66-1.34-.66-.6,0-1.14.23-1.63.69-.49.46-.73,1.3-.73,2.51v4.99h-1.58v-9.41Z"/><path d="m614.29,521.31h1.61v1.79h-1.61v-1.79Zm0,3.54h1.61v9.37h-1.61v-9.37Z"/><path d="m713.3,521.18v1.54h-4.35v11.37h-1.78v-11.37h-4.35v-1.54h10.48Z"/><path d="m714.13,524.68v6.25c0,.48.08.87.23,1.18.28.56.81.84,1.57.84,1.1,0,1.85-.49,2.25-1.48.22-.53.33-1.25.33-2.17v-4.62h1.58v9.41h-1.49l.02-1.39c-.21.36-.46.66-.76.91-.6.49-1.34.74-2.2.74-1.34,0-2.26-.45-2.74-1.34-.26-.48-.4-1.12-.4-1.92v-6.4h1.62Z"/><path d="m722.43,521.13h1.54v4.68c.35-.45.76-.8,1.24-1.03.48-.24,1-.36,1.56-.36,1.17,0,2.12.4,2.85,1.21.73.81,1.09,1.99,1.09,3.56,0,1.49-.36,2.72-1.08,3.71s-1.72,1.48-3,1.48c-.71,0-1.32-.17-1.81-.52-.29-.21-.61-.53-.94-.98v1.2h-1.46v-12.96Zm6.03,10.84c.42-.68.64-1.58.64-2.69,0-.99-.21-1.81-.64-2.46s-1.05-.98-1.88-.98c-.72,0-1.35.27-1.89.8-.54.53-.81,1.41-.81,2.64,0,.88.11,1.6.33,2.15.42,1.04,1.19,1.56,2.33,1.56.86,0,1.5-.34,1.92-1.02Z"/><path d="m737.61,528.39c.36-.05.61-.2.73-.46.07-.14.11-.34.11-.61,0-.54-.19-.93-.58-1.17-.38-.24-.93-.36-1.65-.36-.83,0-1.41.22-1.76.67-.19.25-.32.61-.38,1.1h-1.48c.03-1.16.41-1.97,1.13-2.42.72-.45,1.56-.68,2.52-.68,1.11,0,2.01.21,2.7.63.69.42,1.03,1.08,1.03,1.97v5.42c0,.16.03.3.1.4.07.1.21.15.43.15.07,0,.15,0,.24-.01.09,0,.18-.02.28-.04v1.17c-.25.07-.43.11-.56.13s-.3.03-.53.03c-.54,0-.94-.19-1.19-.58-.13-.21-.22-.5-.27-.87-.32.42-.79.79-1.39,1.1s-1.27.47-2,.47c-.87,0-1.59-.27-2.14-.79-.55-.53-.83-1.19-.83-1.99,0-.87.27-1.55.82-2.03s1.26-.78,2.14-.89l2.52-.32Zm-3.33,4.28c.33.26.73.4,1.19.4.56,0,1.1-.13,1.62-.39.88-.43,1.32-1.13,1.32-2.1v-1.27c-.19.12-.44.23-.75.31s-.6.14-.9.18l-.96.12c-.57.08-1,.2-1.29.36-.49.28-.73.71-.73,1.32,0,.46.17.82.5,1.08Z"/><path d="m742.62,521.18h1.58v12.91h-1.58v-12.91Z"/><path d="m751.62,528.39c.36-.05.61-.2.73-.46.07-.14.11-.34.11-.61,0-.54-.19-.93-.58-1.17-.38-.24-.93-.36-1.65-.36-.83,0-1.41.22-1.76.67-.19.25-.32.61-.38,1.1h-1.48c.03-1.16.41-1.97,1.13-2.42.72-.45,1.56-.68,2.52-.68,1.11,0,2.01.21,2.7.63.69.42,1.03,1.08,1.03,1.97v5.42c0,.16.03.3.1.4.07.1.21.15.43.15.07,0,.15,0,.24-.01.09,0,.18-.02.28-.04v1.17c-.25.07-.43.11-.56.13s-.3.03-.53.03c-.54,0-.94-.19-1.19-.58-.13-.21-.22-.5-.27-.87-.32.42-.79.79-1.39,1.1s-1.27.47-2,.47c-.87,0-1.59-.27-2.14-.79-.55-.53-.83-1.19-.83-1.99,0-.87.27-1.55.82-2.03s1.26-.78,2.14-.89l2.52-.32Zm-3.33,4.28c.33.26.73.4,1.19.4.56,0,1.1-.13,1.62-.39.88-.43,1.32-1.13,1.32-2.1v-1.27c-.19.12-.44.23-.75.31s-.6.14-.9.18l-.96.12c-.57.08-1,.2-1.29.36-.49.28-.73.71-.73,1.32,0,.46.17.82.5,1.08Z"/><path d="m756.63,524.68h1.5v1.63c.12-.32.42-.7.91-1.16.48-.45,1.03-.68,1.66-.68.03,0,.08,0,.15,0s.19.02.36.04v1.67c-.09-.02-.18-.03-.26-.04-.08,0-.17,0-.26,0-.8,0-1.41.26-1.84.77-.43.51-.64,1.1-.64,1.77v5.41h-1.58v-9.41Z"/><path d="m843.18,519.45h5.81c1.15,0,2.07.32,2.78.97s1.05,1.56,1.05,2.73c0,1.01-.31,1.88-.94,2.63-.63.75-1.59,1.12-2.89,1.12h-4.06v5.46h-1.75v-12.91Zm6.82,1.78c-.39-.18-.92-.27-1.59-.27h-3.48v4.47h3.48c.79,0,1.42-.17,1.91-.5.49-.33.73-.92.73-1.77,0-.95-.35-1.59-1.05-1.93Z"/><path d="m859.15,526.66c.36-.05.61-.2.73-.46.07-.14.11-.34.11-.61,0-.54-.19-.93-.58-1.17-.38-.24-.93-.36-1.65-.36-.83,0-1.41.22-1.76.67-.19.25-.32.61-.38,1.1h-1.48c.03-1.16.41-1.97,1.13-2.42.72-.45,1.56-.68,2.52-.68,1.11,0,2.01.21,2.7.63.69.42,1.03,1.08,1.03,1.97v5.42c0,.16.03.3.1.4.07.1.21.15.43.15.07,0,.15,0,.24-.01.09,0,.18-.02.28-.04v1.17c-.25.07-.43.11-.56.13s-.3.03-.53.03c-.54,0-.94-.19-1.19-.58-.13-.21-.22-.5-.27-.87-.32.42-.79.79-1.39,1.1s-1.27.47-2,.47c-.87,0-1.59-.27-2.14-.79-.55-.53-.83-1.19-.83-1.99,0-.87.27-1.55.82-2.03s1.26-.78,2.14-.89l2.52-.32Zm-3.33,4.28c.33.26.73.4,1.19.4.56,0,1.1-.13,1.62-.39.88-.43,1.32-1.13,1.32-2.1v-1.27c-.19.12-.44.23-.75.31s-.6.14-.9.18l-.96.12c-.57.08-1,.2-1.29.36-.49.28-.73.71-.73,1.32,0,.46.17.82.5,1.08Z"/><path d="m863.99,522.99h1.54v1.25c.32-.43.66-.76,1.04-.99.53-.35,1.16-.53,1.88-.53,1.07,0,1.97.41,2.72,1.23.74.82,1.12,1.99,1.12,3.5,0,2.05-.54,3.52-1.61,4.39-.68.56-1.47.83-2.37.83-.71,0-1.3-.16-1.78-.47-.28-.18-.59-.48-.94-.91v4.81h-1.58v-13.12Zm5.94,7.38c.49-.62.73-1.54.73-2.77,0-.75-.11-1.39-.33-1.93-.41-1.04-1.16-1.56-2.25-1.56s-1.85.55-2.25,1.64c-.22.59-.33,1.33-.33,2.23,0,.73.11,1.34.33,1.85.41.97,1.16,1.46,2.25,1.46.74,0,1.35-.31,1.84-.93Z"/><path d="m875.71,522.95v6.25c0,.48.08.87.23,1.18.28.56.81.84,1.57.84,1.1,0,1.85-.49,2.25-1.48.22-.53.33-1.25.33-2.17v-4.62h1.58v9.41h-1.49l.02-1.39c-.21.36-.46.66-.76.91-.6.49-1.34.74-2.2.74-1.34,0-2.26-.45-2.74-1.34-.26-.48-.4-1.12-.4-1.92v-6.4h1.62Z"/><path d="m889.18,526.66c.36-.05.61-.2.73-.46.07-.14.11-.34.11-.61,0-.54-.19-.93-.58-1.17-.38-.24-.93-.36-1.65-.36-.83,0-1.41.22-1.76.67-.19.25-.32.61-.38,1.1h-1.48c.03-1.16.41-1.97,1.13-2.42.72-.45,1.56-.68,2.52-.68,1.11,0,2.01.21,2.7.63.69.42,1.03,1.08,1.03,1.97v5.42c0,.16.03.3.1.4.07.1.21.15.43.15.07,0,.15,0,.24-.01.09,0,.18-.02.28-.04v1.17c-.25.07-.43.11-.56.13s-.3.03-.53.03c-.54,0-.94-.19-1.19-.58-.13-.21-.22-.5-.27-.87-.32.42-.79.79-1.39,1.1s-1.27.47-2,.47c-.87,0-1.59-.27-2.14-.79-.55-.53-.83-1.19-.83-1.99,0-.87.27-1.55.82-2.03s1.26-.78,2.14-.89l2.52-.32Zm-3.33,4.28c.33.26.73.4,1.19.4.56,0,1.1-.13,1.62-.39.88-.43,1.32-1.13,1.32-2.1v-1.27c-.19.12-.44.23-.75.31s-.6.14-.9.18l-.96.12c-.57.08-1,.2-1.29.36-.49.28-.73.71-.73,1.32,0,.46.17.82.5,1.08Z"/><path d="m894.15,522.95h1.5v1.34c.45-.55.92-.95,1.42-1.19s1.05-.36,1.66-.36c1.34,0,2.24.47,2.71,1.4.26.51.39,1.24.39,2.19v6.04h-1.61v-5.93c0-.57-.08-1.04-.25-1.39-.28-.59-.79-.88-1.53-.88-.38,0-.68.04-.92.11-.43.13-.81.39-1.14.77-.26.31-.44.63-.51.96-.08.33-.12.8-.12,1.42v4.93h-1.58v-9.41Z"/><path d="m978.36,521.18h1.71v6.29l6.29-6.29h2.42l-5.37,5.2,5.52,7.71h-2.28l-4.52-6.48-2.07,1.98v4.5h-1.71v-12.91Z"/><path d="m995.2,528.39c.36-.05.61-.2.73-.46.07-.14.11-.34.11-.61,0-.54-.19-.93-.58-1.17-.38-.24-.93-.36-1.65-.36-.83,0-1.41.22-1.76.67-.19.25-.32.61-.38,1.1h-1.48c.03-1.16.41-1.97,1.13-2.42.72-.45,1.56-.68,2.52-.68,1.11,0,2.01.21,2.7.63.69.42,1.03,1.08,1.03,1.97v5.42c0,.16.03.3.1.4.07.1.21.15.43.15.07,0,.15,0,.24-.01.09,0,.18-.02.28-.04v1.17c-.25.07-.43.11-.56.13s-.3.03-.53.03c-.54,0-.94-.19-1.19-.58-.13-.21-.22-.5-.27-.87-.32.42-.79.79-1.39,1.1s-1.27.47-2,.47c-.87,0-1.59-.27-2.14-.79-.55-.53-.83-1.19-.83-1.99,0-.87.27-1.55.82-2.03s1.26-.78,2.14-.89l2.52-.32Zm-3.33,4.28c.33.26.73.4,1.19.4.56,0,1.1-.13,1.62-.39.88-.43,1.32-1.13,1.32-2.1v-1.27c-.19.12-.44.23-.75.31s-.6.14-.9.18l-.96.12c-.57.08-1,.2-1.29.36-.49.28-.73.71-.73,1.32,0,.46.17.82.5,1.08Z"/><path d="m1000.21,524.68h1.5v1.63c.12-.32.42-.7.91-1.16.48-.45,1.03-.68,1.66-.68.03,0,.08,0,.15,0s.19.02.36.04v1.67c-.09-.02-.18-.03-.26-.04-.08,0-.17,0-.26,0-.8,0-1.41.26-1.84.77-.43.51-.64,1.1-.64,1.77v5.41h-1.58v-9.41Z"/><path d="m1006.41,521.18h1.61v1.79h-1.61v-1.79Zm0,3.54h1.61v9.37h-1.61v-9.37Z"/><path d="m1010.73,522.05h1.6v2.63h1.5v1.29h-1.5v6.14c0,.33.11.55.33.66.12.06.33.1.62.1.08,0,.16,0,.25,0,.09,0,.19,0,.31-.02v1.25c-.18.05-.37.09-.57.11s-.41.04-.64.04c-.74,0-1.24-.19-1.5-.57-.26-.38-.4-.87-.4-1.47v-6.23h-1.27v-1.29h1.27v-2.63Z"/><path d="m1015.41,521.18h1.61v1.79h-1.61v-1.79Zm0,3.54h1.61v9.37h-1.61v-9.37Z"/><path d="m1024.46,528.39c.36-.05.61-.2.73-.46.07-.14.11-.34.11-.61,0-.54-.19-.93-.58-1.17-.38-.24-.93-.36-1.65-.36-.83,0-1.41.22-1.76.67-.19.25-.32.61-.38,1.1h-1.48c.03-1.16.41-1.97,1.13-2.42.72-.45,1.56-.68,2.52-.68,1.11,0,2.01.21,2.7.63.69.42,1.03,1.08,1.03,1.97v5.42c0,.16.03.3.1.4.07.1.21.15.43.15.07,0,.15,0,.24-.01.09,0,.18-.02.28-.04v1.17c-.25.07-.43.11-.56.13s-.3.03-.53.03c-.54,0-.94-.19-1.19-.58-.13-.21-.22-.5-.27-.87-.32.42-.79.79-1.39,1.1s-1.27.47-2,.47c-.87,0-1.59-.27-2.14-.79-.55-.53-.83-1.19-.83-1.99,0-.87.27-1.55.82-2.03s1.26-.78,2.14-.89l2.52-.32Zm-3.33,4.28c.33.26.73.4,1.19.4.56,0,1.1-.13,1.62-.39.88-.43,1.32-1.13,1.32-2.1v-1.27c-.19.12-.44.23-.75.31s-.6.14-.9.18l-.96.12c-.57.08-1,.2-1.29.36-.49.28-.73.71-.73,1.32,0,.46.17.82.5,1.08Z"/><path d="m1029.42,524.68h1.5v1.34c.45-.55.92-.95,1.42-1.19s1.05-.36,1.66-.36c1.34,0,2.24.47,2.71,1.4.26.51.39,1.24.39,2.19v6.04h-1.61v-5.93c0-.57-.08-1.04-.25-1.39-.28-.59-.79-.88-1.53-.88-.38,0-.68.04-.92.11-.43.13-.81.39-1.14.77-.26.31-.44.63-.51.96-.08.33-.12.8-.12,1.42v4.93h-1.58v-9.41Z"/><path d="m1044.48,528.39c.36-.05.61-.2.73-.46.07-.14.11-.34.11-.61,0-.54-.19-.93-.58-1.17-.38-.24-.93-.36-1.65-.36-.83,0-1.41.22-1.76.67-.19.25-.32.61-.38,1.1h-1.48c.03-1.16.41-1.97,1.13-2.42.72-.45,1.56-.68,2.52-.68,1.11,0,2.01.21,2.7.63.69.42,1.03,1.08,1.03,1.97v5.42c0,.16.03.3.1.4.07.1.21.15.43.15.07,0,.15,0,.24-.01.09,0,.18-.02.28-.04v1.17c-.25.07-.43.11-.56.13s-.3.03-.53.03c-.54,0-.94-.19-1.19-.58-.13-.21-.22-.5-.27-.87-.32.42-.79.79-1.39,1.1s-1.27.47-2,.47c-.87,0-1.59-.27-2.14-.79-.55-.53-.83-1.19-.83-1.99,0-.87.27-1.55.82-2.03s1.26-.78,2.14-.89l2.52-.32Zm-3.33,4.28c.33.26.73.4,1.19.4.56,0,1.1-.13,1.62-.39.88-.43,1.32-1.13,1.32-2.1v-1.27c-.19.12-.44.23-.75.31s-.6.14-.9.18l-.96.12c-.57.08-1,.2-1.29.36-.49.28-.73.71-.73,1.32,0,.46.17.82.5,1.08Z"/><g class="cls-20"><path class="cls-15" d="m148.47,310.11c0-4.46,3.64-8.1,8.1-8.1s8.1,3.64,8.1,8.1-3.65,8.1-8.1,8.1-8.1-3.65-8.1-8.1"/><path class="cls-1" d="m148.47,310.11c0-4.46,3.64-8.1,8.1-8.1s8.1,3.64,8.1,8.1-3.65,8.1-8.1,8.1-8.1-3.65-8.1-8.1"/><path class="cls-15" d="m288.81,158c0-4.46,3.64-8.1,8.1-8.1s8.1,3.64,8.1,8.1-3.65,8.1-8.1,8.1-8.1-3.65-8.1-8.1"/><path class="cls-1" d="m288.81,158c0-4.46,3.64-8.1,8.1-8.1s8.1,3.64,8.1,8.1-3.65,8.1-8.1,8.1-8.1-3.65-8.1-8.1"/><path class="cls-15" d="m429.15,310.03c0-4.46,3.64-8.1,8.1-8.1s8.1,3.64,8.1,8.1-3.65,8.1-8.1,8.1-8.1-3.65-8.1-8.1"/><path class="cls-1" d="m429.15,310.03c0-4.46,3.64-8.1,8.1-8.1s8.1,3.64,8.1,8.1-3.65,8.1-8.1,8.1-8.1-3.65-8.1-8.1"/><path class="cls-15" d="m569.49,231.59c0-4.46,3.64-8.1,8.1-8.1s8.1,3.64,8.1,8.1-3.65,8.1-8.1,8.1-8.1-3.65-8.1-8.1"/><path class="cls-1" d="m569.49,231.59c0-4.46,3.64-8.1,8.1-8.1s8.1,3.64,8.1,8.1-3.65,8.1-8.1,8.1-8.1-3.65-8.1-8.1"/><path class="cls-15" d="m709.83,256.59c0-4.45,3.64-8.1,8.1-8.1s8.1,3.65,8.1,8.1-3.65,8.1-8.1,8.1-8.1-3.64-8.1-8.1"/><path class="cls-1" d="m709.83,256.59c0-4.45,3.64-8.1,8.1-8.1s8.1,3.65,8.1,8.1-3.65,8.1-8.1,8.1-8.1-3.64-8.1-8.1"/><path class="cls-15" d="m850.16,322.52c0-4.45,3.65-8.1,8.1-8.1s8.1,3.65,8.1,8.1-3.64,8.1-8.1,8.1-8.1-3.64-8.1-8.1"/><path class="cls-1" d="m850.16,322.52c0-4.45,3.65-8.1,8.1-8.1s8.1,3.65,8.1,8.1-3.64,8.1-8.1,8.1-8.1-3.64-8.1-8.1"/><path class="cls-15" d="m990.5,377.83c0-4.45,3.65-8.1,8.1-8.1s8.1,3.65,8.1,8.1-3.64,8.1-8.1,8.1-8.1-3.64-8.1-8.1"/><path class="cls-1" d="m990.5,377.83c0-4.45,3.65-8.1,8.1-8.1s8.1,3.65,8.1,8.1-3.64,8.1-8.1,8.1-8.1-3.64-8.1-8.1"/><path class="cls-12" d="m154.08,234.81c0-4.45,3.65-8.1,8.1-8.1s8.1,3.65,8.1,8.1-3.64,8.1-8.1,8.1-8.1-3.64-8.1-8.1"/><path class="cls-2" d="m154.08,234.81c0-4.45,3.65-8.1,8.1-8.1s8.1,3.65,8.1,8.1-3.64,8.1-8.1,8.1-8.1-3.64-8.1-8.1"/><path class="cls-12" d="m294.42,215.11c0-4.45,3.65-8.1,8.1-8.1s8.1,3.65,8.1,8.1-3.64,8.1-8.1,8.1-8.1-3.64-8.1-8.1"/><path class="cls-2" d="m294.42,215.11c0-4.45,3.65-8.1,8.1-8.1s8.1,3.65,8.1,8.1-3.64,8.1-8.1,8.1-8.1-3.64-8.1-8.1"/><path class="cls-12" d="m434.76,246.26c0-4.45,3.65-8.1,8.1-8.1s8.1,3.65,8.1,8.1-3.64,8.1-8.1,8.1-8.1-3.64-8.1-8.1"/><path class="cls-2" d="m434.76,246.26c0-4.45,3.65-8.1,8.1-8.1s8.1,3.65,8.1,8.1-3.64,8.1-8.1,8.1-8.1-3.64-8.1-8.1"/><path class="cls-12" d="m575.1,288.66c0-4.46,3.65-8.1,8.1-8.1s8.1,3.64,8.1,8.1-3.64,8.1-8.1,8.1-8.1-3.65-8.1-8.1"/><path class="cls-2" d="m575.1,288.66c0-4.46,3.65-8.1,8.1-8.1s8.1,3.64,8.1,8.1-3.64,8.1-8.1,8.1-8.1-3.65-8.1-8.1"/><path class="cls-12" d="m715.44,291.78c0-4.46,3.64-8.1,8.1-8.1s8.1,3.64,8.1,8.1-3.65,8.1-8.1,8.1-8.1-3.65-8.1-8.1"/><path class="cls-2" d="m715.44,291.78c0-4.46,3.64-8.1,8.1-8.1s8.1,3.64,8.1,8.1-3.65,8.1-8.1,8.1-8.1-3.65-8.1-8.1"/><path class="cls-12" d="m855.78,341.38c0-4.46,3.64-8.1,8.1-8.1s8.1,3.64,8.1,8.1-3.65,8.1-8.1,8.1-8.1-3.65-8.1-8.1"/><path class="cls-2" d="m855.78,341.38c0-4.46,3.64-8.1,8.1-8.1s8.1,3.64,8.1,8.1-3.65,8.1-8.1,8.1-8.1-3.65-8.1-8.1"/><path class="cls-12" d="m996.12,439.63c0-4.46,3.64-8.1,8.1-8.1s8.1,3.64,8.1,8.1-3.65,8.1-8.1,8.1-8.1-3.65-8.1-8.1"/><path class="cls-2" d="m996.12,439.63c0-4.46,3.64-8.1,8.1-8.1s8.1,3.64,8.1,8.1-3.65,8.1-8.1,8.1-8.1-3.65-8.1-8.1"/><path class="cls-14" d="m131.63,134.35c0-4.46,3.64-8.1,8.1-8.1s8.1,3.64,8.1,8.1-3.65,8.1-8.1,8.1-8.1-3.65-8.1-8.1"/><path class="cls-6" d="m131.63,134.35c0-4.46,3.64-8.1,8.1-8.1s8.1,3.64,8.1,8.1-3.65,8.1-8.1,8.1-8.1-3.65-8.1-8.1"/><path class="cls-14" d="m271.97,213.47c0-4.46,3.64-8.1,8.1-8.1s8.1,3.64,8.1,8.1-3.65,8.1-8.1,8.1-8.1-3.65-8.1-8.1"/><path class="cls-6" d="m271.97,213.47c0-4.46,3.64-8.1,8.1-8.1s8.1,3.64,8.1,8.1-3.65,8.1-8.1,8.1-8.1-3.65-8.1-8.1"/><path class="cls-14" d="m412.31,233.38c0-4.45,3.64-8.1,8.1-8.1s8.1,3.65,8.1,8.1-3.65,8.1-8.1,8.1-8.1-3.64-8.1-8.1"/><path class="cls-6" d="m412.31,233.38c0-4.45,3.64-8.1,8.1-8.1s8.1,3.65,8.1,8.1-3.65,8.1-8.1,8.1-8.1-3.64-8.1-8.1"/><path class="cls-14" d="m552.65,199.48c0-4.45,3.64-8.1,8.1-8.1s8.1,3.65,8.1,8.1-3.65,8.1-8.1,8.1-8.1-3.64-8.1-8.1"/><path class="cls-6" d="m552.65,199.48c0-4.45,3.64-8.1,8.1-8.1s8.1,3.65,8.1,8.1-3.65,8.1-8.1,8.1-8.1-3.64-8.1-8.1"/><path class="cls-14" d="m692.98,265.85c0-4.45,3.65-8.1,8.1-8.1s8.1,3.65,8.1,8.1-3.64,8.1-8.1,8.1-8.1-3.64-8.1-8.1"/><path class="cls-6" d="m692.98,265.85c0-4.45,3.65-8.1,8.1-8.1s8.1,3.65,8.1,8.1-3.64,8.1-8.1,8.1-8.1-3.64-8.1-8.1"/><path class="cls-14" d="m833.32,340.41c0-4.45,3.65-8.1,8.1-8.1s8.1,3.65,8.1,8.1-3.64,8.1-8.1,8.1-8.1-3.64-8.1-8.1"/><path class="cls-6" d="m833.32,340.41c0-4.45,3.65-8.1,8.1-8.1s8.1,3.65,8.1,8.1-3.64,8.1-8.1,8.1-8.1-3.64-8.1-8.1"/><path class="cls-14" d="m973.66,294.05c0-4.45,3.65-8.1,8.1-8.1s8.1,3.65,8.1,8.1-3.64,8.1-8.1,8.1-8.1-3.64-8.1-8.1"/><path class="cls-6" d="m973.66,294.05c0-4.45,3.65-8.1,8.1-8.1s8.1,3.65,8.1,8.1-3.64,8.1-8.1,8.1-8.1-3.64-8.1-8.1"/><path class="cls-16" d="m137.24,170.56c0-4.45,3.65-8.1,8.1-8.1s8.1,3.65,8.1,8.1-3.64,8.1-8.1,8.1-8.1-3.64-8.1-8.1"/><path class="cls-3" d="m137.24,170.56c0-4.45,3.65-8.1,8.1-8.1s8.1,3.65,8.1,8.1-3.64,8.1-8.1,8.1-8.1-3.64-8.1-8.1"/><path class="cls-16" d="m277.58,145.07c0-4.45,3.65-8.1,8.1-8.1s8.1,3.65,8.1,8.1-3.64,8.1-8.1,8.1-8.1-3.64-8.1-8.1"/><path class="cls-3" d="m277.58,145.07c0-4.45,3.65-8.1,8.1-8.1s8.1,3.65,8.1,8.1-3.64,8.1-8.1,8.1-8.1-3.64-8.1-8.1"/><path class="cls-16" d="m417.92,76.04c0-4.46,3.65-8.1,8.1-8.1s8.1,3.64,8.1,8.1-3.64,8.1-8.1,8.1-8.1-3.65-8.1-8.1"/><path class="cls-3" d="m417.92,76.04c0-4.46,3.65-8.1,8.1-8.1s8.1,3.64,8.1,8.1-3.64,8.1-8.1,8.1-8.1-3.65-8.1-8.1"/><path class="cls-16" d="m558.26,234.25c0-4.46,3.64-8.1,8.1-8.1s8.1,3.64,8.1,8.1-3.65,8.1-8.1,8.1-8.1-3.65-8.1-8.1"/><path class="cls-3" d="m558.26,234.25c0-4.46,3.64-8.1,8.1-8.1s8.1,3.64,8.1,8.1-3.65,8.1-8.1,8.1-8.1-3.65-8.1-8.1"/><path class="cls-16" d="m698.6,174.01c0-4.45,3.64-8.1,8.1-8.1s8.1,3.65,8.1,8.1-3.65,8.1-8.1,8.1-8.1-3.64-8.1-8.1"/><path class="cls-3" d="m698.6,174.01c0-4.45,3.64-8.1,8.1-8.1s8.1,3.65,8.1,8.1-3.65,8.1-8.1,8.1-8.1-3.64-8.1-8.1"/><path class="cls-16" d="m838.94,339.4c0-4.45,3.64-8.1,8.1-8.1s8.1,3.65,8.1,8.1-3.65,8.1-8.1,8.1-8.1-3.64-8.1-8.1"/><path class="cls-3" d="m838.94,339.4c0-4.45,3.64-8.1,8.1-8.1s8.1,3.65,8.1,8.1-3.65,8.1-8.1,8.1-8.1-3.64-8.1-8.1"/><path class="cls-16" d="m979.28,375.05c0-4.45,3.64-8.1,8.1-8.1s8.1,3.65,8.1,8.1-3.65,8.1-8.1,8.1-8.1-3.64-8.1-8.1"/><path class="cls-3" d="m979.28,375.05c0-4.45,3.64-8.1,8.1-8.1s8.1,3.65,8.1,8.1-3.65,8.1-8.1,8.1-8.1-3.64-8.1-8.1"/><path class="cls-13" d="m142.86,130.57c0-4.45,3.64-8.1,8.1-8.1s8.1,3.65,8.1,8.1-3.65,8.1-8.1,8.1-8.1-3.64-8.1-8.1"/><path class="cls-8" d="m142.86,130.57c0-4.45,3.64-8.1,8.1-8.1s8.1,3.65,8.1,8.1-3.65,8.1-8.1,8.1-8.1-3.64-8.1-8.1"/><path class="cls-13" d="m283.19,208.58c0-4.45,3.65-8.1,8.1-8.1s8.1,3.65,8.1,8.1-3.64,8.1-8.1,8.1-8.1-3.64-8.1-8.1"/><path class="cls-8" d="m283.19,208.58c0-4.45,3.65-8.1,8.1-8.1s8.1,3.65,8.1,8.1-3.64,8.1-8.1,8.1-8.1-3.64-8.1-8.1"/><path class="cls-13" d="m423.53,271.43c0-4.46,3.65-8.1,8.1-8.1s8.1,3.64,8.1,8.1-3.64,8.1-8.1,8.1-8.1-3.65-8.1-8.1"/><path class="cls-8" d="m423.53,271.43c0-4.46,3.65-8.1,8.1-8.1s8.1,3.64,8.1,8.1-3.64,8.1-8.1,8.1-8.1-3.65-8.1-8.1"/><path class="cls-13" d="m563.87,292.39c0-4.45,3.65-8.1,8.1-8.1s8.1,3.65,8.1,8.1-3.64,8.1-8.1,8.1-8.1-3.64-8.1-8.1"/><path class="cls-8" d="m563.87,292.39c0-4.45,3.65-8.1,8.1-8.1s8.1,3.65,8.1,8.1-3.64,8.1-8.1,8.1-8.1-3.64-8.1-8.1"/><path class="cls-13" d="m704.21,200.11c0-4.45,3.65-8.1,8.1-8.1s8.1,3.65,8.1,8.1-3.64,8.1-8.1,8.1-8.1-3.64-8.1-8.1"/><path class="cls-8" d="m704.21,200.11c0-4.45,3.65-8.1,8.1-8.1s8.1,3.65,8.1,8.1-3.64,8.1-8.1,8.1-8.1-3.64-8.1-8.1"/><path class="cls-13" d="m844.55,318.48c0-4.46,3.65-8.1,8.1-8.1s8.1,3.64,8.1,8.1-3.64,8.1-8.1,8.1-8.1-3.65-8.1-8.1"/><path class="cls-8" d="m844.55,318.48c0-4.46,3.65-8.1,8.1-8.1s8.1,3.64,8.1,8.1-3.64,8.1-8.1,8.1-8.1-3.65-8.1-8.1"/><path class="cls-13" d="m984.89,369.58c0-4.46,3.64-8.1,8.1-8.1s8.1,3.64,8.1,8.1-3.65,8.1-8.1,8.1-8.1-3.65-8.1-8.1"/><path class="cls-8" d="m984.89,369.58c0-4.46,3.64-8.1,8.1-8.1s8.1,3.64,8.1,8.1-3.65,8.1-8.1,8.1-8.1-3.65-8.1-8.1"/><g class="cls-21"><path d="m150.73,308.39v-1.14c.53-.02.89-.06,1.1-.11.33-.07.61-.22.82-.45.14-.15.25-.36.33-.61.04-.15.06-.27.06-.34h1.39v8.5h-1.71v-5.86h-2Z"/><path d="m162.15,306.84c.44.76.65,1.84.65,3.25s-.22,2.48-.65,3.24-1.19,1.14-2.28,1.14-1.84-.38-2.28-1.14-.65-1.84-.65-3.24.22-2.48.65-3.25,1.19-1.14,2.28-1.14,1.84.38,2.28,1.14Zm-3.26,5.49c.16.52.49.78.98.78s.82-.26.98-.78.23-1.26.23-2.24-.08-1.78-.23-2.27-.48-.74-.98-.74-.82.25-.98.74-.24,1.25-.24,2.27.08,1.72.24,2.24Z"/></g><g class="cls-21"><path d="m291.07,156.28v-1.14c.53-.02.89-.06,1.1-.11.33-.07.61-.22.82-.45.14-.15.25-.36.33-.61.04-.15.06-.27.06-.34h1.39v8.5h-1.71v-5.86h-2Z"/><path d="m302.5,154.73c.44.76.65,1.84.65,3.25s-.22,2.48-.65,3.24-1.19,1.14-2.28,1.14-1.84-.38-2.28-1.14-.65-1.84-.65-3.24.22-2.48.65-3.25,1.19-1.14,2.28-1.14,1.84.38,2.28,1.14Zm-3.26,5.49c.16.52.49.78.98.78s.82-.26.98-.78.23-1.26.23-2.24-.08-1.78-.23-2.27-.48-.74-.98-.74-.82.25-.98.74-.24,1.25-.24,2.27.08,1.72.24,2.24Z"/></g><g class="cls-21"><path d="m431.41,308.31v-1.14c.53-.02.89-.06,1.1-.11.33-.07.61-.22.82-.45.14-.15.25-.36.33-.61.04-.15.06-.27.06-.34h1.39v8.5h-1.71v-5.86h-2Z"/><path d="m442.83,306.76c.44.76.65,1.84.65,3.25s-.22,2.48-.65,3.24-1.19,1.14-2.28,1.14-1.84-.38-2.28-1.14-.65-1.84-.65-3.24.22-2.48.65-3.25,1.19-1.14,2.28-1.14,1.84.38,2.28,1.14Zm-3.26,5.49c.16.52.49.78.98.78s.82-.26.98-.78.23-1.26.23-2.24-.08-1.78-.23-2.27-.48-.74-.98-.74-.82.25-.98.74-.24,1.25-.24,2.27.08,1.72.24,2.24Z"/></g><g class="cls-21"><path d="m571.74,229.87v-1.14c.53-.02.89-.06,1.1-.11.33-.07.61-.22.82-.45.14-.15.25-.36.33-.61.04-.15.06-.27.06-.34h1.39v8.5h-1.71v-5.86h-2Z"/><path d="m583.17,228.32c.44.76.65,1.84.65,3.25s-.22,2.48-.65,3.24-1.19,1.14-2.28,1.14-1.84-.38-2.28-1.14-.65-1.84-.65-3.24.22-2.48.65-3.25,1.19-1.14,2.28-1.14,1.84.38,2.28,1.14Zm-3.26,5.49c.16.52.49.78.98.78s.82-.26.98-.78.23-1.26.23-2.24-.08-1.78-.23-2.27-.48-.74-.98-.74-.82.25-.98.74-.24,1.25-.24,2.27.08,1.72.24,2.24Z"/></g><g class="cls-21"><path d="m712.08,254.88v-1.14c.53-.02.89-.06,1.1-.11.33-.07.61-.22.82-.45.14-.15.25-.36.33-.61.04-.15.06-.27.06-.34h1.39v8.5h-1.71v-5.86h-2Z"/><path d="m723.5,253.33c.44.76.65,1.84.65,3.25s-.22,2.48-.65,3.24-1.19,1.14-2.28,1.14-1.84-.38-2.28-1.14-.65-1.84-.65-3.24.22-2.48.65-3.25,1.19-1.14,2.28-1.14,1.84.38,2.28,1.14Zm-3.26,5.49c.16.52.49.78.98.78s.82-.26.98-.78.23-1.26.23-2.24-.08-1.78-.23-2.27-.48-.74-.98-.74-.82.25-.98.74-.24,1.25-.24,2.27.08,1.72.24,2.24Z"/></g><g class="cls-21"><path d="m852.42,320.81v-1.14c.53-.02.89-.06,1.1-.11.33-.07.61-.22.82-.45.14-.15.25-.36.33-.61.04-.15.06-.27.06-.34h1.39v8.5h-1.71v-5.86h-2Z"/><path d="m863.84,319.26c.44.76.65,1.84.65,3.25s-.22,2.48-.65,3.24-1.19,1.14-2.28,1.14-1.84-.38-2.28-1.14-.65-1.84-.65-3.24.22-2.48.65-3.25,1.19-1.14,2.28-1.14,1.84.38,2.28,1.14Zm-3.26,5.49c.16.52.49.78.98.78s.82-.26.98-.78.23-1.26.23-2.24-.08-1.78-.23-2.27-.48-.74-.98-.74-.82.25-.98.74-.24,1.25-.24,2.27.08,1.72.24,2.24Z"/></g><g class="cls-21"><path d="m992.76,376.12v-1.14c.53-.02.89-.06,1.1-.11.33-.07.61-.22.82-.45.14-.15.25-.36.33-.61.04-.15.06-.27.06-.34h1.39v8.5h-1.71v-5.86h-2Z"/><path d="m1004.18,374.57c.44.76.65,1.84.65,3.25s-.22,2.48-.65,3.24-1.19,1.14-2.28,1.14-1.84-.38-2.28-1.14-.65-1.84-.65-3.24.22-2.48.65-3.25,1.19-1.14,2.28-1.14,1.84.38,2.28,1.14Zm-3.26,5.49c.16.52.49.78.98.78s.82-.26.98-.78.23-1.26.23-2.24-.08-1.78-.23-2.27-.48-.74-.98-.74-.82.25-.98.74-.24,1.25-.24,2.27.08,1.72.24,2.24Z"/></g><g class="cls-21"><path d="m156.34,233.21v-1.14c.53-.02.89-.06,1.1-.11.33-.07.61-.22.82-.45.14-.15.25-.36.33-.61.04-.15.06-.27.06-.34h1.39v8.5h-1.71v-5.86h-2Z"/><path d="m163.02,233.21v-1.14c.53-.02.89-.06,1.1-.11.33-.07.61-.22.82-.45.14-.15.25-.36.33-.61.04-.15.06-.27.06-.34h1.39v8.5h-1.71v-5.86h-2Z"/></g><g class="cls-21"><path d="m296.68,213.51v-1.14c.53-.02.89-.06,1.1-.11.33-.07.61-.22.82-.45.14-.15.25-.36.33-.61.04-.15.06-.27.06-.34h1.39v8.5h-1.71v-5.86h-2Z"/><path d="m303.36,213.51v-1.14c.53-.02.89-.06,1.1-.11.33-.07.61-.22.82-.45.14-.15.25-.36.33-.61.04-.15.06-.27.06-.34h1.39v8.5h-1.71v-5.86h-2Z"/></g><g class="cls-21"><path d="m437.02,244.66v-1.14c.53-.02.89-.06,1.1-.11.33-.07.61-.22.82-.45.14-.15.25-.36.33-.61.04-.15.06-.27.06-.34h1.39v8.5h-1.71v-5.86h-2Z"/><path d="m443.7,244.66v-1.14c.53-.02.89-.06,1.1-.11.33-.07.61-.22.82-.45.14-.15.25-.36.33-.61.04-.15.06-.27.06-.34h1.39v8.5h-1.71v-5.86h-2Z"/></g><g class="cls-21"><path d="m577.36,287.06v-1.14c.53-.02.89-.06,1.1-.11.33-.07.61-.22.82-.45.14-.15.25-.36.33-.61.04-.15.06-.27.06-.34h1.39v8.5h-1.71v-5.86h-2Z"/><path d="m584.04,287.06v-1.14c.53-.02.89-.06,1.1-.11.33-.07.61-.22.82-.45.14-.15.25-.36.33-.61.04-.15.06-.27.06-.34h1.39v8.5h-1.71v-5.86h-2Z"/></g><g class="cls-21"><path d="m717.7,290.18v-1.14c.53-.02.89-.06,1.1-.11.33-.07.61-.22.82-.45.14-.15.25-.36.33-.61.04-.15.06-.27.06-.34h1.39v8.5h-1.71v-5.86h-2Z"/><path d="m724.38,290.18v-1.14c.53-.02.89-.06,1.1-.11.33-.07.61-.22.82-.45.14-.15.25-.36.33-.61.04-.15.06-.27.06-.34h1.39v8.5h-1.71v-5.86h-2Z"/></g><g class="cls-21"><path d="m858.04,339.78v-1.14c.53-.02.89-.06,1.1-.11.33-.07.61-.22.82-.45.14-.15.25-.36.33-.61.04-.15.06-.27.06-.34h1.39v8.5h-1.71v-5.86h-2Z"/><path d="m864.72,339.78v-1.14c.53-.02.89-.06,1.1-.11.33-.07.61-.22.82-.45.14-.15.25-.36.33-.61.04-.15.06-.27.06-.34h1.39v8.5h-1.71v-5.86h-2Z"/></g><g class="cls-21"><path d="m998.37,438.03v-1.14c.53-.02.89-.06,1.1-.11.33-.07.61-.22.82-.45.14-.15.25-.36.33-.61.04-.15.06-.27.06-.34h1.39v8.5h-1.71v-5.86h-2Z"/><path d="m1005.05,438.03v-1.14c.53-.02.89-.06,1.1-.11.33-.07.61-.22.82-.45.14-.15.25-.36.33-.61.04-.15.06-.27.06-.34h1.39v8.5h-1.71v-5.86h-2Z"/></g><g class="cls-21"><path d="m142.72,131.46c-.25.25-.6.68-1.04,1.32s-.82,1.28-1.12,1.95c-.24.53-.45,1.17-.65,1.93s-.29,1.39-.29,1.88h-1.73c.05-1.52.55-3.11,1.5-4.75.61-1.02,1.13-1.73,1.54-2.13h-4.23l.02-1.5h6v1.31Z"/></g><g class="cls-21"><path d="m283.06,210.57c-.25.25-.6.68-1.04,1.32s-.82,1.28-1.12,1.95c-.24.53-.45,1.17-.65,1.93s-.29,1.39-.29,1.88h-1.73c.05-1.52.55-3.11,1.5-4.75.61-1.02,1.13-1.73,1.54-2.13h-4.23l.02-1.5h6v1.31Z"/></g><g class="cls-21"><path d="m423.4,230.49c-.25.25-.6.68-1.04,1.32s-.82,1.28-1.12,1.95c-.24.53-.45,1.17-.65,1.93s-.29,1.39-.29,1.88h-1.73c.05-1.52.55-3.11,1.5-4.75.61-1.02,1.13-1.73,1.54-2.13h-4.23l.02-1.5h6v1.31Z"/></g><g class="cls-21"><path d="m563.74,196.59c-.25.25-.6.68-1.04,1.32s-.82,1.28-1.12,1.95c-.24.53-.45,1.17-.65,1.93-.19.76-.29,1.39-.29,1.88h-1.73c.05-1.52.55-3.11,1.5-4.75.61-1.02,1.13-1.73,1.54-2.13h-4.23l.02-1.5h6v1.31Z"/></g><g class="cls-21"><path d="m704.08,262.96c-.25.25-.6.68-1.04,1.32s-.82,1.28-1.12,1.95c-.24.53-.45,1.17-.65,1.93-.19.76-.29,1.39-.29,1.88h-1.73c.05-1.52.55-3.11,1.5-4.75.61-1.02,1.13-1.73,1.54-2.13h-4.23l.02-1.5h6v1.31Z"/></g><g class="cls-21"><path d="m844.42,337.52c-.25.25-.6.68-1.04,1.32s-.82,1.28-1.12,1.95c-.24.53-.45,1.17-.65,1.93-.19.76-.29,1.39-.29,1.88h-1.73c.05-1.52.55-3.11,1.5-4.75.61-1.02,1.13-1.73,1.54-2.13h-4.23l.02-1.5h6v1.31Z"/></g><g class="cls-21"><path d="m984.76,291.16c-.25.25-.6.68-1.04,1.32s-.82,1.28-1.12,1.95c-.24.53-.45,1.17-.65,1.93-.19.76-.29,1.39-.29,1.88h-1.73c.05-1.52.55-3.11,1.5-4.75.61-1.02,1.13-1.73,1.54-2.13h-4.23l.02-1.5h6v1.31Z"/></g><g class="cls-21"><path d="m142.65,171.06c.22-.39.53-.68.95-.87-.41-.27-.68-.57-.8-.89s-.19-.62-.19-.89c0-.62.23-1.14.7-1.58s1.12-.65,1.97-.65,1.51.22,1.97.65.7.96.7,1.58c0,.28-.06.58-.18.89s-.39.59-.8.83c.42.23.74.54.95.93s.32.82.32,1.29c0,.71-.27,1.32-.79,1.83s-1.27.75-2.22.75-1.67-.25-2.16-.75c-.49-.5-.73-1.11-.73-1.83,0-.48.11-.91.32-1.29Zm1.74,2.16c.22.23.52.35.9.35s.68-.12.9-.35.33-.55.33-.97-.11-.76-.33-.99-.52-.34-.89-.34-.67.11-.89.34-.33.55-.33.99.11.74.33.97Zm.11-3.87c.19.2.45.29.79.29s.6-.1.79-.29.28-.45.28-.76c0-.34-.09-.6-.28-.79s-.45-.28-.79-.28-.6.09-.79.28c-.19.19-.29.45-.29.79,0,.31.09.56.29.76Z"/></g><g class="cls-21"><path d="m282.99,145.57c.22-.39.53-.68.95-.87-.41-.27-.68-.57-.8-.89s-.19-.62-.19-.89c0-.62.23-1.14.7-1.58s1.12-.65,1.97-.65,1.51.22,1.97.65.7.96.7,1.58c0,.28-.06.58-.18.89s-.39.59-.8.83c.42.23.74.54.95.93s.32.82.32,1.29c0,.71-.27,1.32-.79,1.83s-1.27.75-2.22.75-1.67-.25-2.16-.75c-.49-.5-.73-1.11-.73-1.83,0-.48.11-.91.32-1.29Zm1.74,2.16c.22.23.52.35.9.35s.68-.12.9-.35.33-.55.33-.97-.11-.76-.33-.99-.52-.34-.89-.34-.67.11-.89.34-.33.55-.33.99.11.74.33.97Zm.11-3.87c.19.2.45.29.79.29s.6-.1.79-.29.28-.45.28-.76c0-.34-.09-.6-.28-.79s-.45-.28-.79-.28-.6.09-.79.28c-.19.19-.29.45-.29.79,0,.31.09.56.29.76Z"/></g><g class="cls-21"><path d="m423.32,76.53c.22-.39.53-.68.95-.87-.41-.27-.68-.57-.8-.89s-.19-.62-.19-.89c0-.62.23-1.14.7-1.58s1.12-.65,1.97-.65,1.51.22,1.97.65.7.96.7,1.58c0,.28-.06.58-.18.89s-.39.59-.8.83c.42.23.74.54.95.93s.32.82.32,1.29c0,.71-.27,1.32-.79,1.83s-1.27.75-2.22.75-1.67-.25-2.16-.75c-.49-.5-.73-1.11-.73-1.83,0-.48.11-.91.32-1.29Zm1.74,2.16c.22.23.52.35.9.35s.68-.12.9-.35.33-.55.33-.97-.11-.76-.33-.99-.52-.34-.89-.34-.67.11-.89.34-.33.55-.33.99.11.74.33.97Zm.11-3.87c.19.2.45.29.79.29s.6-.1.79-.29.28-.45.28-.76c0-.34-.09-.6-.28-.79s-.45-.28-.79-.28-.6.09-.79.28c-.19.19-.29.45-.29.79,0,.31.09.56.29.76Z"/></g><g class="cls-21"><path d="m563.66,234.74c.21-.39.53-.68.95-.87-.41-.27-.68-.57-.8-.89-.12-.32-.19-.62-.19-.89,0-.62.23-1.14.7-1.58.46-.44,1.12-.65,1.97-.65s1.51.22,1.97.65.7.96.7,1.58c0,.28-.06.58-.18.89s-.39.59-.8.83c.42.23.74.54.95.93s.32.82.32,1.29c0,.71-.26,1.32-.79,1.83-.53.5-1.27.75-2.22.75s-1.67-.25-2.16-.75c-.49-.5-.73-1.11-.73-1.83,0-.48.11-.91.32-1.29Zm1.74,2.16c.22.23.52.35.9.35s.68-.12.9-.35.33-.55.33-.97-.11-.76-.33-.99-.52-.34-.89-.34-.67.11-.89.34-.33.55-.33.99.11.74.33.97Zm.11-3.87c.19.2.45.29.79.29s.6-.1.79-.29c.19-.2.28-.45.28-.76,0-.34-.09-.6-.28-.79-.19-.19-.45-.28-.79-.28s-.6.09-.79.28c-.19.19-.29.45-.29.79,0,.31.09.56.29.76Z"/></g><g class="cls-21"><path d="m704,174.51c.21-.39.53-.68.95-.87-.41-.27-.68-.57-.8-.89-.12-.32-.19-.62-.19-.89,0-.62.23-1.14.7-1.58.46-.44,1.12-.65,1.97-.65s1.51.22,1.97.65.7.96.7,1.58c0,.28-.06.58-.18.89s-.39.59-.8.83c.42.23.74.54.95.93s.32.82.32,1.29c0,.71-.26,1.32-.79,1.83-.53.5-1.27.75-2.22.75s-1.67-.25-2.16-.75c-.49-.5-.73-1.11-.73-1.83,0-.48.11-.91.32-1.29Zm1.74,2.16c.22.23.52.35.9.35s.68-.12.9-.35.33-.55.33-.97-.11-.76-.33-.99-.52-.34-.89-.34-.67.11-.89.34-.33.55-.33.99.11.74.33.97Zm.11-3.87c.19.2.45.29.79.29s.6-.1.79-.29c.19-.2.28-.45.28-.76,0-.34-.09-.6-.28-.79-.19-.19-.45-.28-.79-.28s-.6.09-.79.28c-.19.19-.29.45-.29.79,0,.31.09.56.29.76Z"/></g><g class="cls-21"><path d="m844.34,339.9c.21-.39.53-.68.95-.87-.41-.27-.68-.57-.8-.89-.12-.32-.19-.62-.19-.89,0-.62.23-1.14.7-1.58.46-.44,1.12-.65,1.97-.65s1.51.22,1.97.65.7.96.7,1.58c0,.28-.06.58-.18.89s-.39.59-.8.83c.42.23.74.54.95.93s.32.82.32,1.29c0,.71-.26,1.32-.79,1.83-.53.5-1.27.75-2.22.75s-1.67-.25-2.16-.75c-.49-.5-.73-1.11-.73-1.83,0-.48.11-.91.32-1.29Zm1.74,2.16c.22.23.52.35.9.35s.68-.12.9-.35.33-.55.33-.97-.11-.76-.33-.99-.52-.34-.89-.34-.67.11-.89.34-.33.55-.33.99.11.74.33.97Zm.11-3.87c.19.2.45.29.79.29s.6-.1.79-.29c.19-.2.28-.45.28-.76,0-.34-.09-.6-.28-.79-.19-.19-.45-.28-.79-.28s-.6.09-.79.28c-.19.19-.29.45-.29.79,0,.31.09.56.29.76Z"/></g><g class="cls-21"><path d="m984.68,375.55c.21-.39.53-.68.95-.87-.41-.27-.68-.57-.8-.89-.12-.32-.19-.62-.19-.89,0-.62.23-1.14.7-1.58.46-.44,1.12-.65,1.97-.65s1.51.22,1.97.65.7.96.7,1.58c0,.28-.06.58-.18.89s-.39.59-.8.83c.42.23.74.54.95.93s.32.82.32,1.29c0,.71-.26,1.32-.79,1.83-.53.5-1.27.75-2.22.75s-1.67-.25-2.16-.75c-.49-.5-.73-1.11-.73-1.83,0-.48.11-.91.32-1.29Zm1.74,2.16c.22.23.52.35.9.35s.68-.12.9-.35.33-.55.33-.97-.11-.76-.33-.99-.52-.34-.89-.34-.67.11-.89.34-.33.55-.33.99.11.74.33.97Zm.11-3.87c.19.2.45.29.79.29s.6-.1.79-.29c.19-.2.28-.45.28-.76,0-.34-.09-.6-.28-.79-.19-.19-.45-.28-.79-.28s-.6.09-.79.28c-.19.19-.29.45-.29.79,0,.31.09.56.29.76Z"/></g><g class="cls-21"><path d="m148.77,127c.53-.56,1.21-.85,2.05-.85,1.29,0,2.18.57,2.66,1.72.27.65.41,1.5.41,2.56s-.13,1.88-.39,2.57c-.5,1.31-1.42,1.96-2.75,1.96-.64,0-1.21-.19-1.72-.57s-.8-.93-.87-1.65h1.66c.04.25.14.45.32.61s.4.23.69.23c.55,0,.94-.3,1.16-.91.12-.34.2-.83.23-1.47-.15.19-.31.34-.49.44-.31.19-.7.28-1.15.28-.68,0-1.28-.23-1.8-.7s-.79-1.14-.79-2.02.26-1.65.79-2.21Zm2.81,3.37c.38-.24.57-.66.57-1.26,0-.48-.11-.86-.34-1.14s-.53-.42-.92-.42c-.29,0-.53.08-.73.24-.32.25-.48.67-.48,1.27,0,.5.1.88.31,1.13s.52.38.95.38c.23,0,.45-.07.65-.2Z"/></g><g class="cls-21"><path d="m289.11,205.01c.53-.56,1.21-.85,2.05-.85,1.29,0,2.18.57,2.66,1.72.27.65.41,1.5.41,2.56s-.13,1.88-.39,2.57c-.5,1.31-1.42,1.96-2.75,1.96-.64,0-1.21-.19-1.72-.57s-.8-.93-.87-1.65h1.66c.04.25.14.45.32.61s.4.23.69.23c.55,0,.94-.3,1.16-.91.12-.34.2-.83.23-1.47-.15.19-.31.34-.49.44-.31.19-.7.28-1.15.28-.68,0-1.28-.23-1.8-.7s-.79-1.14-.79-2.02.26-1.65.79-2.21Zm2.81,3.37c.38-.24.57-.66.57-1.26,0-.48-.11-.86-.34-1.14s-.53-.42-.92-.42c-.29,0-.53.08-.73.24-.32.25-.48.67-.48,1.27,0,.5.1.88.31,1.13s.52.38.95.38c.23,0,.45-.07.65-.2Z"/></g><g class="cls-21"><path d="m429.45,267.86c.53-.56,1.21-.85,2.05-.85,1.29,0,2.18.57,2.66,1.72.27.65.41,1.5.41,2.56s-.13,1.88-.39,2.57c-.5,1.31-1.42,1.96-2.75,1.96-.64,0-1.21-.19-1.72-.57s-.8-.93-.87-1.65h1.66c.04.25.14.45.32.61s.4.23.69.23c.55,0,.94-.3,1.16-.91.12-.34.2-.83.23-1.47-.15.19-.31.34-.49.44-.31.19-.7.28-1.15.28-.68,0-1.28-.23-1.8-.7s-.79-1.14-.79-2.02.26-1.65.79-2.21Zm2.81,3.37c.38-.24.57-.66.57-1.26,0-.48-.11-.86-.34-1.14s-.53-.42-.92-.42c-.29,0-.53.08-.73.24-.32.25-.48.67-.48,1.27,0,.5.1.88.31,1.13s.52.38.95.38c.23,0,.45-.07.65-.2Z"/></g><g class="cls-21"><path d="m569.79,288.82c.53-.56,1.21-.85,2.05-.85,1.29,0,2.18.57,2.66,1.72.27.65.41,1.5.41,2.56s-.13,1.88-.39,2.57c-.5,1.31-1.42,1.96-2.75,1.96-.64,0-1.21-.19-1.72-.57s-.8-.93-.87-1.65h1.66c.04.25.14.45.32.61s.4.23.69.23c.55,0,.94-.3,1.16-.91.12-.34.2-.83.23-1.47-.15.19-.31.34-.49.44-.31.19-.7.28-1.15.28-.68,0-1.28-.23-1.8-.7s-.79-1.14-.79-2.02.26-1.65.79-2.21Zm2.81,3.37c.38-.24.57-.66.57-1.26,0-.48-.11-.86-.34-1.14s-.53-.42-.92-.42c-.29,0-.53.08-.73.24-.32.25-.48.67-.48,1.27,0,.5.1.88.31,1.13s.52.38.95.38c.23,0,.45-.07.65-.2Z"/></g><g class="cls-21"><path d="m710.13,196.54c.53-.56,1.21-.85,2.05-.85,1.29,0,2.18.57,2.66,1.72.27.65.41,1.5.41,2.56s-.13,1.88-.39,2.57c-.5,1.31-1.42,1.96-2.75,1.96-.64,0-1.21-.19-1.72-.57s-.8-.93-.87-1.65h1.66c.04.25.14.45.32.61s.4.23.69.23c.55,0,.94-.3,1.16-.91.12-.34.2-.83.23-1.47-.15.19-.31.34-.49.44-.31.19-.7.28-1.15.28-.68,0-1.28-.23-1.8-.7s-.79-1.14-.79-2.02.26-1.65.79-2.21Zm2.81,3.37c.38-.24.57-.66.57-1.26,0-.48-.11-.86-.34-1.14s-.53-.42-.92-.42c-.29,0-.53.08-.73.24-.32.25-.48.67-.48,1.27,0,.5.1.88.31,1.13s.52.38.95.38c.23,0,.45-.07.65-.2Z"/></g><g class="cls-21"><path d="m850.46,314.91c.53-.56,1.21-.85,2.05-.85,1.29,0,2.18.57,2.66,1.72.27.65.41,1.5.41,2.56s-.13,1.88-.39,2.57c-.5,1.31-1.42,1.96-2.75,1.96-.64,0-1.21-.19-1.72-.57s-.8-.93-.87-1.65h1.66c.04.25.14.45.32.61s.4.23.69.23c.55,0,.94-.3,1.16-.91.12-.34.2-.83.23-1.47-.15.19-.31.34-.49.44-.31.19-.7.28-1.15.28-.68,0-1.28-.23-1.8-.7s-.79-1.14-.79-2.02.26-1.65.79-2.21Zm2.81,3.37c.38-.24.57-.66.57-1.26,0-.48-.11-.86-.34-1.14s-.53-.42-.92-.42c-.29,0-.53.08-.73.24-.32.25-.48.67-.48,1.27,0,.5.1.88.31,1.13s.52.38.95.38c.23,0,.45-.07.65-.2Z"/></g><g class="cls-21"><path d="m990.8,366c.53-.56,1.21-.85,2.05-.85,1.29,0,2.18.57,2.66,1.72.27.65.41,1.5.41,2.56s-.13,1.88-.39,2.57c-.5,1.31-1.42,1.96-2.75,1.96-.64,0-1.21-.19-1.72-.57s-.8-.93-.87-1.65h1.66c.04.25.14.45.32.61s.4.23.69.23c.55,0,.94-.3,1.16-.91.12-.34.2-.83.23-1.47-.15.19-.31.34-.49.44-.31.19-.7.28-1.15.28-.68,0-1.28-.23-1.8-.7s-.79-1.14-.79-2.02.26-1.65.79-2.21Zm2.81,3.37c.38-.24.57-.66.57-1.26,0-.48-.11-.86-.34-1.14s-.53-.42-.92-.42c-.29,0-.53.08-.73.24-.32.25-.48.67-.48,1.27,0,.5.1.88.31,1.13s.52.38.95.38c.23,0,.45-.07.65-.2Z"/></g><line class="cls-7" x1="86.4" y1="361.44" x2="1080" y2="361.44"/><line class="cls-10" x1="86.4" y1="504" x2="1080" y2="504"/><line class="cls-10" x1="86.4" y1="480.24" x2="1080" y2="480.24"/><line class="cls-10" x1="86.4" y1="456.48" x2="1080" y2="456.48"/><line class="cls-10" x1="86.4" y1="432.72" x2="1080" y2="432.72"/><line class="cls-10" x1="86.4" y1="408.96" x2="1080" y2="408.96"/><line class="cls-10" x1="86.4" y1="385.2" x2="1080" y2="385.2"/><line class="cls-10" x1="86.4" y1="361.44" x2="1080" y2="361.44"/><line class="cls-10" x1="86.4" y1="337.68" x2="1080" y2="337.68"/><line class="cls-10" x1="86.4" y1="313.92" x2="1080" y2="313.92"/><line class="cls-10" x1="86.4" y1="290.16" x2="1080" y2="290.16"/><line class="cls-10" x1="86.4" y1="266.4" x2="1080" y2="266.4"/><line class="cls-10" x1="86.4" y1="242.64" x2="1080" y2="242.64"/><line class="cls-10" x1="86.4" y1="218.88" x2="1080" y2="218.88"/><line class="cls-10" x1="86.4" y1="195.12" x2="1080" y2="195.12"/><line class="cls-10" x1="86.4" y1="171.36" x2="1080" y2="171.36"/><line class="cls-10" x1="86.4" y1="147.6" x2="1080" y2="147.6"/><line class="cls-10" x1="86.4" y1="123.84" x2="1080" y2="123.84"/><line class="cls-10" x1="86.4" y1="100.08" x2="1080" y2="100.08"/><line class="cls-10" x1="86.4" y1="76.32" x2="1080" y2="76.32"/><line class="cls-10" x1="86.4" y1="52.56" x2="1080" y2="52.56"/><line class="cls-10" x1="86.4" y1="28.8" x2="1080" y2="28.8"/><line class="cls-4" x1="104.64" y1="504" x2="104.64" y2="28.8"/><line class="cls-4" x1="244.98" y1="504" x2="244.98" y2="28.8"/><line class="cls-4" x1="385.32" y1="504" x2="385.32" y2="28.8"/><line class="cls-4" x1="525.66" y1="504" x2="525.66" y2="28.8"/><line class="cls-4" x1="666" y1="504" x2="666" y2="28.8"/><line class="cls-4" x1="806.34" y1="504" x2="806.34" y2="28.8"/><line class="cls-4" x1="946.68" y1="504" x2="946.68" y2="28.8"/><line class="cls-4" x1="225.34" y1="504" x2="225.34" y2="28.8"/><line class="cls-4" x1="365.67" y1="504" x2="365.67" y2="28.8"/><line class="cls-4" x1="506.01" y1="504" x2="506.01" y2="28.8"/><line class="cls-4" x1="646.35" y1="504" x2="646.35" y2="28.8"/><line class="cls-4" x1="786.69" y1="504" x2="786.69" y2="28.8"/><line class="cls-4" x1="927.03" y1="504" x2="927.03" y2="28.8"/><line class="cls-4" x1="1067.37" y1="504" x2="1067.37" y2="28.8"/><rect class="cls-15" x="149.39" y="227.31" width="14.36" height="14.36"/><rect class="cls-1" x="149.39" y="227.31" width="14.36" height="14.36"/><rect class="cls-15" x="289.73" y="156.64" width="14.36" height="14.36"/><rect class="cls-1" x="289.73" y="156.64" width="14.36" height="14.36"/><rect class="cls-15" x="430.07" y="319.61" width="14.36" height="14.36"/><rect class="cls-1" x="430.07" y="319.61" width="14.36" height="14.36"/><rect class="cls-15" x="570.41" y="246.96" width="14.36" height="14.36"/><rect class="cls-1" x="570.41" y="246.96" width="14.36" height="14.36"/><rect class="cls-15" x="710.75" y="197.06" width="14.36" height="14.36"/><rect class="cls-1" x="710.75" y="197.06" width="14.36" height="14.36"/><rect class="cls-15" x="851.09" y="297.08" width="14.36" height="14.36"/><rect class="cls-1" x="851.09" y="297.08" width="14.36" height="14.36"/><rect class="cls-15" x="991.42" y="407.6" width="14.36" height="14.36"/><rect class="cls-1" x="991.42" y="407.6" width="14.36" height="14.36"/><rect class="cls-12" x="155" y="161.62" width="14.36" height="14.36"/><rect class="cls-2" x="155" y="161.62" width="14.36" height="14.36"/><rect class="cls-12" x="295.34" y="286.27" width="14.36" height="14.36"/><rect class="cls-2" x="295.34" y="286.27" width="14.36" height="14.36"/><rect class="cls-12" x="435.68" y="261.88" width="14.36" height="14.36"/><rect class="cls-2" x="435.68" y="261.88" width="14.36" height="14.36"/><rect class="cls-12" x="576.02" y="208.11" width="14.36" height="14.36"/><rect class="cls-2" x="576.02" y="208.11" width="14.36" height="14.36"/><rect class="cls-12" x="716.36" y="281.3" width="14.36" height="14.36"/><rect class="cls-2" x="716.36" y="281.3" width="14.36" height="14.36"/><rect class="cls-12" x="856.7" y="354.8" width="14.36" height="14.36"/><rect class="cls-2" x="856.7" y="354.8" width="14.36" height="14.36"/><rect class="cls-12" x="997.04" y="467.17" width="14.36" height="14.36"/><rect class="cls-2" x="997.04" y="467.17" width="14.36" height="14.36"/><rect class="cls-14" x="132.55" y="243.74" width="14.36" height="14.36"/><rect class="cls-6" x="132.55" y="243.74" width="14.36" height="14.36"/><rect class="cls-14" x="272.89" y="262.57" width="14.36" height="14.36"/><rect class="cls-6" x="272.89" y="262.57" width="14.36" height="14.36"/><rect class="cls-14" x="413.23" y="192.72" width="14.36" height="14.36"/><rect class="cls-6" x="413.23" y="192.72" width="14.36" height="14.36"/><rect class="cls-14" x="553.57" y="321.42" width="14.36" height="14.36"/><rect class="cls-6" x="553.57" y="321.42" width="14.36" height="14.36"/><rect class="cls-14" x="693.91" y="278.76" width="14.36" height="14.36"/><rect class="cls-6" x="693.91" y="278.76" width="14.36" height="14.36"/><rect class="cls-14" x="834.25" y="365.24" width="14.36" height="14.36"/><rect class="cls-6" x="834.25" y="365.24" width="14.36" height="14.36"/><rect class="cls-14" x="974.58" y="357.8" width="14.36" height="14.36"/><rect class="cls-6" x="974.58" y="357.8" width="14.36" height="14.36"/><rect class="cls-16" x="138.16" y="280.91" width="14.36" height="14.36"/><rect class="cls-3" x="138.16" y="280.91" width="14.36" height="14.36"/><rect class="cls-16" x="278.5" y="127.36" width="14.36" height="14.36"/><rect class="cls-3" x="278.5" y="127.36" width="14.36" height="14.36"/><rect class="cls-16" x="418.84" y="82.57" width="14.36" height="14.36"/><rect class="cls-3" x="418.84" y="82.57" width="14.36" height="14.36"/><rect class="cls-16" x="559.18" y="210.47" width="14.36" height="14.36"/><rect class="cls-3" x="559.18" y="210.47" width="14.36" height="14.36"/><rect class="cls-16" x="699.52" y="222.09" width="14.36" height="14.36"/><rect class="cls-3" x="699.52" y="222.09" width="14.36" height="14.36"/><rect class="cls-16" x="839.86" y="415.1" width="14.36" height="14.36"/><rect class="cls-3" x="839.86" y="415.1" width="14.36" height="14.36"/><rect class="cls-16" x="980.2" y="405.7" width="14.36" height="14.36"/><rect class="cls-3" x="980.2" y="405.7" width="14.36" height="14.36"/><rect class="cls-13" x="143.78" y="281.52" width="14.36" height="14.36"/><rect class="cls-8" x="143.78" y="281.52" width="14.36" height="14.36"/><rect class="cls-13" x="284.12" y="179.58" width="14.36" height="14.36"/><rect class="cls-8" x="284.12" y="179.58" width="14.36" height="14.36"/><rect class="cls-13" x="424.46" y="315.18" width="14.36" height="14.36"/><rect class="cls-8" x="424.46" y="315.18" width="14.36" height="14.36"/><rect class="cls-13" x="564.79" y="397.33" width="14.36" height="14.36"/><rect class="cls-8" x="564.79" y="397.33" width="14.36" height="14.36"/><rect class="cls-13" x="705.13" y="345.98" width="14.36" height="14.36"/><rect class="cls-8" x="705.13" y="345.98" width="14.36" height="14.36"/><rect class="cls-13" x="845.47" y="379.1" width="14.36" height="14.36"/><rect class="cls-8" x="845.47" y="379.1" width="14.36" height="14.36"/><rect class="cls-13" x="985.81" y="397.12" width="14.36" height="14.36"/><rect class="cls-8" x="985.81" y="397.12" width="14.36" height="14.36"/><g class="cls-21"><path d="m150.73,232.78v-1.14c.53-.02.89-.06,1.1-.11.33-.07.61-.22.82-.45.14-.15.25-.36.33-.61.04-.15.06-.27.06-.34h1.39v8.5h-1.71v-5.86h-2Z"/><path d="m162.15,231.23c.44.76.65,1.84.65,3.25s-.22,2.48-.65,3.24-1.19,1.14-2.28,1.14-1.84-.38-2.28-1.14-.65-1.84-.65-3.24.22-2.48.65-3.25,1.19-1.14,2.28-1.14,1.84.38,2.28,1.14Zm-3.26,5.49c.16.52.49.78.98.78s.82-.26.98-.78.23-1.26.23-2.24-.08-1.78-.23-2.27-.48-.74-.98-.74-.82.25-.98.74-.24,1.25-.24,2.27.08,1.72.24,2.24Z"/></g><g class="cls-21"><path d="m291.07,162.11v-1.14c.53-.02.89-.06,1.1-.11.33-.07.61-.22.82-.45.14-.15.25-.36.33-.61.04-.15.06-.27.06-.34h1.39v8.5h-1.71v-5.86h-2Z"/><path d="m302.5,160.56c.44.76.65,1.84.65,3.25s-.22,2.48-.65,3.24-1.19,1.14-2.28,1.14-1.84-.38-2.28-1.14-.65-1.84-.65-3.24.22-2.48.65-3.25,1.19-1.14,2.28-1.14,1.84.38,2.28,1.14Zm-3.26,5.49c.16.52.49.78.98.78s.82-.26.98-.78.23-1.26.23-2.24-.08-1.78-.23-2.27-.48-.74-.98-.74-.82.25-.98.74-.24,1.25-.24,2.27.08,1.72.24,2.24Z"/></g><g class="cls-21"><path d="m431.41,325.07v-1.14c.53-.02.89-.06,1.1-.11.33-.07.61-.22.82-.45.14-.15.25-.36.33-.61.04-.15.06-.27.06-.34h1.39v8.5h-1.71v-5.86h-2Z"/><path d="m442.83,323.52c.44.76.65,1.84.65,3.25s-.22,2.48-.65,3.24-1.19,1.14-2.28,1.14-1.84-.38-2.28-1.14-.65-1.84-.65-3.24.22-2.48.65-3.25,1.19-1.14,2.28-1.14,1.84.38,2.28,1.14Zm-3.26,5.49c.16.52.49.78.98.78s.82-.26.98-.78.23-1.26.23-2.24-.08-1.78-.23-2.27-.48-.74-.98-.74-.82.25-.98.74-.24,1.25-.24,2.27.08,1.72.24,2.24Z"/></g><g class="cls-21"><path d="m571.74,252.43v-1.14c.53-.02.89-.06,1.1-.11.33-.07.61-.22.82-.45.14-.15.25-.36.33-.61.04-.15.06-.27.06-.34h1.39v8.5h-1.71v-5.86h-2Z"/><path d="m583.17,250.88c.44.76.65,1.84.65,3.25s-.22,2.48-.65,3.24-1.19,1.14-2.28,1.14-1.84-.38-2.28-1.14-.65-1.84-.65-3.24.22-2.48.65-3.25,1.19-1.14,2.28-1.14,1.84.38,2.28,1.14Zm-3.26,5.49c.16.52.49.78.98.78s.82-.26.98-.78.23-1.26.23-2.24-.08-1.78-.23-2.27-.48-.74-.98-.74-.82.25-.98.74-.24,1.25-.24,2.27.08,1.72.24,2.24Z"/></g><g class="cls-21"><path d="m712.08,202.53v-1.14c.53-.02.89-.06,1.1-.11.33-.07.61-.22.82-.45.14-.15.25-.36.33-.61.04-.15.06-.27.06-.34h1.39v8.5h-1.71v-5.86h-2Z"/><path d="m723.5,200.98c.44.76.65,1.84.65,3.25s-.22,2.48-.65,3.24-1.19,1.14-2.28,1.14-1.84-.38-2.28-1.14-.65-1.84-.65-3.24.22-2.48.65-3.25,1.19-1.14,2.28-1.14,1.84.38,2.28,1.14Zm-3.26,5.49c.16.52.49.78.98.78s.82-.26.98-.78.23-1.26.23-2.24-.08-1.78-.23-2.27-.48-.74-.98-.74-.82.25-.98.74-.24,1.25-.24,2.27.08,1.72.24,2.24Z"/></g><g class="cls-21"><path d="m852.42,302.55v-1.14c.53-.02.89-.06,1.1-.11.33-.07.61-.22.82-.45.14-.15.25-.36.33-.61.04-.15.06-.27.06-.34h1.39v8.5h-1.71v-5.86h-2Z"/><path d="m863.84,301c.44.76.65,1.84.65,3.25s-.22,2.48-.65,3.24-1.19,1.14-2.28,1.14-1.84-.38-2.28-1.14-.65-1.84-.65-3.24.22-2.48.65-3.25,1.19-1.14,2.28-1.14,1.84.38,2.28,1.14Zm-3.26,5.49c.16.52.49.78.98.78s.82-.26.98-.78.23-1.26.23-2.24-.08-1.78-.23-2.27-.48-.74-.98-.74-.82.25-.98.74-.24,1.25-.24,2.27.08,1.72.24,2.24Z"/></g><g class="cls-21"><path d="m992.76,413.07v-1.14c.53-.02.89-.06,1.1-.11.33-.07.61-.22.82-.45.14-.15.25-.36.33-.61.04-.15.06-.27.06-.34h1.39v8.5h-1.71v-5.86h-2Z"/><path d="m1004.18,411.52c.44.76.65,1.84.65,3.25s-.22,2.48-.65,3.24-1.19,1.14-2.28,1.14-1.84-.38-2.28-1.14-.65-1.84-.65-3.24.22-2.48.65-3.25,1.19-1.14,2.28-1.14,1.84.38,2.28,1.14Zm-3.26,5.49c.16.52.49.78.98.78s.82-.26.98-.78.23-1.26.23-2.24-.08-1.78-.23-2.27-.48-.74-.98-.74-.82.25-.98.74-.24,1.25-.24,2.27.08,1.72.24,2.24Z"/></g><g class="cls-21"><path d="m156.34,167.21v-1.14c.53-.02.89-.06,1.1-.11.33-.07.61-.22.82-.45.14-.15.25-.36.33-.61.04-.15.06-.27.06-.34h1.39v8.5h-1.71v-5.86h-2Z"/><path d="m163.02,167.21v-1.14c.53-.02.89-.06,1.1-.11.33-.07.61-.22.82-.45.14-.15.25-.36.33-.61.04-.15.06-.27.06-.34h1.39v8.5h-1.71v-5.86h-2Z"/></g><g class="cls-21"><path d="m296.68,291.85v-1.14c.53-.02.89-.06,1.1-.11.33-.07.61-.22.82-.45.14-.15.25-.36.33-.61.04-.15.06-.27.06-.34h1.39v8.5h-1.71v-5.86h-2Z"/><path d="m303.36,291.85v-1.14c.53-.02.89-.06,1.1-.11.33-.07.61-.22.82-.45.14-.15.25-.36.33-.61.04-.15.06-.27.06-.34h1.39v8.5h-1.71v-5.86h-2Z"/></g><g class="cls-21"><path d="m437.02,267.46v-1.14c.53-.02.89-.06,1.1-.11.33-.07.61-.22.82-.45.14-.15.25-.36.33-.61.04-.15.06-.27.06-.34h1.39v8.5h-1.71v-5.86h-2Z"/><path d="m443.7,267.46v-1.14c.53-.02.89-.06,1.1-.11.33-.07.61-.22.82-.45.14-.15.25-.36.33-.61.04-.15.06-.27.06-.34h1.39v8.5h-1.71v-5.86h-2Z"/></g><g class="cls-21"><path d="m577.36,213.69v-1.14c.53-.02.89-.06,1.1-.11.33-.07.61-.22.82-.45.14-.15.25-.36.33-.61.04-.15.06-.27.06-.34h1.39v8.5h-1.71v-5.86h-2Z"/><path d="m584.04,213.69v-1.14c.53-.02.89-.06,1.1-.11.33-.07.61-.22.82-.45.14-.15.25-.36.33-.61.04-.15.06-.27.06-.34h1.39v8.5h-1.71v-5.86h-2Z"/></g><g class="cls-21"><path d="m717.7,286.88v-1.14c.53-.02.89-.06,1.1-.11.33-.07.61-.22.82-.45.14-.15.25-.36.33-.61.04-.15.06-.27.06-.34h1.39v8.5h-1.71v-5.86h-2Z"/><path d="m724.38,286.88v-1.14c.53-.02.89-.06,1.1-.11.33-.07.61-.22.82-.45.14-.15.25-.36.33-.61.04-.15.06-.27.06-.34h1.39v8.5h-1.71v-5.86h-2Z"/></g><g class="cls-21"><path d="m858.04,360.38v-1.14c.53-.02.89-.06,1.1-.11.33-.07.61-.22.82-.45.14-.15.25-.36.33-.61.04-.15.06-.27.06-.34h1.39v8.5h-1.71v-5.86h-2Z"/><path d="m864.72,360.38v-1.14c.53-.02.89-.06,1.1-.11.33-.07.61-.22.82-.45.14-.15.25-.36.33-.61.04-.15.06-.27.06-.34h1.39v8.5h-1.71v-5.86h-2Z"/></g><g class="cls-21"><path d="m998.37,472.76v-1.14c.53-.02.89-.06,1.1-.11.33-.07.61-.22.82-.45.14-.15.25-.36.33-.61.04-.15.06-.27.06-.34h1.39v8.5h-1.71v-5.86h-2Z"/><path d="m1005.05,472.76v-1.14c.53-.02.89-.06,1.1-.11.33-.07.61-.22.82-.45.14-.15.25-.36.33-.61.04-.15.06-.27.06-.34h1.39v8.5h-1.71v-5.86h-2Z"/></g><g class="cls-21"><path d="m142.72,248.03c-.25.25-.6.68-1.04,1.32s-.82,1.28-1.12,1.95c-.24.53-.45,1.17-.65,1.93s-.29,1.39-.29,1.88h-1.73c.05-1.52.55-3.11,1.5-4.75.61-1.02,1.13-1.73,1.54-2.13h-4.23l.02-1.5h6v1.31Z"/></g><g class="cls-21"><path d="m283.06,266.86c-.25.25-.6.68-1.04,1.32s-.82,1.28-1.12,1.95c-.24.53-.45,1.17-.65,1.93s-.29,1.39-.29,1.88h-1.73c.05-1.52.55-3.11,1.5-4.75.61-1.02,1.13-1.73,1.54-2.13h-4.23l.02-1.5h6v1.31Z"/></g><g class="cls-21"><path d="m423.4,197.01c-.25.25-.6.68-1.04,1.32s-.82,1.28-1.12,1.95c-.24.53-.45,1.17-.65,1.93s-.29,1.39-.29,1.88h-1.73c.05-1.52.55-3.11,1.5-4.75.61-1.02,1.13-1.73,1.54-2.13h-4.23l.02-1.5h6v1.31Z"/></g><g class="cls-21"><path d="m563.74,325.71c-.25.25-.6.68-1.04,1.32s-.82,1.28-1.12,1.95c-.24.53-.45,1.17-.65,1.93-.19.76-.29,1.39-.29,1.88h-1.73c.05-1.52.55-3.11,1.5-4.75.61-1.02,1.13-1.73,1.54-2.13h-4.23l.02-1.5h6v1.31Z"/></g><g class="cls-21"><path d="m704.08,283.05c-.25.25-.6.68-1.04,1.32s-.82,1.28-1.12,1.95c-.24.53-.45,1.17-.65,1.93-.19.76-.29,1.39-.29,1.88h-1.73c.05-1.52.55-3.11,1.5-4.75.61-1.02,1.13-1.73,1.54-2.13h-4.23l.02-1.5h6v1.31Z"/></g><g class="cls-21"><path d="m844.42,369.53c-.25.25-.6.68-1.04,1.32s-.82,1.28-1.12,1.95c-.24.53-.45,1.17-.65,1.93-.19.76-.29,1.39-.29,1.88h-1.73c.05-1.52.55-3.11,1.5-4.75.61-1.02,1.13-1.73,1.54-2.13h-4.23l.02-1.5h6v1.31Z"/></g><g class="cls-21"><path d="m984.76,362.09c-.25.25-.6.68-1.04,1.32s-.82,1.28-1.12,1.95c-.24.53-.45,1.17-.65,1.93-.19.76-.29,1.39-.29,1.88h-1.73c.05-1.52.55-3.11,1.5-4.75.61-1.02,1.13-1.73,1.54-2.13h-4.23l.02-1.5h6v1.31Z"/></g><g class="cls-21"><path d="m142.65,288.59c.22-.39.53-.68.95-.87-.41-.27-.68-.57-.8-.89s-.19-.62-.19-.89c0-.62.23-1.14.7-1.58s1.12-.65,1.97-.65,1.51.22,1.97.65.7.96.7,1.58c0,.28-.06.58-.18.89s-.39.59-.8.83c.42.23.74.54.95.93s.32.82.32,1.29c0,.71-.27,1.32-.79,1.83s-1.27.75-2.22.75-1.67-.25-2.16-.75c-.49-.5-.73-1.11-.73-1.83,0-.48.11-.91.32-1.29Zm1.74,2.16c.22.23.52.35.9.35s.68-.12.9-.35.33-.55.33-.97-.11-.76-.33-.99-.52-.34-.89-.34-.67.11-.89.34-.33.55-.33.99.11.74.33.97Zm.11-3.87c.19.2.45.29.79.29s.6-.1.79-.29.28-.45.28-.76c0-.34-.09-.6-.28-.79s-.45-.28-.79-.28-.6.09-.79.28c-.19.19-.29.45-.29.79,0,.31.09.56.29.76Z"/></g><g class="cls-21"><path d="m282.99,135.04c.22-.39.53-.68.95-.87-.41-.27-.68-.57-.8-.89s-.19-.62-.19-.89c0-.62.23-1.14.7-1.58s1.12-.65,1.97-.65,1.51.22,1.97.65.7.96.7,1.58c0,.28-.06.58-.18.89s-.39.59-.8.83c.42.23.74.54.95.93s.32.82.32,1.29c0,.71-.27,1.32-.79,1.83s-1.27.75-2.22.75-1.67-.25-2.16-.75c-.49-.5-.73-1.11-.73-1.83,0-.48.11-.91.32-1.29Zm1.74,2.16c.22.23.52.35.9.35s.68-.12.9-.35.33-.55.33-.97-.11-.76-.33-.99-.52-.34-.89-.34-.67.11-.89.34-.33.55-.33.99.11.74.33.97Zm.11-3.87c.19.2.45.29.79.29s.6-.1.79-.29.28-.45.28-.76c0-.34-.09-.6-.28-.79s-.45-.28-.79-.28-.6.09-.79.28c-.19.19-.29.45-.29.79,0,.31.09.56.29.76Z"/></g><g class="cls-21"><path d="m423.32,90.24c.22-.39.53-.68.95-.87-.41-.27-.68-.57-.8-.89s-.19-.62-.19-.89c0-.62.23-1.14.7-1.58s1.12-.65,1.97-.65,1.51.22,1.97.65.7.96.7,1.58c0,.28-.06.58-.18.89s-.39.59-.8.83c.42.23.74.54.95.93s.32.82.32,1.29c0,.71-.27,1.32-.79,1.83s-1.27.75-2.22.75-1.67-.25-2.16-.75c-.49-.5-.73-1.11-.73-1.83,0-.48.11-.91.32-1.29Zm1.74,2.16c.22.23.52.35.9.35s.68-.12.9-.35.33-.55.33-.97-.11-.76-.33-.99-.52-.34-.89-.34-.67.11-.89.34-.33.55-.33.99.11.74.33.97Zm.11-3.87c.19.2.45.29.79.29s.6-.1.79-.29.28-.45.28-.76c0-.34-.09-.6-.28-.79s-.45-.28-.79-.28-.6.09-.79.28c-.19.19-.29.45-.29.79,0,.31.09.56.29.76Z"/></g><g class="cls-21"><path d="m563.66,218.15c.21-.39.53-.68.95-.87-.41-.27-.68-.57-.8-.89-.12-.32-.19-.62-.19-.89,0-.62.23-1.14.7-1.58.46-.44,1.12-.65,1.97-.65s1.51.22,1.97.65.7.96.7,1.58c0,.28-.06.58-.18.89s-.39.59-.8.83c.42.23.74.54.95.93s.32.82.32,1.29c0,.71-.26,1.32-.79,1.83-.53.5-1.27.75-2.22.75s-1.67-.25-2.16-.75c-.49-.5-.73-1.11-.73-1.83,0-.48.11-.91.32-1.29Zm1.74,2.16c.22.23.52.35.9.35s.68-.12.9-.35.33-.55.33-.97-.11-.76-.33-.99-.52-.34-.89-.34-.67.11-.89.34-.33.55-.33.99.11.74.33.97Zm.11-3.87c.19.2.45.29.79.29s.6-.1.79-.29c.19-.2.28-.45.28-.76,0-.34-.09-.6-.28-.79-.19-.19-.45-.28-.79-.28s-.6.09-.79.28c-.19.19-.29.45-.29.79,0,.31.09.56.29.76Z"/></g><g class="cls-21"><path d="m704,229.77c.21-.39.53-.68.95-.87-.41-.27-.68-.57-.8-.89-.12-.32-.19-.62-.19-.89,0-.62.23-1.14.7-1.58.46-.44,1.12-.65,1.97-.65s1.51.22,1.97.65.7.96.7,1.58c0,.28-.06.58-.18.89s-.39.59-.8.83c.42.23.74.54.95.93s.32.82.32,1.29c0,.71-.26,1.32-.79,1.83-.53.5-1.27.75-2.22.75s-1.67-.25-2.16-.75c-.49-.5-.73-1.11-.73-1.83,0-.48.11-.91.32-1.29Zm1.74,2.16c.22.23.52.35.9.35s.68-.12.9-.35.33-.55.33-.97-.11-.76-.33-.99-.52-.34-.89-.34-.67.11-.89.34-.33.55-.33.99.11.74.33.97Zm.11-3.87c.19.2.45.29.79.29s.6-.1.79-.29c.19-.2.28-.45.28-.76,0-.34-.09-.6-.28-.79-.19-.19-.45-.28-.79-.28s-.6.09-.79.28c-.19.19-.29.45-.29.79,0,.31.09.56.29.76Z"/></g><g class="cls-21"><path d="m844.34,422.78c.21-.39.53-.68.95-.87-.41-.27-.68-.57-.8-.89-.12-.32-.19-.62-.19-.89,0-.62.23-1.14.7-1.58.46-.44,1.12-.65,1.97-.65s1.51.22,1.97.65.7.96.7,1.58c0,.28-.06.58-.18.89s-.39.59-.8.83c.42.23.74.54.95.93s.32.82.32,1.29c0,.71-.26,1.32-.79,1.83-.53.5-1.27.75-2.22.75s-1.67-.25-2.16-.75c-.49-.5-.73-1.11-.73-1.83,0-.48.11-.91.32-1.29Zm1.74,2.16c.22.23.52.35.9.35s.68-.12.9-.35.33-.55.33-.97-.11-.76-.33-.99-.52-.34-.89-.34-.67.11-.89.34-.33.55-.33.99.11.74.33.97Zm.11-3.87c.19.2.45.29.79.29s.6-.1.79-.29c.19-.2.28-.45.28-.76,0-.34-.09-.6-.28-.79-.19-.19-.45-.28-.79-.28s-.6.09-.79.28c-.19.19-.29.45-.29.79,0,.31.09.56.29.76Z"/></g><g class="cls-21"><path d="m984.68,413.38c.21-.39.53-.68.95-.87-.41-.27-.68-.57-.8-.89-.12-.32-.19-.62-.19-.89,0-.62.23-1.14.7-1.58.46-.44,1.12-.65,1.97-.65s1.51.22,1.97.65.7.96.7,1.58c0,.28-.06.58-.18.89s-.39.59-.8.83c.42.23.74.54.95.93s.32.82.32,1.29c0,.71-.26,1.32-.79,1.83-.53.5-1.27.75-2.22.75s-1.67-.25-2.16-.75c-.49-.5-.73-1.11-.73-1.83,0-.48.11-.91.32-1.29Zm1.74,2.16c.22.23.52.35.9.35s.68-.12.9-.35.33-.55.33-.97-.11-.76-.33-.99-.52-.34-.89-.34-.67.11-.89.34-.33.55-.33.99.11.74.33.97Zm.11-3.87c.19.2.45.29.79.29s.6-.1.79-.29c.19-.2.28-.45.28-.76,0-.34-.09-.6-.28-.79-.19-.19-.45-.28-.79-.28s-.6.09-.79.28c-.19.19-.29.45-.29.79,0,.31.09.56.29.76Z"/></g><g class="cls-21"><path d="m148.77,285.12c.53-.56,1.21-.85,2.05-.85,1.29,0,2.18.57,2.66,1.72.27.65.41,1.5.41,2.56s-.13,1.88-.39,2.57c-.5,1.31-1.42,1.96-2.75,1.96-.64,0-1.21-.19-1.72-.57s-.8-.93-.87-1.65h1.66c.04.25.14.45.32.61s.4.23.69.23c.55,0,.94-.3,1.16-.91.12-.34.2-.83.23-1.47-.15.19-.31.34-.49.44-.31.19-.7.28-1.15.28-.68,0-1.28-.23-1.8-.7s-.79-1.14-.79-2.02.26-1.65.79-2.21Zm2.81,3.37c.38-.24.57-.66.57-1.26,0-.48-.11-.86-.34-1.14s-.53-.42-.92-.42c-.29,0-.53.08-.73.24-.32.25-.48.67-.48,1.27,0,.5.1.88.31,1.13s.52.38.95.38c.23,0,.45-.07.65-.2Z"/></g><g class="cls-21"><path d="m289.11,183.19c.53-.56,1.21-.85,2.05-.85,1.29,0,2.18.57,2.66,1.72.27.65.41,1.5.41,2.56s-.13,1.88-.39,2.57c-.5,1.31-1.42,1.96-2.75,1.96-.64,0-1.21-.19-1.72-.57s-.8-.93-.87-1.65h1.66c.04.25.14.45.32.61s.4.23.69.23c.55,0,.94-.3,1.16-.91.12-.34.2-.83.23-1.47-.15.19-.31.34-.49.44-.31.19-.7.28-1.15.28-.68,0-1.28-.23-1.8-.7s-.79-1.14-.79-2.02.26-1.65.79-2.21Zm2.81,3.37c.38-.24.57-.66.57-1.26,0-.48-.11-.86-.34-1.14s-.53-.42-.92-.42c-.29,0-.53.08-.73.24-.32.25-.48.67-.48,1.27,0,.5.1.88.31,1.13s.52.38.95.38c.23,0,.45-.07.65-.2Z"/></g><g class="cls-21"><path d="m429.45,318.79c.53-.56,1.21-.85,2.05-.85,1.29,0,2.18.57,2.66,1.72.27.65.41,1.5.41,2.56s-.13,1.88-.39,2.57c-.5,1.31-1.42,1.96-2.75,1.96-.64,0-1.21-.19-1.72-.57s-.8-.93-.87-1.65h1.66c.04.25.14.45.32.61s.4.23.69.23c.55,0,.94-.3,1.16-.91.12-.34.2-.83.23-1.47-.15.19-.31.34-.49.44-.31.19-.7.28-1.15.28-.68,0-1.28-.23-1.8-.7s-.79-1.14-.79-2.02.26-1.65.79-2.21Zm2.81,3.37c.38-.24.57-.66.57-1.26,0-.48-.11-.86-.34-1.14s-.53-.42-.92-.42c-.29,0-.53.08-.73.24-.32.25-.48.67-.48,1.27,0,.5.1.88.31,1.13s.52.38.95.38c.23,0,.45-.07.65-.2Z"/></g><g class="cls-21"><path d="m569.79,400.94c.53-.56,1.21-.85,2.05-.85,1.29,0,2.18.57,2.66,1.72.27.65.41,1.5.41,2.56s-.13,1.88-.39,2.57c-.5,1.31-1.42,1.96-2.75,1.96-.64,0-1.21-.19-1.72-.57s-.8-.93-.87-1.65h1.66c.04.25.14.45.32.61s.4.23.69.23c.55,0,.94-.3,1.16-.91.12-.34.2-.83.23-1.47-.15.19-.31.34-.49.44-.31.19-.7.28-1.15.28-.68,0-1.28-.23-1.8-.7s-.79-1.14-.79-2.02.26-1.65.79-2.21Zm2.81,3.37c.38-.24.57-.66.57-1.26,0-.48-.11-.86-.34-1.14s-.53-.42-.92-.42c-.29,0-.53.08-.73.24-.32.25-.48.67-.48,1.27,0,.5.1.88.31,1.13s.52.38.95.38c.23,0,.45-.07.65-.2Z"/></g><g class="cls-21"><path d="m710.13,349.59c.53-.56,1.21-.85,2.05-.85,1.29,0,2.18.57,2.66,1.72.27.65.41,1.5.41,2.56s-.13,1.88-.39,2.57c-.5,1.31-1.42,1.96-2.75,1.96-.64,0-1.21-.19-1.72-.57s-.8-.93-.87-1.65h1.66c.04.25.14.45.32.61s.4.23.69.23c.55,0,.94-.3,1.16-.91.12-.34.2-.83.23-1.47-.15.19-.31.34-.49.44-.31.19-.7.28-1.15.28-.68,0-1.28-.23-1.8-.7s-.79-1.14-.79-2.02.26-1.65.79-2.21Zm2.81,3.37c.38-.24.57-.66.57-1.26,0-.48-.11-.86-.34-1.14s-.53-.42-.92-.42c-.29,0-.53.08-.73.24-.32.25-.48.67-.48,1.27,0,.5.1.88.31,1.13s.52.38.95.38c.23,0,.45-.07.65-.2Z"/></g><g class="cls-21"><path d="m850.46,382.71c.53-.56,1.21-.85,2.05-.85,1.29,0,2.18.57,2.66,1.72.27.65.41,1.5.41,2.56s-.13,1.88-.39,2.57c-.5,1.31-1.42,1.96-2.75,1.96-.64,0-1.21-.19-1.72-.57s-.8-.93-.87-1.65h1.66c.04.25.14.45.32.61s.4.23.69.23c.55,0,.94-.3,1.16-.91.12-.34.2-.83.23-1.47-.15.19-.31.34-.49.44-.31.19-.7.28-1.15.28-.68,0-1.28-.23-1.8-.7s-.79-1.14-.79-2.02.26-1.65.79-2.21Zm2.81,3.37c.38-.24.57-.66.57-1.26,0-.48-.11-.86-.34-1.14s-.53-.42-.92-.42c-.29,0-.53.08-.73.24-.32.25-.48.67-.48,1.27,0,.5.1.88.31,1.13s.52.38.95.38c.23,0,.45-.07.65-.2Z"/></g><g class="cls-21"><path d="m990.8,400.73c.53-.56,1.21-.85,2.05-.85,1.29,0,2.18.57,2.66,1.72.27.65.41,1.5.41,2.56s-.13,1.88-.39,2.57c-.5,1.31-1.42,1.96-2.75,1.96-.64,0-1.21-.19-1.72-.57s-.8-.93-.87-1.65h1.66c.04.25.14.45.32.61s.4.23.69.23c.55,0,.94-.3,1.16-.91.12-.34.2-.83.23-1.47-.15.19-.31.34-.49.44-.31.19-.7.28-1.15.28-.68,0-1.28-.23-1.8-.7s-.79-1.14-.79-2.02.26-1.65.79-2.21Zm2.81,3.37c.38-.24.57-.66.57-1.26,0-.48-.11-.86-.34-1.14s-.53-.42-.92-.42c-.29,0-.53.08-.73.24-.32.25-.48.67-.48,1.27,0,.5.1.88.31,1.13s.52.38.95.38c.23,0,.45-.07.65-.2Z"/></g><rect class="cls-22" x="1025.15" y="39.6" width="8.64" height="7.2"/><rect class="cls-11" x="1025.15" y="54" width="8.64" height="7.2"/><rect class="cls-19" x="1025.15" y="68.4" width="8.64" height="7.2"/><rect class="cls-24" x="1025.15" y="82.8" width="8.64" height="7.2"/><rect class="cls-17" x="1025.15" y="97.2" width="8.64" height="7.2"/><path class="cls-18" d="m1025.69,115.2c0-4.45,3.64-8.1,8.1-8.1s8.1,3.65,8.1,8.1-3.65,8.1-8.1,8.1-8.1-3.65-8.1-8.1"/><path class="cls-5" d="m1025.69,115.2c0-4.45,3.64-8.1,8.1-8.1s8.1,3.65,8.1,8.1-3.65,8.1-8.1,8.1-8.1-3.65-8.1-8.1"/><rect class="cls-18" x="1026.61" y="122.42" width="14.36" height="14.36"/><rect class="cls-5" x="1026.61" y="122.42" width="14.36" height="14.36"/><path d="m1049.51,41.57c.44.34.71.94.8,1.78h-1.03c-.06-.39-.21-.71-.43-.96s-.58-.38-1.07-.38c-.67,0-1.15.33-1.44.98-.19.43-.28.95-.28,1.58s.13,1.16.4,1.59.68.64,1.25.64c.44,0,.78-.13,1.04-.4s.43-.63.53-1.1h1.03c-.12.83-.41,1.44-.88,1.83s-1.07.58-1.8.58c-.82,0-1.47-.3-1.96-.9s-.73-1.35-.73-2.25c0-1.1.27-1.96.8-2.57s1.22-.92,2.04-.92c.71,0,1.28.17,1.73.52Z"/><path d="m1051.36,38.87h1.05v3.21c.25-.32.47-.54.67-.67.34-.22.76-.33,1.27-.33.91,0,1.53.32,1.85.96.18.35.26.83.26,1.45v4.03h-1.08v-3.96c0-.46-.06-.8-.18-1.01-.19-.34-.55-.52-1.08-.52-.44,0-.83.15-1.19.45s-.53.87-.53,1.71v3.33h-1.05v-8.64Z"/><path d="m1058.07,41.23h1v1.08c.08-.21.28-.47.6-.77s.69-.45,1.11-.45c.02,0,.05,0,.1,0s.13.01.24.02v1.11c-.06-.01-.12-.02-.17-.02s-.11,0-.17,0c-.53,0-.94.17-1.22.51s-.43.74-.43,1.18v3.61h-1.05v-6.28Z"/><path d="m1062.41,41.57v-.81c.76-.07,1.29-.2,1.59-.37s.53-.58.67-1.23h.83v8.36h-1.12v-5.94h-1.97Z"/><path d="m1073.54,40.46c.38.69.56,1.64.56,2.84,0,1.14-.17,2.08-.51,2.83-.49,1.07-1.3,1.61-2.41,1.61-1.01,0-1.76-.44-2.25-1.31-.41-.73-.62-1.71-.62-2.94,0-.95.12-1.77.37-2.46.46-1.27,1.29-1.91,2.5-1.91,1.09,0,1.87.45,2.36,1.34Zm-1.06,5.59c.32-.48.49-1.39.49-2.71,0-.95-.12-1.74-.35-2.35s-.69-.92-1.37-.92c-.62,0-1.08.29-1.36.88s-.43,1.44-.43,2.58c0,.86.09,1.54.28,2.06.28.79.76,1.19,1.44,1.19.55,0,.98-.24,1.31-.73Z"/><path d="m1049.51,55.97c.44.34.71.94.8,1.78h-1.03c-.06-.39-.21-.71-.43-.96s-.58-.38-1.07-.38c-.67,0-1.15.33-1.44.98-.19.43-.28.95-.28,1.58s.13,1.16.4,1.59.68.64,1.25.64c.44,0,.78-.13,1.04-.4s.43-.63.53-1.1h1.03c-.12.83-.41,1.44-.88,1.83s-1.07.58-1.8.58c-.82,0-1.47-.3-1.96-.9s-.73-1.35-.73-2.25c0-1.1.27-1.96.8-2.57s1.22-.92,2.04-.92c.71,0,1.28.17,1.73.52Z"/><path d="m1051.36,53.27h1.05v3.21c.25-.32.47-.54.67-.67.34-.22.76-.33,1.27-.33.91,0,1.53.32,1.85.96.18.35.26.83.26,1.45v4.03h-1.08v-3.96c0-.46-.06-.8-.18-1.01-.19-.34-.55-.52-1.08-.52-.44,0-.83.15-1.19.45s-.53.87-.53,1.71v3.33h-1.05v-8.64Z"/><path d="m1058.07,55.63h1v1.08c.08-.21.28-.47.6-.77s.69-.45,1.11-.45c.02,0,.05,0,.1,0s.13.01.24.02v1.11c-.06-.01-.12-.02-.17-.02s-.11,0-.17,0c-.53,0-.94.17-1.22.51s-.43.74-.43,1.18v3.61h-1.05v-6.28Z"/><path d="m1062.41,55.97v-.81c.76-.07,1.29-.2,1.59-.37s.53-.58.67-1.23h.83v8.36h-1.12v-5.94h-1.97Z"/><path d="m1069.08,55.97v-.81c.76-.07,1.29-.2,1.59-.37s.53-.58.67-1.23h.83v8.36h-1.12v-5.94h-1.97Z"/><path d="m1049.51,70.37c.44.34.71.94.8,1.78h-1.03c-.06-.39-.21-.71-.43-.96s-.58-.38-1.07-.38c-.67,0-1.15.33-1.44.98-.19.43-.28.95-.28,1.58s.13,1.16.4,1.59.68.64,1.25.64c.44,0,.78-.13,1.04-.4s.43-.63.53-1.1h1.03c-.12.83-.41,1.44-.88,1.83s-1.07.58-1.8.58c-.82,0-1.47-.3-1.96-.9s-.73-1.35-.73-2.25c0-1.1.27-1.96.8-2.57s1.22-.92,2.04-.92c.71,0,1.28.17,1.73.52Z"/><path d="m1051.36,67.67h1.05v3.21c.25-.32.47-.54.67-.67.34-.22.76-.33,1.27-.33.91,0,1.53.32,1.85.96.18.35.26.83.26,1.45v4.03h-1.08v-3.96c0-.46-.06-.8-.18-1.01-.19-.34-.55-.52-1.08-.52-.44,0-.83.15-1.19.45s-.53.87-.53,1.71v3.33h-1.05v-8.64Z"/><path d="m1058.07,70.03h1v1.08c.08-.21.28-.47.6-.77s.69-.45,1.11-.45c.02,0,.05,0,.1,0s.13.01.24.02v1.11c-.06-.01-.12-.02-.17-.02s-.11,0-.17,0c-.53,0-.94.17-1.22.51s-.43.74-.43,1.18v3.61h-1.05v-6.28Z"/><path d="m1067.54,68.06v.92c-.27.26-.63.72-1.08,1.37s-.84,1.35-1.19,2.1c-.34.73-.6,1.4-.77,2-.11.39-.26,1.01-.44,1.87h-1.17c.27-1.6.85-3.2,1.76-4.78.54-.93,1.1-1.73,1.69-2.41h-4.64v-1.06h5.84Z"/><path d="m1049.51,84.77c.44.34.71.94.8,1.78h-1.03c-.06-.39-.21-.71-.43-.96s-.58-.38-1.07-.38c-.67,0-1.15.33-1.44.98-.19.43-.28.95-.28,1.58s.13,1.16.4,1.59.68.64,1.25.64c.44,0,.78-.13,1.04-.4s.43-.63.53-1.1h1.03c-.12.83-.41,1.44-.88,1.83s-1.07.58-1.8.58c-.82,0-1.47-.3-1.96-.9s-.73-1.35-.73-2.25c0-1.1.27-1.96.8-2.57s1.22-.92,2.04-.92c.71,0,1.28.17,1.73.52Z"/><path d="m1051.36,82.07h1.05v3.21c.25-.32.47-.54.67-.67.34-.22.76-.33,1.27-.33.91,0,1.53.32,1.85.96.18.35.26.83.26,1.45v4.03h-1.08v-3.96c0-.46-.06-.8-.18-1.01-.19-.34-.55-.52-1.08-.52-.44,0-.83.15-1.19.45s-.53.87-.53,1.71v3.33h-1.05v-8.64Z"/><path d="m1058.07,84.43h1v1.08c.08-.21.28-.47.6-.77s.69-.45,1.11-.45c.02,0,.05,0,.1,0s.13.01.24.02v1.11c-.06-.01-.12-.02-.17-.02s-.11,0-.17,0c-.53,0-.94.17-1.22.51s-.43.74-.43,1.18v3.61h-1.05v-6.28Z"/><path d="m1062.4,85.8c-.31-.31-.46-.72-.46-1.22,0-.62.23-1.16.68-1.61s1.1-.67,1.93-.67,1.44.21,1.89.64.69.92.69,1.49c0,.52-.13.95-.4,1.27-.15.18-.38.36-.69.54.35.16.62.34.82.55.37.39.56.9.56,1.52,0,.74-.25,1.36-.74,1.88s-1.2.77-2.1.77c-.82,0-1.51-.22-2.07-.67s-.85-1.09-.85-1.93c0-.5.12-.92.36-1.29s.6-.64,1.08-.83c-.29-.12-.52-.27-.69-.44Zm3.4,3.79c.32-.26.48-.66.48-1.18s-.17-.96-.5-1.24-.76-.42-1.28-.42-.92.14-1.23.43-.48.68-.48,1.19c0,.44.15.82.44,1.13s.74.48,1.35.48c.49,0,.89-.13,1.22-.4Zm-.19-4.15c.26-.26.39-.57.39-.93,0-.31-.12-.6-.38-.86s-.63-.39-1.14-.39-.88.13-1.1.39-.34.57-.34.92c0,.39.15.7.44.93s.64.33,1.04.33c.46,0,.83-.13,1.09-.39Z"/><path d="m1049.51,99.17c.44.34.71.94.8,1.78h-1.03c-.06-.39-.21-.71-.43-.96s-.58-.38-1.07-.38c-.67,0-1.15.33-1.44.98-.19.43-.28.95-.28,1.58s.13,1.16.4,1.59.68.64,1.25.64c.44,0,.78-.13,1.04-.4s.43-.63.53-1.1h1.03c-.12.83-.41,1.44-.88,1.83s-1.07.58-1.8.58c-.82,0-1.47-.3-1.96-.9s-.73-1.35-.73-2.25c0-1.1.27-1.96.8-2.57s1.22-.92,2.04-.92c.71,0,1.28.17,1.73.52Z"/><path d="m1051.36,96.47h1.05v3.21c.25-.32.47-.54.67-.67.34-.22.76-.33,1.27-.33.91,0,1.53.32,1.85.96.18.35.26.83.26,1.45v4.03h-1.08v-3.96c0-.46-.06-.8-.18-1.01-.19-.34-.55-.52-1.08-.52-.44,0-.83.15-1.19.45s-.53.87-.53,1.71v3.33h-1.05v-8.64Z"/><path d="m1058.07,98.83h1v1.08c.08-.21.28-.47.6-.77s.69-.45,1.11-.45c.02,0,.05,0,.1,0s.13.01.24.02v1.11c-.06-.01-.12-.02-.17-.02s-.11,0-.17,0c-.53,0-.94.17-1.22.51s-.43.74-.43,1.18v3.61h-1.05v-6.28Z"/><path d="m1062.85,103.08c.03.58.26.98.67,1.21.21.12.46.18.73.18.5,0,.93-.21,1.29-.63s.61-1.27.76-2.56c-.23.37-.52.63-.87.78s-.72.23-1.12.23c-.81,0-1.45-.25-1.92-.76s-.71-1.15-.71-1.95.23-1.43.7-2.01,1.15-.87,2.06-.87c1.22,0,2.07.55,2.53,1.65.26.61.39,1.36.39,2.27,0,1.03-.15,1.94-.46,2.73-.51,1.32-1.38,1.98-2.6,1.98-.82,0-1.44-.21-1.87-.64s-.64-.97-.64-1.62h1.07Zm2.75-2.14c.35-.28.52-.76.52-1.44,0-.62-.16-1.08-.47-1.38s-.71-.45-1.19-.45c-.52,0-.92.17-1.23.52s-.45.81-.45,1.39c0,.55.13.98.4,1.3s.69.48,1.27.48c.42,0,.8-.14,1.15-.41Z"/><path d="m1045.74,113.57v-.81c.76-.07,1.29-.2,1.59-.37s.53-.58.67-1.23h.83v8.36h-1.12v-5.94h-1.97Z"/><path d="m1056.87,112.46c.38.69.56,1.64.56,2.84,0,1.14-.17,2.08-.51,2.83-.49,1.07-1.3,1.61-2.41,1.61-1.01,0-1.76-.44-2.25-1.31-.41-.73-.62-1.71-.62-2.94,0-.95.12-1.77.37-2.46.46-1.27,1.29-1.91,2.5-1.91,1.09,0,1.87.45,2.36,1.34Zm-1.06,5.59c.32-.48.49-1.39.49-2.71,0-.95-.12-1.74-.35-2.35s-.69-.92-1.37-.92c-.62,0-1.08.29-1.36.88s-.43,1.44-.43,2.58c0,.86.09,1.54.28,2.06.28.79.76,1.19,1.44,1.19.55,0,.98-.24,1.31-.73Z"/><path d="m1061.81,111.97c.4.4.6.88.6,1.44s-.2,1.04-.6,1.44-.88.6-1.45.6-1.04-.2-1.44-.6-.6-.88-.6-1.44.2-1.04.6-1.44.88-.6,1.44-.6,1.05.2,1.45.6Zm-.59,2.3c.24-.24.35-.52.35-.85s-.12-.62-.35-.85-.52-.35-.86-.35-.62.12-.85.35-.35.52-.35.86.12.62.35.85.52.35.85.35.62-.12.86-.35Zm4.05-3.11h.65l-4.69,8.58h-.65l4.69-8.58Zm2.29,4.88c.4.4.6.88.6,1.44s-.2,1.04-.6,1.44-.88.6-1.44.6-1.05-.2-1.45-.6-.6-.88-.6-1.44.2-1.04.6-1.44.88-.6,1.45-.6,1.04.2,1.44.6Zm-.59,2.29c.24-.24.35-.52.35-.85s-.12-.62-.35-.85-.52-.35-.85-.35-.62.12-.86.35-.35.52-.35.85.12.62.35.85.52.35.86.35.62-.12.85-.35Z"/><path d="m1046.07,131.77c.07.6.35,1.02.84,1.25.25.12.54.18.87.18.62,0,1.09-.2,1.39-.6s.45-.84.45-1.32c0-.59-.18-1.04-.54-1.36s-.79-.48-1.29-.48c-.36,0-.67.07-.93.21s-.48.34-.67.59l-.91-.05.64-4.52h4.36v1.02h-3.57l-.36,2.33c.2-.15.38-.26.56-.33.31-.13.67-.19,1.08-.19.77,0,1.42.25,1.96.74s.8,1.12.8,1.89-.25,1.49-.74,2.1-1.27.91-2.35.91c-.68,0-1.29-.19-1.81-.58s-.82-.98-.88-1.77h1.1Z"/><path d="m1055.14,126.37c.4.4.6.88.6,1.44s-.2,1.04-.6,1.44-.88.6-1.45.6-1.04-.2-1.44-.6-.6-.88-.6-1.44.2-1.04.6-1.44.88-.6,1.44-.6,1.05.2,1.45.6Zm-.59,2.3c.24-.24.35-.52.35-.85s-.12-.62-.35-.85-.52-.35-.86-.35-.62.12-.85.35-.35.52-.35.86.12.62.35.85.52.35.85.35.62-.12.86-.35Zm4.05-3.11h.65l-4.69,8.58h-.65l4.69-8.58Zm2.29,4.88c.4.4.6.88.6,1.44s-.2,1.04-.6,1.44-.88.6-1.44.6-1.05-.2-1.45-.6-.6-.88-.6-1.44.2-1.04.6-1.44.88-.6,1.45-.6,1.04.2,1.44.6Zm-.59,2.29c.24-.24.35-.52.35-.85s-.12-.62-.35-.85-.52-.35-.85-.35-.62.12-.86.35-.35.52-.35.85.12.62.35.85.52.35.86.35.62-.12.85-.35Z"/></g></svg>