<?xml version="1.0" encoding="UTF-8"?><svg id="Layer_1" xmlns="http://www.w3.org/2000/svg" xmlns:xlink="http://www.w3.org/1999/xlink" viewBox="0 0 720 576"><defs><style>.cls-1{fill:#fdae61;}.cls-2{fill:#3288bd;}.cls-3{clip-path:url(#clippath-2);}.cls-4{stroke:#000;}.cls-4,.cls-5,.cls-6{fill:none;}.cls-4,.cls-6{stroke-linecap:round;stroke-linejoin:round;stroke-width:.75px;}.cls-7{fill:#fee08b;}.cls-8{clip-path:url(#clippath-1);}.cls-9{clip-path:url(#clippath-4);}.cls-10{fill:#abdda4;}.cls-11{fill:#66c2a5;}.cls-12{fill:#e6f598;}.cls-13{clip-path:url(#clippath);}.cls-14{fill:#f46d43;}.cls-15{clip-path:url(#clippath-3);}.cls-6{stroke:#d3d3d3;stroke-dasharray:0 0 0 3;}</style><clipPath id="clippath"><rect class="cls-5" x="14.4" y="14.4" width="705.6" height="561.6"/></clipPath><clipPath id="clippath-1"><rect class="cls-5" x="73.44" y="30.24" width="630.72" height="515.52"/></clipPath><clipPath id="clippath-2"><rect class="cls-5" x="14.4" y="14.4" width="705.6" height="561.6"/></clipPath><clipPath id="clippath-3"><rect class="cls-5" x="73.44" y="30.24" width="630.72" height="515.52"/></clipPath><clipPath id="clippath-4"><rect class="cls-5" x="73.44" y="30.24" width="630.72" height="515.52"/></clipPath></defs><g class="cls-13"><path d="m21.42,321.46c.34-.44.94-.71,1.78-.8v1.03c-.39.06-.71.21-.96.43s-.38.58-.38,1.07c0,.67.33,1.15.98,1.44.43.19.95.28,1.58.28s1.16-.13,1.59-.4.64-.68.64-1.25c0-.44-.13-.79-.4-1.04s-.63-.43-1.1-.53v-1.03c.83.12,1.44.41,1.83.88s.58,1.07.58,1.8c0,.82-.3,1.47-.9,1.96s-1.35.73-2.25.73c-1.1,0-1.96-.27-2.57-.8s-.92-1.22-.92-2.04c0-.71.17-1.28.52-1.73Z"/><path d="m21.71,315.03c.54-.56,1.33-.84,2.38-.84s1.85.25,2.51.74.99,1.26.99,2.29c0,.86-.29,1.55-.88,2.06s-1.37.76-2.35.76c-1.05,0-1.89-.27-2.52-.8s-.94-1.25-.94-2.16c0-.81.27-1.49.81-2.05Zm4.17.65c-.53-.26-1.12-.39-1.77-.39-.59,0-1.06.09-1.43.28-.58.3-.87.81-.87,1.54,0,.64.25,1.11.74,1.41s1.09.44,1.78.44,1.22-.15,1.67-.44.67-.76.67-1.39c0-.7-.26-1.18-.79-1.44Z"/><path d="m21.08,312.6l5.11-1.68-5.11-1.75v-1.15l6.28,2.37v1.12l-6.28,2.31v-1.22Z"/><path d="m21.26,303.5c.21-.42.48-.74.81-.96.32-.21.69-.35,1.11-.42.29-.06.75-.09,1.38-.09v4.6c.64-.02,1.15-.17,1.53-.45s.58-.72.58-1.31c0-.55-.18-.99-.54-1.32-.21-.19-.46-.32-.73-.4v-1.04c.23.03.49.12.77.27s.51.33.69.52c.31.32.52.72.63,1.19.06.25.09.54.09.86,0,.78-.28,1.44-.85,1.99s-1.36.81-2.39.81-1.83-.27-2.46-.82-.94-1.26-.94-2.14c0-.45.1-.88.31-1.29Zm2.46-.39c-.46.04-.82.14-1.1.3-.51.29-.76.77-.76,1.45,0,.48.17.89.52,1.22s.79.5,1.33.52v-3.49Z"/><path d="m21.08,300.71v-1h1.08c-.21-.08-.47-.28-.77-.6s-.45-.69-.45-1.11c0-.02,0-.05,0-.1s.01-.13.02-.24h1.11c-.01.06-.02.12-.02.17s0,.11,0,.17c0,.53.17.94.51,1.22s.74.43,1.18.43h3.61v1.05h-6.28Z"/><path d="m23.56,293.5c-.03-.24-.13-.4-.3-.49-.09-.05-.23-.07-.4-.07-.36,0-.62.13-.78.38s-.24.62-.24,1.1c0,.55.15.94.45,1.17.16.13.41.21.73.25v.98c-.77-.02-1.31-.27-1.61-.75s-.45-1.04-.45-1.68c0-.74.14-1.34.42-1.8.28-.46.72-.69,1.31-.69h3.62c.11,0,.2-.02.26-.07s.1-.14.1-.28c0-.05,0-.1,0-.16s-.01-.12-.03-.19h.78c.05.16.08.29.09.38s.02.2.02.35c0,.36-.13.63-.39.79-.14.09-.33.15-.58.18.28.21.53.52.73.93s.31.85.31,1.33c0,.58-.18,1.06-.53,1.43s-.8.55-1.33.55c-.58,0-1.03-.18-1.35-.54s-.52-.84-.59-1.43l-.21-1.68Zm2.85,2.22c.18-.22.26-.49.26-.79,0-.37-.09-.73-.26-1.08-.29-.59-.75-.88-1.4-.88h-.85c.08.13.15.29.21.5s.09.4.12.6l.08.64c.05.38.13.67.24.86.18.32.48.49.88.49.3,0,.54-.11.72-.33Z"/><path d="m21.34,286.69c.14-.2.34-.4.6-.61h-.79v-.97h5.71c.8,0,1.43.12,1.89.35.85.44,1.28,1.26,1.28,2.48,0,.68-.15,1.24-.45,1.71s-.78.72-1.42.77v-1.07c.28-.05.5-.15.65-.3.23-.24.35-.61.35-1.12,0-.81-.29-1.34-.86-1.59-.34-.15-.94-.22-1.8-.21.32.21.56.46.71.76s.23.69.23,1.18c0,.68-.24,1.27-.72,1.78s-1.28.76-2.39.76c-1.05,0-1.87-.26-2.46-.77s-.88-1.13-.88-1.86c0-.49.12-.92.36-1.29Zm1.13-.13c-.38.32-.56.73-.56,1.22,0,.74.35,1.25,1.04,1.52.37.14.86.22,1.46.22.71,0,1.25-.14,1.61-.43s.55-.67.55-1.16c0-.76-.34-1.29-1.03-1.6-.39-.17-.84-.26-1.35-.26-.78,0-1.35.16-1.73.48Z"/><path d="m21.26,279.61c.21-.42.48-.74.81-.96.32-.21.69-.35,1.11-.42.29-.06.75-.09,1.38-.09v4.6c.64-.02,1.15-.17,1.53-.45s.58-.72.58-1.31c0-.55-.18-.99-.54-1.32-.21-.19-.46-.32-.73-.4v-1.04c.23.03.49.12.77.27s.51.33.69.52c.31.32.52.72.63,1.19.06.25.09.54.09.86,0,.78-.28,1.44-.85,1.99s-1.36.81-2.39.81-1.83-.27-2.46-.82-.94-1.26-.94-2.14c0-.45.1-.88.31-1.29Zm2.46-.39c-.46.04-.82.14-1.1.3-.51.29-.76.77-.76,1.45,0,.48.17.89.52,1.22s.79.5,1.33.52v-3.49Z"/><path d="m18.61,270.73c1.19.61,2.07,1.01,2.63,1.2.86.28,1.84.42,2.96.42s2.17-.16,3.11-.47c.58-.2,1.41-.58,2.5-1.15v.71c-.89.57-1.46.92-1.71,1.06s-.58.29-1,.45c-.58.22-1.2.37-1.85.46-.34.04-.66.06-.97.06-1.16,0-2.19-.18-3.09-.54-.57-.23-1.43-.71-2.58-1.44v-.73Z"/><path d="m18.75,269.4v-1.67l7.28-2.47-7.28-2.46v-1.65h8.61v1.11h-5.08c-.18,0-.47,0-.87-.01s-.84-.01-1.31-.01l7.26,2.46v1.15l-7.26,2.47h.26c.21,0,.53,0,.96-.01s.75-.01.95-.01h5.08v1.11h-8.61Z"/><path d="m18.72,259.6v-1.03h3.12c-.3-.23-.53-.51-.69-.83s-.24-.67-.24-1.04c0-.78.27-1.42.81-1.9s1.33-.73,2.38-.73c.99,0,1.82.24,2.47.72s.98,1.15.98,2c0,.48-.12.88-.35,1.21-.14.2-.36.4-.66.63h.8v.97h-8.64Zm7.22-4.02c-.45-.28-1.05-.42-1.79-.42-.66,0-1.21.14-1.64.42s-.65.7-.65,1.25c0,.48.18.9.53,1.26s.94.54,1.76.54c.59,0,1.07-.07,1.44-.22.69-.28,1.04-.79,1.04-1.55,0-.57-.23-1-.68-1.28Z"/><path d="m29.81,253.2c-1.21-.62-2.09-1.02-2.65-1.2-.84-.27-1.82-.41-2.95-.41s-2.16.16-3.1.47c-.58.2-1.41.58-2.5,1.15v-.71c.96-.6,1.55-.97,1.78-1.09s.53-.26.93-.41c.49-.19.97-.32,1.45-.4s.94-.12,1.38-.12c1.16,0,2.19.18,3.09.55.58.23,1.44.71,2.57,1.44v.73Z"/></g><g class="cls-8"><line class="cls-6" x1="73.44" y1="527.35" x2="704.16" y2="527.35"/><line class="cls-6" x1="73.44" y1="523.67" x2="704.16" y2="523.67"/><line class="cls-6" x1="73.44" y1="519.98" x2="704.16" y2="519.98"/><line class="cls-6" x1="73.44" y1="516.3" x2="704.16" y2="516.3"/><line class="cls-6" x1="73.44" y1="512.62" x2="704.16" y2="512.62"/><line class="cls-6" x1="73.44" y1="508.94" x2="704.16" y2="508.94"/><line class="cls-6" x1="73.44" y1="505.25" x2="704.16" y2="505.25"/><line class="cls-6" x1="73.44" y1="501.57" x2="704.16" y2="501.57"/><line class="cls-6" x1="73.44" y1="497.89" x2="704.16" y2="497.89"/><line class="cls-6" x1="73.44" y1="494.21" x2="704.16" y2="494.21"/><line class="cls-6" x1="73.44" y1="490.53" x2="704.16" y2="490.53"/><line class="cls-6" x1="73.44" y1="486.84" x2="704.16" y2="486.84"/><line class="cls-6" x1="73.44" y1="483.16" x2="704.16" y2="483.16"/><line class="cls-6" x1="73.44" y1="479.48" x2="704.16" y2="479.48"/><line class="cls-6" x1="73.44" y1="475.8" x2="704.16" y2="475.8"/><line class="cls-6" x1="73.44" y1="472.11" x2="704.16" y2="472.11"/><line class="cls-6" x1="73.44" y1="468.43" x2="704.16" y2="468.43"/><line class="cls-6" x1="73.44" y1="464.75" x2="704.16" y2="464.75"/><line class="cls-6" x1="73.44" y1="461.07" x2="704.16" y2="461.07"/><line class="cls-6" x1="73.44" y1="457.39" x2="704.16" y2="457.39"/><line class="cls-6" x1="73.44" y1="453.7" x2="704.16" y2="453.7"/><line class="cls-6" x1="73.44" y1="450.02" x2="704.16" y2="450.02"/><line class="cls-6" x1="73.44" y1="446.34" x2="704.16" y2="446.34"/><line class="cls-6" x1="73.44" y1="442.66" x2="704.16" y2="442.66"/><line class="cls-6" x1="73.44" y1="438.97" x2="704.16" y2="438.97"/><line class="cls-6" x1="73.44" y1="435.29" x2="704.16" y2="435.29"/><line class="cls-6" x1="73.44" y1="431.61" x2="704.16" y2="431.61"/><line class="cls-6" x1="73.44" y1="427.93" x2="704.16" y2="427.93"/><line class="cls-6" x1="73.44" y1="424.24" x2="704.16" y2="424.24"/><line class="cls-6" x1="73.44" y1="420.56" x2="704.16" y2="420.56"/><line class="cls-6" x1="73.44" y1="416.88" x2="704.16" y2="416.88"/><line class="cls-6" x1="73.44" y1="413.2" x2="704.16" y2="413.2"/><line class="cls-6" x1="73.44" y1="409.52" x2="704.16" y2="409.52"/><line class="cls-6" x1="73.44" y1="405.83" x2="704.16" y2="405.83"/><line class="cls-6" x1="73.44" y1="402.15" x2="704.16" y2="402.15"/><line class="cls-6" x1="73.44" y1="398.47" x2="704.16" y2="398.47"/><line class="cls-6" x1="73.44" y1="394.79" x2="704.16" y2="394.79"/><line class="cls-6" x1="73.44" y1="391.1" x2="704.16" y2="391.1"/><line class="cls-6" x1="73.44" y1="387.42" x2="704.16" y2="387.42"/><line class="cls-6" x1="73.44" y1="383.74" x2="704.16" y2="383.74"/><line class="cls-6" x1="73.44" y1="380.06" x2="704.16" y2="380.06"/><line class="cls-6" x1="73.44" y1="376.37" x2="704.16" y2="376.37"/><line class="cls-6" x1="73.44" y1="372.69" x2="704.16" y2="372.69"/><line class="cls-6" x1="73.44" y1="369.01" x2="704.16" y2="369.01"/><line class="cls-6" x1="73.44" y1="365.33" x2="704.16" y2="365.33"/><line class="cls-6" x1="73.44" y1="361.65" x2="704.16" y2="361.65"/><line class="cls-6" x1="73.44" y1="357.96" x2="704.16" y2="357.96"/><line class="cls-6" x1="73.44" y1="354.28" x2="704.16" y2="354.28"/><line class="cls-6" x1="73.44" y1="350.6" x2="704.16" y2="350.6"/><line class="cls-6" x1="73.44" y1="346.92" x2="704.16" y2="346.92"/><line class="cls-6" x1="73.44" y1="343.23" x2="704.16" y2="343.23"/><line class="cls-6" x1="73.44" y1="339.55" x2="704.16" y2="339.55"/><line class="cls-6" x1="73.44" y1="335.87" x2="704.16" y2="335.87"/><line class="cls-6" x1="73.44" y1="332.19" x2="704.16" y2="332.19"/><line class="cls-6" x1="73.44" y1="328.51" x2="704.16" y2="328.51"/><line class="cls-6" x1="73.44" y1="324.82" x2="704.16" y2="324.82"/><line class="cls-6" x1="73.44" y1="321.14" x2="704.16" y2="321.14"/><line class="cls-6" x1="73.44" y1="317.46" x2="704.16" y2="317.46"/><line class="cls-6" x1="73.44" y1="313.78" x2="704.16" y2="313.78"/><line class="cls-6" x1="73.44" y1="310.09" x2="704.16" y2="310.09"/><line class="cls-6" x1="73.44" y1="306.41" x2="704.16" y2="306.41"/><line class="cls-6" x1="73.44" y1="302.73" x2="704.16" y2="302.73"/><line class="cls-6" x1="73.44" y1="299.05" x2="704.16" y2="299.05"/><line class="cls-6" x1="73.44" y1="295.36" x2="704.16" y2="295.36"/><line class="cls-6" x1="73.44" y1="291.68" x2="704.16" y2="291.68"/><line class="cls-6" x1="73.44" y1="288" x2="704.16" y2="288"/><line class="cls-6" x1="73.44" y1="284.32" x2="704.16" y2="284.32"/><line class="cls-6" x1="73.44" y1="280.64" x2="704.16" y2="280.64"/><line class="cls-6" x1="73.44" y1="276.95" x2="704.16" y2="276.95"/><line class="cls-6" x1="73.44" y1="273.27" x2="704.16" y2="273.27"/><line class="cls-6" x1="73.44" y1="269.59" x2="704.16" y2="269.59"/><line class="cls-6" x1="73.44" y1="265.91" x2="704.16" y2="265.91"/><line class="cls-6" x1="73.44" y1="262.22" x2="704.16" y2="262.22"/><line class="cls-6" x1="73.44" y1="258.54" x2="704.16" y2="258.54"/><line class="cls-6" x1="73.44" y1="254.86" x2="704.16" y2="254.86"/><line class="cls-6" x1="73.44" y1="251.18" x2="704.16" y2="251.18"/><line class="cls-6" x1="73.44" y1="247.49" x2="704.16" y2="247.49"/><line class="cls-6" x1="73.44" y1="243.81" x2="704.16" y2="243.81"/><line class="cls-6" x1="73.44" y1="240.13" x2="704.16" y2="240.13"/><line class="cls-6" x1="73.44" y1="236.45" x2="704.16" y2="236.45"/><line class="cls-6" x1="73.44" y1="232.77" x2="704.16" y2="232.77"/><line class="cls-6" x1="73.44" y1="229.08" x2="704.16" y2="229.08"/><line class="cls-6" x1="73.44" y1="225.4" x2="704.16" y2="225.4"/><line class="cls-6" x1="73.44" y1="221.72" x2="704.16" y2="221.72"/><line class="cls-6" x1="73.44" y1="218.04" x2="704.16" y2="218.04"/><line class="cls-6" x1="73.44" y1="214.35" x2="704.16" y2="214.35"/><line class="cls-6" x1="73.44" y1="210.67" x2="704.16" y2="210.67"/><line class="cls-6" x1="73.44" y1="206.99" x2="704.16" y2="206.99"/><line class="cls-6" x1="73.44" y1="203.31" x2="704.16" y2="203.31"/><line class="cls-6" x1="73.44" y1="199.63" x2="704.16" y2="199.63"/><line class="cls-6" x1="73.44" y1="195.94" x2="704.16" y2="195.94"/><line class="cls-6" x1="73.44" y1="192.26" x2="704.16" y2="192.26"/><line class="cls-6" x1="73.44" y1="188.58" x2="704.16" y2="188.58"/><line class="cls-6" x1="73.44" y1="184.9" x2="704.16" y2="184.9"/><line class="cls-6" x1="73.44" y1="181.21" x2="704.16" y2="181.21"/><line class="cls-6" x1="73.44" y1="177.53" x2="704.16" y2="177.53"/><line class="cls-6" x1="73.44" y1="173.85" x2="704.16" y2="173.85"/><line class="cls-6" x1="73.44" y1="170.17" x2="704.16" y2="170.17"/><line class="cls-6" x1="73.44" y1="166.48" x2="704.16" y2="166.48"/><line class="cls-6" x1="73.44" y1="162.8" x2="704.16" y2="162.8"/><line class="cls-6" x1="73.44" y1="159.12" x2="704.16" y2="159.12"/><line class="cls-6" x1="73.44" y1="155.44" x2="704.16" y2="155.44"/><line class="cls-6" x1="73.44" y1="151.76" x2="704.16" y2="151.76"/><line class="cls-6" x1="73.44" y1="148.07" x2="704.16" y2="148.07"/><line class="cls-6" x1="73.44" y1="144.39" x2="704.16" y2="144.39"/><line class="cls-6" x1="73.44" y1="140.71" x2="704.16" y2="140.71"/><line class="cls-6" x1="73.44" y1="137.03" x2="704.16" y2="137.03"/><line class="cls-6" x1="73.44" y1="133.34" x2="704.16" y2="133.34"/><line class="cls-6" x1="73.44" y1="129.66" x2="704.16" y2="129.66"/><line class="cls-6" x1="73.44" y1="125.98" x2="704.16" y2="125.98"/><line class="cls-6" x1="73.44" y1="122.3" x2="704.16" y2="122.3"/><line class="cls-6" x1="73.44" y1="118.61" x2="704.16" y2="118.61"/><line class="cls-6" x1="73.44" y1="114.93" x2="704.16" y2="114.93"/><line class="cls-6" x1="73.44" y1="111.25" x2="704.16" y2="111.25"/><line class="cls-6" x1="73.44" y1="107.57" x2="704.16" y2="107.57"/><line class="cls-6" x1="73.44" y1="103.89" x2="704.16" y2="103.89"/><line class="cls-6" x1="73.44" y1="100.2" x2="704.16" y2="100.2"/><line class="cls-6" x1="73.44" y1="96.52" x2="704.16" y2="96.52"/><line class="cls-6" x1="73.44" y1="92.84" x2="704.16" y2="92.84"/><line class="cls-6" x1="73.44" y1="89.16" x2="704.16" y2="89.16"/><line class="cls-6" x1="73.44" y1="85.47" x2="704.16" y2="85.47"/><line class="cls-6" x1="73.44" y1="81.79" x2="704.16" y2="81.79"/><line class="cls-6" x1="73.44" y1="78.11" x2="704.16" y2="78.11"/><line class="cls-6" x1="73.44" y1="74.43" x2="704.16" y2="74.43"/><line class="cls-6" x1="73.44" y1="70.75" x2="704.16" y2="70.75"/><line class="cls-6" x1="73.44" y1="67.06" x2="704.16" y2="67.06"/><line class="cls-6" x1="73.44" y1="63.38" x2="704.16" y2="63.38"/><line class="cls-6" x1="73.44" y1="59.7" x2="704.16" y2="59.7"/><line class="cls-6" x1="73.44" y1="56.02" x2="704.16" y2="56.02"/><line class="cls-6" x1="73.44" y1="52.33" x2="704.16" y2="52.33"/><line class="cls-6" x1="73.44" y1="48.65" x2="704.16" y2="48.65"/><line class="cls-6" x1="73.44" y1="44.97" x2="704.16" y2="44.97"/><line class="cls-6" x1="73.44" y1="41.29" x2="704.16" y2="41.29"/><line class="cls-6" x1="73.44" y1="37.6" x2="704.16" y2="37.6"/><line class="cls-6" x1="73.44" y1="33.92" x2="704.16" y2="33.92"/><line class="cls-6" x1="73.44" y1="30.24" x2="704.16" y2="30.24"/></g><g class="cls-3"><rect class="cls-14" x="96.8" y="357.41" width="6.97" height="188.35"/><rect class="cls-4" x="96.8" y="357.41" width="6.97" height="188.35"/><rect class="cls-1" x="105.16" y="358.33" width="6.97" height="187.43"/><rect class="cls-4" x="105.16" y="358.33" width="6.97" height="187.43"/><rect class="cls-7" x="113.53" y="357.92" width="6.97" height="187.84"/><rect class="cls-4" x="113.53" y="357.92" width="6.97" height="187.84"/><rect class="cls-12" x="121.89" y="358.67" width="6.97" height="187.09"/><rect class="cls-4" x="121.89" y="358.67" width="6.97" height="187.09"/><rect class="cls-10" x="130.25" y="358.3" width="6.97" height="187.46"/><rect class="cls-4" x="130.25" y="358.3" width="6.97" height="187.46"/><rect class="cls-11" x="138.61" y="361.62" width="6.97" height="184.14"/><rect class="cls-4" x="138.61" y="361.62" width="6.97" height="184.14"/><rect class="cls-2" x="146.98" y="365.42" width="6.97" height="180.34"/><rect class="cls-4" x="146.98" y="365.42" width="6.97" height="180.34"/><rect class="cls-14" x="155.34" y="368.68" width="6.97" height="177.08"/><rect class="cls-4" x="155.34" y="368.68" width="6.97" height="177.08"/><rect class="cls-1" x="163.7" y="368.5" width="6.97" height="177.26"/><rect class="cls-4" x="163.7" y="368.5" width="6.97" height="177.26"/><rect class="cls-7" x="172.06" y="368.94" width="6.97" height="176.82"/><rect class="cls-4" x="172.06" y="368.94" width="6.97" height="176.82"/><rect class="cls-12" x="180.43" y="368.9" width="6.97" height="176.86"/><rect class="cls-4" x="180.43" y="368.9" width="6.97" height="176.86"/><rect class="cls-10" x="188.79" y="370.14" width="6.97" height="175.62"/><rect class="cls-4" x="188.79" y="370.14" width="6.97" height="175.62"/><rect class="cls-11" x="197.15" y="374.27" width="6.97" height="171.49"/><rect class="cls-4" x="197.15" y="374.27" width="6.97" height="171.49"/><rect class="cls-2" x="205.52" y="382.07" width="6.97" height="163.69"/><rect class="cls-4" x="205.52" y="382.07" width="6.97" height="163.69"/><rect class="cls-14" x="213.88" y="339.15" width="6.97" height="206.61"/><rect class="cls-4" x="213.88" y="339.15" width="6.97" height="206.61"/><rect class="cls-1" x="222.24" y="339.17" width="6.97" height="206.59"/><rect class="cls-4" x="222.24" y="339.17" width="6.97" height="206.59"/><rect class="cls-7" x="230.6" y="339.71" width="6.97" height="206.05"/><rect class="cls-4" x="230.6" y="339.71" width="6.97" height="206.05"/><rect class="cls-12" x="238.97" y="340.97" width="6.97" height="204.79"/><rect class="cls-4" x="238.97" y="340.97" width="6.97" height="204.79"/><rect class="cls-10" x="247.33" y="339.29" width="6.97" height="206.47"/><rect class="cls-4" x="247.33" y="339.29" width="6.97" height="206.47"/><rect class="cls-11" x="255.69" y="344.22" width="6.97" height="201.54"/><rect class="cls-4" x="255.69" y="344.22" width="6.97" height="201.54"/><rect class="cls-2" x="264.06" y="349.11" width="6.97" height="196.65"/><rect class="cls-4" x="264.06" y="349.11" width="6.97" height="196.65"/><rect class="cls-14" x="272.42" y="352.73" width="6.97" height="193.03"/><rect class="cls-4" x="272.42" y="352.73" width="6.97" height="193.03"/><rect class="cls-1" x="280.78" y="352.77" width="6.97" height="192.99"/><rect class="cls-4" x="280.78" y="352.77" width="6.97" height="192.99"/><rect class="cls-7" x="289.14" y="352.73" width="6.97" height="193.03"/><rect class="cls-4" x="289.14" y="352.73" width="6.97" height="193.03"/><rect class="cls-12" x="297.51" y="353.8" width="6.97" height="191.96"/><rect class="cls-4" x="297.51" y="353.8" width="6.97" height="191.96"/><rect class="cls-10" x="305.87" y="353.31" width="6.97" height="192.45"/><rect class="cls-4" x="305.87" y="353.31" width="6.97" height="192.45"/><rect class="cls-11" x="314.23" y="358.99" width="6.97" height="186.77"/><rect class="cls-4" x="314.23" y="358.99" width="6.97" height="186.77"/><rect class="cls-2" x="322.59" y="369.04" width="6.97" height="176.72"/><rect class="cls-4" x="322.59" y="369.04" width="6.97" height="176.72"/><rect class="cls-14" x="330.96" y="378.7" width="6.97" height="167.06"/><rect class="cls-4" x="330.96" y="378.7" width="6.97" height="167.06"/><rect class="cls-1" x="339.32" y="379.15" width="6.97" height="166.61"/><rect class="cls-4" x="339.32" y="379.15" width="6.97" height="166.61"/><rect class="cls-7" x="347.68" y="379.74" width="6.97" height="166.02"/><rect class="cls-4" x="347.68" y="379.74" width="6.97" height="166.02"/><rect class="cls-12" x="356.05" y="381.03" width="6.97" height="164.73"/><rect class="cls-4" x="356.05" y="381.03" width="6.97" height="164.73"/><rect class="cls-10" x="364.41" y="379.24" width="6.97" height="166.52"/><rect class="cls-4" x="364.41" y="379.24" width="6.97" height="166.52"/><rect class="cls-11" x="372.77" y="382.47" width="6.97" height="163.29"/><rect class="cls-4" x="372.77" y="382.47" width="6.97" height="163.29"/><rect class="cls-2" x="381.13" y="399.34" width="6.97" height="146.42"/><rect class="cls-4" x="381.13" y="399.34" width="6.97" height="146.42"/><rect class="cls-14" x="389.5" y="169.51" width="6.97" height="376.25"/><rect class="cls-4" x="389.5" y="169.51" width="6.97" height="376.25"/><rect class="cls-1" x="397.86" y="171.6" width="6.97" height="374.16"/><rect class="cls-4" x="397.86" y="171.6" width="6.97" height="374.16"/><rect class="cls-7" x="406.22" y="170.95" width="6.97" height="374.81"/><rect class="cls-4" x="406.22" y="170.95" width="6.97" height="374.81"/><rect class="cls-12" x="414.59" y="172.56" width="6.97" height="373.2"/><rect class="cls-4" x="414.59" y="172.56" width="6.97" height="373.2"/><rect class="cls-10" x="422.95" y="172.35" width="6.97" height="373.41"/><rect class="cls-4" x="422.95" y="172.35" width="6.97" height="373.41"/><rect class="cls-11" x="431.31" y="181.62" width="6.97" height="364.14"/><rect class="cls-4" x="431.31" y="181.62" width="6.97" height="364.14"/><rect class="cls-2" x="439.67" y="187.93" width="6.97" height="357.83"/><rect class="cls-4" x="439.67" y="187.93" width="6.97" height="357.83"/><rect class="cls-14" x="448.04" y="156.16" width="6.97" height="389.6"/><rect class="cls-4" x="448.04" y="156.16" width="6.97" height="389.6"/><rect class="cls-1" x="456.4" y="157.4" width="6.97" height="388.36"/><rect class="cls-4" x="456.4" y="157.4" width="6.97" height="388.36"/><rect class="cls-7" x="464.76" y="157.65" width="6.97" height="388.11"/><rect class="cls-4" x="464.76" y="157.65" width="6.97" height="388.11"/><rect class="cls-12" x="473.12" y="159.65" width="6.97" height="386.11"/><rect class="cls-4" x="473.12" y="159.65" width="6.97" height="386.11"/><rect class="cls-10" x="481.49" y="164.73" width="6.97" height="381.03"/><rect class="cls-4" x="481.49" y="164.73" width="6.97" height="381.03"/><rect class="cls-11" x="489.85" y="174.96" width="6.97" height="370.8"/><rect class="cls-4" x="489.85" y="174.96" width="6.97" height="370.8"/><rect class="cls-2" x="498.21" y="197.01" width="6.97" height="348.75"/><rect class="cls-4" x="498.21" y="197.01" width="6.97" height="348.75"/><rect class="cls-14" x="506.58" y="93.63" width="6.97" height="452.13"/><rect class="cls-4" x="506.58" y="93.63" width="6.97" height="452.13"/><rect class="cls-1" x="514.94" y="93.4" width="6.97" height="452.36"/><rect class="cls-4" x="514.94" y="93.4" width="6.97" height="452.36"/><rect class="cls-7" x="523.3" y="94.41" width="6.97" height="451.35"/><rect class="cls-4" x="523.3" y="94.41" width="6.97" height="451.35"/><rect class="cls-12" x="531.66" y="97.79" width="6.97" height="447.97"/><rect class="cls-4" x="531.66" y="97.79" width="6.97" height="447.97"/><rect class="cls-10" x="540.03" y="94.02" width="6.97" height="451.74"/><rect class="cls-4" x="540.03" y="94.02" width="6.97" height="451.74"/><rect class="cls-11" x="548.39" y="108.57" width="6.97" height="437.19"/><rect class="cls-4" x="548.39" y="108.57" width="6.97" height="437.19"/><rect class="cls-2" x="556.75" y="121.77" width="6.97" height="423.99"/><rect class="cls-4" x="556.75" y="121.77" width="6.97" height="423.99"/><rect class="cls-14" x="565.12" y="126.87" width="6.97" height="418.89"/><rect class="cls-4" x="565.12" y="126.87" width="6.97" height="418.89"/><rect class="cls-1" x="573.48" y="130.25" width="6.97" height="415.51"/><rect class="cls-4" x="573.48" y="130.25" width="6.97" height="415.51"/><rect class="cls-7" x="581.84" y="130.99" width="6.97" height="414.77"/><rect class="cls-4" x="581.84" y="130.99" width="6.97" height="414.77"/><rect class="cls-12" x="590.2" y="135.44" width="6.97" height="410.32"/><rect class="cls-4" x="590.2" y="135.44" width="6.97" height="410.32"/><rect class="cls-10" x="598.57" y="130.89" width="6.97" height="414.87"/><rect class="cls-4" x="598.57" y="130.89" width="6.97" height="414.87"/><rect class="cls-11" x="606.93" y="143.1" width="6.97" height="402.66"/><rect class="cls-4" x="606.93" y="143.1" width="6.97" height="402.66"/><rect class="cls-2" x="615.29" y="176.21" width="6.97" height="369.55"/><rect class="cls-4" x="615.29" y="176.21" width="6.97" height="369.55"/><rect class="cls-14" x="623.65" y="235.08" width="6.97" height="310.68"/><rect class="cls-4" x="623.65" y="235.08" width="6.97" height="310.68"/><rect class="cls-1" x="632.02" y="235.79" width="6.97" height="309.97"/><rect class="cls-4" x="632.02" y="235.79" width="6.97" height="309.97"/><rect class="cls-7" x="640.38" y="237.64" width="6.97" height="308.12"/><rect class="cls-4" x="640.38" y="237.64" width="6.97" height="308.12"/><rect class="cls-12" x="648.74" y="239.77" width="6.97" height="305.99"/><rect class="cls-4" x="648.74" y="239.77" width="6.97" height="305.99"/><rect class="cls-10" x="657.11" y="237.05" width="6.97" height="308.71"/><rect class="cls-4" x="657.11" y="237.05" width="6.97" height="308.71"/><rect class="cls-11" x="665.47" y="245.38" width="6.97" height="300.38"/><rect class="cls-4" x="665.47" y="245.38" width="6.97" height="300.38"/><rect class="cls-2" x="673.83" y="290.99" width="6.97" height="254.77"/><rect class="cls-4" x="673.83" y="290.99" width="6.97" height="254.77"/><path d="m272.36,23.76v1.15h-1.94v5.33h-1.36v-5.33h-1.95v-1.15h5.25Z"/><path d="m276.34,29.65c-.4.5-1.02.75-1.84.75s-1.44-.25-1.84-.75-.61-1.1-.61-1.8.2-1.29.61-1.8,1.02-.76,1.84-.76,1.44.25,1.84.76.61,1.1.61,1.8-.2,1.3-.61,1.8Zm-1-.69c.2-.26.29-.63.29-1.11s-.1-.85-.29-1.11c-.2-.26-.48-.39-.84-.39s-.65.13-.85.39c-.2.26-.3.63-.3,1.11s.1.85.3,1.11c.2.26.48.39.85.39s.65-.13.84-.39Z"/><path d="m277.35,26.39v-.89h.67v-1.34h1.24v1.34h.78v.89h-.78v2.53c0,.2.02.32.07.37.05.05.2.07.46.07.04,0,.08,0,.12,0,.04,0,.08,0,.12,0v.94l-.59.02c-.59.02-1-.08-1.21-.31-.14-.14-.21-.36-.21-.66v-2.95h-.67Z"/><path d="m286.2,27.17c-.02-.18-.08-.34-.18-.48-.14-.19-.36-.29-.66-.29-.42,0-.71.21-.87.63-.08.22-.12.52-.12.89s.04.63.12.85c.15.4.43.6.85.6.29,0,.5-.08.63-.24.12-.16.2-.36.22-.62h1.28c-.03.38-.17.74-.41,1.08-.39.55-.98.82-1.75.82s-1.34-.23-1.7-.69-.55-1.05-.55-1.78c0-.82.2-1.46.6-1.92s.96-.69,1.66-.69c.6,0,1.09.13,1.48.4s.61.75.68,1.43h-1.28Z"/><path d="m292.34,29.65c-.4.5-1.02.75-1.84.75s-1.44-.25-1.84-.75-.61-1.1-.61-1.8.2-1.29.61-1.8,1.02-.76,1.84-.76,1.44.25,1.84.76.61,1.1.61,1.8-.2,1.3-.61,1.8Zm-1-.69c.2-.26.29-.63.29-1.11s-.1-.85-.29-1.11c-.2-.26-.48-.39-.84-.39s-.65.13-.85.39c-.2.26-.3.63-.3,1.11s.1.85.3,1.11c.2.26.48.39.85.39s.65-.13.84-.39Z"/><path d="m296.62,25.45h1.34l-1.73,4.79h-1.32l-1.72-4.79h1.41l1,3.53,1.02-3.53Z"/><path d="m301.8,25.55c.33.15.61.39.83.71.2.28.32.61.38.99.03.22.05.54.04.95h-3.49c.02.48.19.82.5,1.01.19.12.42.18.69.18.29,0,.52-.07.7-.22.1-.08.18-.19.26-.33h1.28c-.03.28-.19.57-.46.87-.43.47-1.03.7-1.8.7-.64,0-1.2-.2-1.69-.59s-.73-1.03-.73-1.92c0-.83.22-1.47.66-1.91.44-.44,1.01-.66,1.71-.66.42,0,.79.07,1.13.22Zm-1.87,1.08c-.18.18-.29.43-.33.74h2.16c-.02-.33-.13-.58-.33-.76-.2-.17-.45-.26-.74-.26-.32,0-.57.09-.75.27Z"/><path d="m306.34,25.34s.05,0,.11,0v1.28c-.08,0-.15-.01-.21-.02s-.11,0-.15,0c-.5,0-.84.16-1.02.49-.1.18-.15.47-.15.85v2.29h-1.26v-4.79h1.2v.83c.19-.32.36-.54.51-.65.23-.2.54-.29.91-.29.02,0,.04,0,.06,0Z"/><path d="m309.08,27.33c.23-.03.4-.07.5-.11.18-.08.27-.19.27-.36,0-.2-.07-.33-.21-.41-.14-.07-.34-.11-.61-.11-.3,0-.51.07-.64.22-.09.11-.15.25-.18.44h-1.21c.03-.42.14-.76.35-1.03.33-.42.9-.63,1.71-.63.53,0,.99.1,1.4.31.41.21.61.6.61,1.18v2.2c0,.15,0,.34,0,.55,0,.16.03.28.07.33s.1.11.18.15v.18h-1.36c-.04-.1-.06-.19-.08-.27s-.03-.18-.04-.29c-.17.19-.37.35-.6.48-.27.16-.58.23-.92.23-.44,0-.8-.12-1.08-.37-.28-.25-.43-.6-.43-1.05,0-.59.23-1.02.69-1.28.25-.14.62-.25,1.11-.31l.43-.05Zm.77.58c-.08.05-.16.09-.24.12-.08.03-.19.06-.34.09l-.29.05c-.27.05-.46.1-.58.17-.2.11-.3.29-.3.53,0,.21.06.37.18.46.12.1.27.14.44.14.27,0,.53-.08.76-.24s.35-.45.36-.87v-.47Z"/><path d="m314.47,25.45c.3.13.55.36.74.69v-.69h1.22v4.54c0,.62-.1,1.08-.31,1.4-.36.54-1.04.81-2.06.81-.61,0-1.11-.12-1.5-.36s-.6-.6-.64-1.08h1.36c.04.15.09.25.17.32.13.11.36.17.68.17.45,0,.75-.15.91-.45.1-.19.15-.52.15-.98v-.31c-.12.21-.25.36-.39.46-.25.19-.57.29-.97.29-.62,0-1.11-.22-1.47-.65-.37-.43-.55-1.02-.55-1.76s.18-1.31.53-1.79.86-.73,1.51-.73c.24,0,.45.04.63.11Zm.43,3.43c.2-.22.3-.57.3-1.06,0-.45-.1-.8-.29-1.04s-.45-.36-.77-.36c-.44,0-.74.21-.91.62-.09.22-.13.49-.13.81,0,.28.05.53.14.74.17.4.47.61.91.61.29,0,.54-.11.74-.33Z"/><path d="m320.81,25.55c.33.15.61.39.83.71.2.28.32.61.38.99.03.22.05.54.04.95h-3.49c.02.48.19.82.5,1.01.19.12.42.18.69.18.29,0,.52-.07.7-.22.1-.08.18-.19.26-.33h1.28c-.03.28-.19.57-.46.87-.43.47-1.03.7-1.8.7-.64,0-1.2-.2-1.69-.59s-.73-1.03-.73-1.92c0-.83.22-1.47.66-1.91.44-.44,1.01-.66,1.71-.66.42,0,.79.07,1.13.22Zm-1.87,1.08c-.18.18-.29.43-.33.74h2.16c-.02-.33-.13-.58-.33-.76-.2-.17-.45-.26-.74-.26-.32,0-.57.09-.75.27Z"/><path d="m325.51,25.4c.23-.54.57-1.12,1.02-1.74h.94l-.27.49c-.37.68-.63,1.39-.77,2.13-.09.49-.14,1.02-.14,1.59,0,.9.13,1.72.39,2.47.15.45.42,1.02.81,1.71h-.93l-.31-.43c-.2-.26-.42-.64-.65-1.15-.41-.91-.61-1.81-.61-2.69,0-.8.17-1.6.51-2.39Z"/><path d="m331.05,27.17c-.02-.18-.08-.34-.18-.48-.14-.19-.36-.29-.66-.29-.42,0-.71.21-.87.63-.08.22-.12.52-.12.89s.04.63.12.85c.15.4.43.6.85.6.29,0,.5-.08.63-.24.12-.16.2-.36.22-.62h1.28c-.03.38-.17.74-.41,1.08-.39.55-.98.82-1.75.82s-1.34-.23-1.7-.69-.55-1.05-.55-1.78c0-.82.2-1.46.6-1.92s.96-.69,1.66-.69c.6,0,1.09.13,1.48.4s.61.75.68,1.43h-1.28Z"/><path d="m335.09,27.33c.23-.03.4-.07.5-.11.18-.08.27-.19.27-.36,0-.2-.07-.33-.21-.41-.14-.07-.34-.11-.61-.11-.3,0-.51.07-.64.22-.09.11-.15.25-.18.44h-1.21c.03-.42.14-.76.35-1.03.33-.42.9-.63,1.71-.63.53,0,.99.1,1.4.31.41.21.61.6.61,1.18v2.2c0,.15,0,.34,0,.55,0,.16.03.28.07.33s.1.11.18.15v.18h-1.36c-.04-.1-.06-.19-.08-.27s-.03-.18-.04-.29c-.17.19-.37.35-.6.48-.27.16-.58.23-.92.23-.44,0-.8-.12-1.08-.37-.28-.25-.43-.6-.43-1.05,0-.59.23-1.02.69-1.28.25-.14.62-.25,1.11-.31l.43-.05Zm.77.58c-.08.05-.16.09-.24.12-.08.03-.19.06-.34.09l-.29.05c-.27.05-.46.1-.58.17-.2.11-.3.29-.3.53,0,.21.06.37.18.46.12.1.27.14.44.14.27,0,.53-.08.76-.24s.35-.45.36-.87v-.47Z"/><path d="m339.48,30.24h-1.25v-6.48h1.25v6.48Z"/><path d="m341.98,30.24h-1.25v-6.48h1.25v6.48Z"/><path d="m347.45,23.93c.24.1.44.25.61.45.14.16.25.35.33.54s.12.43.12.68c0,.31-.08.61-.23.91-.16.3-.41.51-.77.63.3.12.51.29.63.51.12.22.19.56.19,1.01v.44c0,.3.01.5.04.6.04.17.12.29.25.37v.16h-1.49c-.04-.14-.07-.26-.09-.35-.04-.18-.05-.37-.06-.56v-.6c-.01-.41-.09-.69-.22-.83s-.39-.21-.77-.21h-1.32v2.54h-1.32v-6.48h3.1c.44,0,.78.06,1.02.17Zm-2.8.96v1.74h1.46c.29,0,.51-.04.65-.11.26-.12.38-.37.38-.73,0-.39-.12-.66-.37-.79-.14-.08-.35-.11-.63-.11h-1.49Z"/><path d="m350.13,25.63h1.33v1.31h-1.33v-1.31Zm0,3.29h1.33v1.31h-1.33v-1.31Z"/><path d="m358.8,24.68c.33.57.49,1.38.49,2.43s-.16,1.86-.49,2.43-.9.85-1.71.85-1.38-.28-1.71-.85c-.33-.57-.49-1.38-.49-2.43s.16-1.86.49-2.43c.33-.57.9-.86,1.71-.86s1.38.29,1.71.86Zm-2.45,4.12c.12.39.37.58.74.58s.62-.19.73-.58.17-.95.17-1.68-.06-1.34-.17-1.71-.36-.55-.73-.55-.62.18-.74.55-.18.94-.18,1.71.06,1.29.18,1.68Z"/><path d="m360.18,28.93h1.33v1.31h-1.33v-1.31Z"/><path d="m362.6,27.5c.16-.29.4-.51.71-.65-.31-.21-.51-.43-.6-.67-.09-.24-.14-.46-.14-.67,0-.46.17-.86.52-1.18.35-.33.84-.49,1.48-.49s1.13.16,1.48.49c.35.33.52.72.52,1.18,0,.21-.05.43-.14.67-.09.24-.29.45-.6.62.31.18.55.41.71.7s.24.61.24.97c0,.54-.2.99-.6,1.37s-.95.56-1.67.56-1.25-.19-1.62-.56-.55-.83-.55-1.37c0-.36.08-.68.24-.97Zm1.3,1.62c.16.17.39.26.67.26s.51-.09.67-.26c.16-.17.24-.42.24-.73s-.08-.57-.25-.74c-.17-.17-.39-.25-.67-.25s-.5.08-.67.25c-.17.17-.25.42-.25.74s.08.56.24.73Zm.08-2.9c.14.15.34.22.59.22s.45-.07.59-.22.21-.34.21-.57c0-.25-.07-.45-.21-.59s-.34-.21-.59-.21-.45.07-.59.21-.21.34-.21.59c0,.23.07.42.21.57Z"/><path d="m368.14,25.63h1.33v1.31h-1.33v-1.31Zm0,5.65c.3-.08.5-.24.62-.45.07-.13.12-.33.14-.59h-.76v-1.31h1.35v1.14c0,.2-.03.41-.08.63-.05.22-.15.4-.29.56-.15.17-.33.29-.54.38s-.36.13-.44.13v-.48Z"/><path d="m375.46,25.45h1.27l.73,3.45.75-3.45h1.3l-1.39,4.79h-1.29l-.75-3.49-.76,3.49h-1.3l-1.34-4.79h1.34l.75,3.44.69-3.44Z"/><path d="m381.18,28.71c.03.22.08.38.17.47.16.17.44.25.87.25.25,0,.44-.04.59-.11s.22-.18.22-.33-.06-.25-.18-.32c-.12-.07-.55-.2-1.31-.38-.54-.13-.93-.3-1.15-.51-.22-.2-.33-.49-.33-.86,0-.44.17-.82.52-1.14.35-.32.84-.48,1.47-.48s1.09.12,1.46.36c.38.24.59.65.65,1.24h-1.25c-.02-.16-.06-.29-.14-.38-.14-.17-.37-.25-.71-.25-.27,0-.47.04-.58.13s-.17.18-.17.3c0,.14.06.25.18.31.12.07.56.18,1.31.35.5.12.87.29,1.12.53.25.24.37.54.37.9,0,.47-.18.86-.53,1.16-.35.3-.9.45-1.64.45s-1.31-.16-1.67-.48c-.36-.32-.54-.72-.54-1.21h1.27Z"/><path d="m385.65,25.63h1.33v1.31h-1.33v-1.31Zm0,3.29h1.33v1.31h-1.33v-1.31Z"/><path d="m390.7,28.99c.18-.42.6-.87,1.27-1.35.58-.41.95-.71,1.12-.89.26-.28.39-.58.39-.91,0-.27-.08-.49-.22-.67s-.36-.27-.64-.27c-.38,0-.64.14-.78.43-.08.16-.13.42-.14.78h-1.22c.02-.54.12-.98.29-1.31.33-.64.93-.95,1.78-.95.67,0,1.21.19,1.61.56.4.37.6.87.6,1.48,0,.47-.14.89-.42,1.26-.19.24-.49.51-.91.81l-.5.36c-.31.22-.53.38-.64.48-.12.1-.21.22-.29.35h2.78v1.1h-4.36c.01-.46.11-.87.29-1.25Z"/><path d="m396.61,28.54c.05.27.14.48.29.63.14.15.34.22.61.22.31,0,.55-.11.71-.33s.24-.49.24-.82-.08-.6-.23-.82c-.15-.22-.39-.34-.71-.34-.15,0-.28.02-.39.06-.2.07-.34.2-.44.39l-1.12-.05.45-3.52h3.51v1.06h-2.6l-.23,1.39c.19-.13.34-.21.45-.25.18-.07.4-.1.66-.1.53,0,.99.18,1.38.53.39.35.59.87.59,1.55,0,.59-.19,1.11-.57,1.58s-.94.69-1.69.69c-.61,0-1.1-.16-1.49-.49-.39-.33-.61-.79-.65-1.38h1.25Z"/><path d="m404.32,24.68c.33.57.49,1.38.49,2.43s-.16,1.86-.49,2.43c-.33.57-.9.85-1.71.85s-1.38-.28-1.71-.85c-.33-.57-.49-1.38-.49-2.43s.16-1.86.49-2.43c.33-.57.9-.86,1.71-.86s1.38.29,1.71.86Zm-2.45,4.12c.12.39.37.58.74.58s.62-.19.73-.58c.12-.39.17-.95.17-1.68s-.06-1.34-.17-1.71c-.12-.37-.36-.55-.73-.55s-.62.18-.74.55-.18.94-.18,1.71.06,1.29.18,1.68Z"/><path d="m409.33,24.68c.33.57.49,1.38.49,2.43s-.16,1.86-.49,2.43c-.33.57-.9.85-1.71.85s-1.38-.28-1.71-.85c-.33-.57-.49-1.38-.49-2.43s.16-1.86.49-2.43c.33-.57.9-.86,1.71-.86s1.38.29,1.71.86Zm-2.45,4.12c.12.39.37.58.74.58s.62-.19.73-.58c.12-.39.17-.95.17-1.68s-.06-1.34-.17-1.71c-.12-.37-.36-.55-.73-.55s-.62.18-.74.55-.18.94-.18,1.71.06,1.29.18,1.68Z"/><path d="m411.17,25.63h1.33v1.31h-1.33v-1.31Zm0,5.65c.3-.08.5-.24.62-.45.07-.13.12-.33.14-.59h-.76v-1.31h1.35v1.14c0,.2-.03.41-.08.63-.05.22-.15.4-.29.56-.15.17-.33.29-.54.38s-.36.13-.44.13v-.48Z"/><path d="m420.62,23.76h1.95v6.48h-1.26v-4.38c0-.13,0-.3,0-.53,0-.23,0-.4,0-.52l-1.23,5.44h-1.32l-1.22-5.44c0,.12,0,.3,0,.52,0,.23,0,.4,0,.53v4.38h-1.26v-6.48h1.97l1.18,5.09,1.17-5.09Z"/><path d="m424.8,28.24c.04.3.12.52.25.66.22.27.61.4,1.15.4.33,0,.59-.04.79-.11.39-.13.58-.39.58-.75,0-.21-.09-.38-.28-.5-.19-.11-.49-.22-.9-.3l-.7-.15c-.69-.15-1.16-.32-1.42-.5-.44-.3-.65-.77-.65-1.4,0-.58.21-1.06.64-1.45s1.05-.58,1.88-.58c.69,0,1.28.18,1.77.54.49.36.74.89.77,1.58h-1.3c-.02-.39-.2-.67-.52-.83-.22-.11-.48-.16-.81-.16-.36,0-.64.07-.86.21s-.32.34-.32.59c0,.23.11.4.32.52.14.08.42.17.86.27l1.14.27c.5.12.87.27,1.12.47.39.3.58.75.58,1.32s-.23,1.08-.69,1.47c-.46.39-1.1.59-1.94.59s-1.52-.19-2.01-.58c-.49-.38-.73-.91-.73-1.59h1.29Z"/><path d="m429.83,23.76h1.35v5.31h3.23v1.16h-4.59v-6.48Z"/><path d="m435.66,25.63h1.33v1.31h-1.33v-1.31Zm0,3.29h1.33v1.31h-1.33v-1.31Z"/><path d="m440.8,23.76h1.42l2.57,4.52v-4.52h1.26v6.48h-1.35l-2.64-4.6v4.6h-1.26v-6.48Z"/><path d="m449.18,23.76h1.53l2.29,6.48h-1.47l-.43-1.33h-2.39l-.44,1.33h-1.42l2.31-6.48Zm-.09,4.03h1.66l-.82-2.55-.84,2.55Z"/><path d="m454.16,25.63h1.33v1.31h-1.33v-1.31Zm0,5.65c.3-.08.5-.24.62-.45.07-.13.12-.33.14-.59h-.76v-1.31h1.35v1.14c0,.2-.03.41-.08.63-.05.22-.15.4-.29.56-.15.17-.33.29-.54.38s-.36.13-.44.13v-.48Z"/><path d="m465.2,25.47c.21.08.39.23.56.43.13.17.23.37.27.62.03.16.04.4.04.71v3.02h-1.29v-3.05c0-.18-.03-.33-.09-.45-.11-.22-.32-.33-.62-.33-.35,0-.58.14-.72.43-.07.15-.1.34-.1.55v2.85h-1.26v-2.85c0-.28-.03-.49-.09-.62-.11-.23-.31-.35-.62-.35-.36,0-.6.12-.72.35-.07.13-.1.33-.1.59v2.88h-1.27v-4.78h1.22v.7c.16-.25.3-.43.44-.53.24-.19.56-.28.95-.28.37,0,.66.08.89.24.18.15.32.34.41.58.16-.28.37-.49.61-.62.26-.13.54-.2.86-.2.21,0,.42.04.62.12Z"/><path d="m469.12,27.33c.23-.03.4-.07.5-.11.18-.08.27-.19.27-.36,0-.2-.07-.33-.21-.41-.14-.07-.34-.11-.61-.11-.3,0-.51.07-.64.22-.09.11-.15.25-.18.44h-1.21c.03-.42.14-.76.35-1.03.33-.42.9-.63,1.71-.63.53,0,.99.1,1.4.31s.61.6.61,1.18v2.2c0,.15,0,.34,0,.55,0,.16.03.28.08.33s.1.11.18.15v.18h-1.36c-.04-.1-.06-.19-.08-.27s-.03-.18-.04-.29c-.17.19-.37.35-.6.48-.27.16-.58.23-.92.23-.44,0-.8-.12-1.08-.37-.28-.25-.43-.6-.43-1.05,0-.59.23-1.02.69-1.28.25-.14.62-.25,1.11-.31l.43-.05Zm.77.58c-.08.05-.16.09-.24.12-.08.03-.19.06-.34.09l-.29.05c-.27.05-.46.1-.58.17-.2.11-.3.29-.3.53,0,.21.06.37.18.46.12.1.27.14.44.14.27,0,.53-.08.76-.24s.35-.45.36-.87v-.47Z"/><path d="m471.75,30.24l1.63-2.43-1.56-2.36h1.53l.8,1.39.78-1.39h1.49l-1.57,2.33,1.63,2.45h-1.56l-.82-1.44-.83,1.44h-1.52Z"/><path d="m479.92,31.16h.16c.12.01.24.01.35,0s.21-.05.28-.1c.07-.05.14-.15.2-.31.06-.16.09-.25.08-.29l-1.76-5h1.39l1.05,3.53.99-3.53h1.33l-1.64,4.71c-.32.91-.57,1.47-.75,1.69s-.55.33-1.11.33c-.11,0-.2,0-.27,0s-.17,0-.3-.02v-1Z"/><path d="m485.17,25.63h1.33v1.31h-1.33v-1.31Zm0,3.29h1.33v1.31h-1.33v-1.31Z"/><path d="m490.28,25.85v-.85c.39-.02.67-.04.83-.08.25-.06.46-.17.61-.33.11-.11.19-.27.25-.46.03-.11.05-.2.05-.25h1.05v6.37h-1.28v-4.39h-1.5Z"/><path d="m499.36,28.87h-.72v1.37h-1.23v-1.37h-2.52v-1.09l2.34-3.87h1.41v3.98h.72v.98Zm-1.95-.98v-2.74l-1.59,2.74h1.59Z"/><path d="m503.85,24.68c.33.57.49,1.38.49,2.43s-.16,1.86-.49,2.43c-.33.57-.9.85-1.71.85s-1.38-.28-1.71-.85c-.33-.57-.49-1.38-.49-2.43s.16-1.86.49-2.43c.33-.57.9-.86,1.71-.86s1.38.29,1.71.86Zm-2.45,4.12c.12.39.37.58.74.58s.62-.19.73-.58c.12-.39.17-.95.17-1.68s-.06-1.34-.17-1.71c-.12-.37-.36-.55-.73-.55s-.62.18-.74.55-.18.94-.18,1.71.06,1.29.18,1.68Z"/><path d="m505.69,25.63h1.33v1.31h-1.33v-1.31Zm0,5.65c.3-.08.5-.24.62-.45.07-.13.12-.33.14-.59h-.76v-1.31h1.35v1.14c0,.2-.03.41-.08.63-.05.22-.15.4-.29.56-.15.17-.33.29-.54.38s-.36.13-.44.13v-.48Z"/><path d="m509.73,25.4c.34.79.51,1.59.51,2.39,0,.88-.2,1.78-.61,2.69-.23.51-.44.89-.65,1.15l-.31.43h-.93c.39-.7.65-1.27.81-1.71.26-.75.39-1.58.39-2.47,0-.57-.05-1.1-.14-1.59-.14-.74-.4-1.45-.77-2.13l-.27-.49h.94c.44.62.78,1.2,1.01,1.74Z"/></g><path d="m106.92,551.34c.44.34.71.94.8,1.78h-1.03c-.06-.39-.21-.71-.43-.96s-.58-.38-1.07-.38c-.67,0-1.15.33-1.44.98-.19.43-.28.95-.28,1.58s.13,1.16.4,1.59.68.64,1.25.64c.44,0,.78-.13,1.04-.4s.43-.63.53-1.1h1.03c-.12.83-.41,1.44-.88,1.83s-1.07.58-1.8.58c-.82,0-1.47-.3-1.96-.9s-.73-1.35-.73-2.25c0-1.1.27-1.96.8-2.57s1.22-.92,2.04-.92c.71,0,1.28.17,1.73.52Z"/><path d="m108.77,548.64h1.05v3.21c.25-.32.47-.54.67-.67.34-.22.76-.33,1.27-.33.91,0,1.53.32,1.85.96.18.35.26.83.26,1.45v4.03h-1.08v-3.96c0-.46-.06-.8-.18-1.01-.19-.34-.55-.52-1.08-.52-.44,0-.83.15-1.19.45s-.53.87-.53,1.71v3.33h-1.05v-8.64Z"/><path d="m115.48,551h1v1.08c.08-.21.28-.47.6-.77s.69-.45,1.11-.45c.02,0,.05,0,.1,0s.13.01.24.02v1.11c-.06-.01-.12-.02-.17-.02s-.11,0-.17,0c-.53,0-.94.17-1.22.51s-.43.74-.43,1.18v3.61h-1.05v-6.28Z"/><path d="m119.82,551.34v-.81c.76-.07,1.29-.2,1.59-.37s.53-.58.67-1.23h.83v8.36h-1.12v-5.94h-1.97Z"/><path d="m130.95,550.23c.38.69.56,1.64.56,2.84,0,1.14-.17,2.08-.51,2.83-.49,1.07-1.3,1.61-2.41,1.61-1.01,0-1.76-.44-2.25-1.31-.41-.73-.62-1.71-.62-2.94,0-.95.12-1.77.37-2.46.46-1.27,1.29-1.91,2.5-1.91,1.09,0,1.87.45,2.36,1.34Zm-1.06,5.59c.32-.48.49-1.39.49-2.71,0-.95-.12-1.74-.35-2.35s-.69-.92-1.37-.92c-.62,0-1.08.29-1.36.88s-.43,1.44-.43,2.58c0,.86.09,1.54.28,2.06.28.79.76,1.19,1.44,1.19.55,0,.98-.24,1.31-.73Z"/><path d="m165.46,551.34c.44.34.71.94.8,1.78h-1.03c-.06-.39-.21-.71-.43-.96s-.58-.38-1.07-.38c-.67,0-1.15.33-1.44.98-.19.43-.28.95-.28,1.58s.13,1.16.4,1.59.68.64,1.25.64c.44,0,.78-.13,1.04-.4s.43-.63.53-1.1h1.03c-.12.83-.41,1.44-.88,1.83s-1.07.58-1.8.58c-.82,0-1.47-.3-1.96-.9s-.73-1.35-.73-2.25c0-1.1.27-1.96.8-2.57s1.22-.92,2.04-.92c.71,0,1.28.17,1.73.52Z"/><path d="m167.31,548.64h1.05v3.21c.25-.32.47-.54.67-.67.34-.22.76-.33,1.27-.33.91,0,1.53.32,1.85.96.18.35.26.83.26,1.45v4.03h-1.08v-3.96c0-.46-.06-.8-.18-1.01-.19-.34-.55-.52-1.08-.52-.44,0-.83.15-1.19.45s-.53.87-.53,1.71v3.33h-1.05v-8.64Z"/><path d="m174.02,551h1v1.08c.08-.21.28-.47.6-.77s.69-.45,1.11-.45c.02,0,.05,0,.1,0s.13.01.24.02v1.11c-.06-.01-.12-.02-.17-.02s-.11,0-.17,0c-.53,0-.94.17-1.22.51s-.43.74-.43,1.18v3.61h-1.05v-6.28Z"/><path d="m178.36,551.34v-.81c.76-.07,1.29-.2,1.59-.37s.53-.58.67-1.23h.83v8.36h-1.12v-5.94h-1.97Z"/><path d="m185.03,551.34v-.81c.76-.07,1.29-.2,1.59-.37s.53-.58.67-1.23h.83v8.36h-1.12v-5.94h-1.97Z"/><path d="m227.34,551.34c.44.34.71.94.8,1.78h-1.03c-.06-.39-.21-.71-.43-.96s-.58-.38-1.07-.38c-.67,0-1.15.33-1.44.98-.19.43-.28.95-.28,1.58s.13,1.16.4,1.59.68.64,1.25.64c.44,0,.78-.13,1.04-.4s.43-.63.53-1.1h1.03c-.12.83-.41,1.44-.88,1.83s-1.07.58-1.8.58c-.82,0-1.47-.3-1.96-.9s-.73-1.35-.73-2.25c0-1.1.27-1.96.8-2.57s1.22-.92,2.04-.92c.71,0,1.28.17,1.73.52Z"/><path d="m229.19,548.64h1.05v3.21c.25-.32.47-.54.67-.67.34-.22.76-.33,1.27-.33.91,0,1.53.32,1.85.96.18.35.26.83.26,1.45v4.03h-1.08v-3.96c0-.46-.06-.8-.18-1.01-.19-.34-.55-.52-1.08-.52-.44,0-.83.15-1.19.45s-.53.87-.53,1.71v3.33h-1.05v-8.64Z"/><path d="m235.9,551h1v1.08c.08-.21.28-.47.6-.77s.69-.45,1.11-.45c.02,0,.05,0,.1,0s.13.01.24.02v1.11c-.06-.01-.12-.02-.17-.02s-.11,0-.17,0c-.53,0-.94.17-1.22.51s-.43.74-.43,1.18v3.61h-1.05v-6.28Z"/><path d="m245.37,549.03v.92c-.27.26-.63.72-1.08,1.37s-.84,1.35-1.19,2.1c-.34.73-.6,1.4-.77,2-.11.39-.26,1.01-.44,1.87h-1.17c.27-1.6.85-3.2,1.76-4.78.54-.93,1.1-1.73,1.69-2.41h-4.64v-1.06h5.84Z"/><path d="m285.88,551.34c.44.34.71.94.8,1.78h-1.03c-.06-.39-.21-.71-.43-.96s-.58-.38-1.07-.38c-.67,0-1.15.33-1.44.98-.19.43-.28.95-.28,1.58s.13,1.16.4,1.59.68.64,1.25.64c.44,0,.78-.13,1.04-.4s.43-.63.53-1.1h1.03c-.12.83-.41,1.44-.88,1.83s-1.07.58-1.8.58c-.82,0-1.47-.3-1.96-.9s-.73-1.35-.73-2.25c0-1.1.27-1.96.8-2.57s1.22-.92,2.04-.92c.71,0,1.28.17,1.73.52Z"/><path d="m287.73,548.64h1.05v3.21c.25-.32.47-.54.67-.67.34-.22.76-.33,1.27-.33.91,0,1.53.32,1.85.96.18.35.26.83.26,1.45v4.03h-1.08v-3.96c0-.46-.06-.8-.18-1.01-.19-.34-.55-.52-1.08-.52-.44,0-.83.15-1.19.45s-.53.87-.53,1.71v3.33h-1.05v-8.64Z"/><path d="m294.44,551h1v1.08c.08-.21.28-.47.6-.77s.69-.45,1.11-.45c.02,0,.05,0,.1,0s.13.01.24.02v1.11c-.06-.01-.12-.02-.17-.02s-.11,0-.17,0c-.53,0-.94.17-1.22.51s-.43.74-.43,1.18v3.61h-1.05v-6.28Z"/><path d="m298.77,552.37c-.31-.31-.46-.72-.46-1.22,0-.62.23-1.16.68-1.61s1.1-.67,1.93-.67,1.44.21,1.89.64.69.92.69,1.49c0,.52-.13.95-.4,1.27-.15.18-.38.36-.69.54.35.16.62.34.82.55.37.39.56.9.56,1.52,0,.74-.25,1.36-.74,1.88s-1.2.77-2.1.77c-.82,0-1.51-.22-2.07-.67s-.85-1.09-.85-1.93c0-.5.12-.92.36-1.29s.6-.64,1.08-.83c-.29-.12-.52-.27-.69-.44Zm3.4,3.79c.32-.26.48-.66.48-1.18s-.17-.96-.5-1.24-.76-.42-1.28-.42-.92.14-1.23.43-.48.68-.48,1.19c0,.44.15.82.44,1.13s.74.48,1.35.48c.49,0,.89-.13,1.22-.4Zm-.19-4.15c.26-.26.39-.57.39-.93,0-.31-.12-.6-.38-.86s-.63-.39-1.14-.39-.88.13-1.1.39-.34.57-.34.92c0,.39.15.7.44.93s.64.33,1.04.33c.46,0,.83-.13,1.09-.39Z"/><path d="m344.42,551.34c.44.34.71.94.8,1.78h-1.03c-.06-.39-.21-.71-.43-.96s-.58-.38-1.07-.38c-.67,0-1.15.33-1.44.98-.19.43-.28.95-.28,1.58s.13,1.16.4,1.59.68.64,1.25.64c.44,0,.78-.13,1.04-.4s.43-.63.53-1.1h1.03c-.12.83-.41,1.44-.88,1.83s-1.07.58-1.8.58c-.82,0-1.47-.3-1.96-.9s-.73-1.35-.73-2.25c0-1.1.27-1.96.8-2.57s1.22-.92,2.04-.92c.71,0,1.28.17,1.73.52Z"/><path d="m346.27,548.64h1.05v3.21c.25-.32.47-.54.67-.67.34-.22.76-.33,1.27-.33.91,0,1.53.32,1.85.96.18.35.26.83.26,1.45v4.03h-1.08v-3.96c0-.46-.06-.8-.18-1.01-.19-.34-.55-.52-1.08-.52-.44,0-.83.15-1.19.45s-.53.87-.53,1.71v3.33h-1.05v-8.64Z"/><path d="m352.98,551h1v1.08c.08-.21.28-.47.6-.77s.69-.45,1.11-.45c.02,0,.05,0,.1,0s.13.01.24.02v1.11c-.06-.01-.12-.02-.17-.02s-.11,0-.17,0c-.53,0-.94.17-1.22.51s-.43.74-.43,1.18v3.61h-1.05v-6.28Z"/><path d="m357.76,555.25c.03.58.26.98.67,1.21.21.12.46.18.73.18.5,0,.93-.21,1.29-.63s.61-1.27.76-2.56c-.23.37-.52.63-.87.78s-.72.23-1.12.23c-.81,0-1.45-.25-1.92-.76s-.71-1.15-.71-1.95.23-1.43.7-2.01,1.15-.87,2.06-.87c1.22,0,2.07.55,2.53,1.65.26.61.39,1.36.39,2.27,0,1.03-.15,1.94-.46,2.73-.51,1.32-1.38,1.98-2.6,1.98-.82,0-1.44-.21-1.87-.64s-.64-.97-.64-1.62h1.07Zm2.75-2.14c.35-.28.52-.76.52-1.44,0-.62-.16-1.08-.47-1.38s-.71-.45-1.19-.45c-.52,0-.92.17-1.23.52s-.45.81-.45,1.39c0,.55.13.98.4,1.3s.69.48,1.27.48c.42,0,.8-.14,1.15-.41Z"/><path d="m399.62,551.34c.44.34.71.94.8,1.78h-1.03c-.06-.39-.21-.71-.43-.96s-.58-.38-1.07-.38c-.67,0-1.15.33-1.44.98-.19.43-.28.95-.28,1.58s.13,1.16.4,1.59.68.64,1.25.64c.44,0,.78-.13,1.04-.4s.43-.63.53-1.1h1.03c-.12.83-.41,1.44-.88,1.83s-1.07.58-1.8.58c-.82,0-1.47-.3-1.96-.9s-.73-1.35-.73-2.25c0-1.1.27-1.96.8-2.57s1.22-.92,2.04-.92c.71,0,1.28.17,1.73.52Z"/><path d="m401.47,548.64h1.05v3.21c.25-.32.47-.54.67-.67.34-.22.76-.33,1.27-.33.91,0,1.53.32,1.85.96.18.35.26.83.26,1.45v4.03h-1.08v-3.96c0-.46-.06-.8-.18-1.01-.19-.34-.55-.52-1.08-.52-.44,0-.83.15-1.19.45s-.53.87-.53,1.71v3.33h-1.05v-8.64Z"/><path d="m408.18,551h1v1.08c.08-.21.28-.47.6-.77s.69-.45,1.11-.45c.02,0,.05,0,.1,0s.13.01.24.02v1.11c-.06-.01-.12-.02-.17-.02s-.11,0-.17,0c-.53,0-.94.17-1.22.51s-.43.74-.43,1.18v3.61h-1.05v-6.28Z"/><path d="m412.52,551.34v-.81c.76-.07,1.29-.2,1.59-.37s.53-.58.67-1.23h.83v8.36h-1.12v-5.94h-1.97Z"/><path d="m423.65,550.23c.38.69.56,1.64.56,2.84,0,1.14-.17,2.08-.51,2.83-.49,1.07-1.3,1.61-2.41,1.61-1.01,0-1.76-.44-2.25-1.31-.41-.73-.62-1.71-.62-2.94,0-.95.12-1.77.37-2.46.46-1.27,1.29-1.91,2.5-1.91,1.09,0,1.87.45,2.36,1.34Zm-1.06,5.59c.32-.48.49-1.39.49-2.71,0-.95-.12-1.74-.35-2.35s-.69-.92-1.37-.92c-.62,0-1.08.29-1.36.88s-.43,1.44-.43,2.58c0,.86.09,1.54.28,2.06.28.79.76,1.19,1.44,1.19.55,0,.98-.24,1.31-.73Z"/><path d="m458.16,551.34c.44.34.71.94.8,1.78h-1.03c-.06-.39-.21-.71-.43-.96s-.58-.38-1.07-.38c-.67,0-1.15.33-1.44.98-.19.43-.28.95-.28,1.58s.13,1.16.4,1.59.68.64,1.25.64c.44,0,.78-.13,1.04-.4s.43-.63.53-1.1h1.03c-.12.83-.41,1.44-.88,1.83s-1.07.58-1.8.58c-.82,0-1.47-.3-1.96-.9s-.73-1.35-.73-2.25c0-1.1.27-1.96.8-2.57s1.22-.92,2.04-.92c.71,0,1.28.17,1.73.52Z"/><path d="m460.01,548.64h1.05v3.21c.25-.32.47-.54.67-.67.34-.22.76-.33,1.27-.33.91,0,1.53.32,1.85.96.18.35.26.83.26,1.45v4.03h-1.08v-3.96c0-.46-.06-.8-.18-1.01-.19-.34-.55-.52-1.08-.52-.44,0-.83.15-1.19.45s-.53.87-.53,1.71v3.33h-1.05v-8.64Z"/><path d="m466.72,551h1v1.08c.08-.21.28-.47.6-.77s.69-.45,1.11-.45c.02,0,.05,0,.1,0s.13.01.24.02v1.11c-.06-.01-.12-.02-.17-.02s-.11,0-.17,0c-.53,0-.94.17-1.22.51s-.43.74-.43,1.18v3.61h-1.05v-6.28Z"/><path d="m471.06,551.34v-.81c.76-.07,1.29-.2,1.59-.37s.53-.58.67-1.23h.83v8.36h-1.12v-5.94h-1.97Z"/><path d="m477.73,551.34v-.81c.76-.07,1.29-.2,1.59-.37s.53-.58.67-1.23h.83v8.36h-1.12v-5.94h-1.97Z"/><path d="m520.04,551.34c.44.34.71.94.8,1.78h-1.03c-.06-.39-.21-.71-.43-.96s-.58-.38-1.07-.38c-.67,0-1.15.33-1.44.98-.19.43-.28.95-.28,1.58s.13,1.16.4,1.59.68.64,1.25.64c.44,0,.78-.13,1.04-.4s.43-.63.53-1.1h1.03c-.12.83-.41,1.44-.88,1.83s-1.07.58-1.8.58c-.82,0-1.47-.3-1.96-.9s-.73-1.35-.73-2.25c0-1.1.27-1.96.8-2.57s1.22-.92,2.04-.92c.71,0,1.28.17,1.73.52Z"/><path d="m521.89,548.64h1.05v3.21c.25-.32.47-.54.67-.67.34-.22.76-.33,1.27-.33.91,0,1.53.32,1.85.96.18.35.26.83.26,1.45v4.03h-1.08v-3.96c0-.46-.06-.8-.18-1.01-.19-.34-.55-.52-1.08-.52-.44,0-.83.15-1.19.45s-.53.87-.53,1.71v3.33h-1.05v-8.64Z"/><path d="m528.6,551h1v1.08c.08-.21.28-.47.6-.77s.69-.45,1.11-.45c.02,0,.05,0,.1,0s.13.01.24.02v1.11c-.06-.01-.12-.02-.17-.02s-.11,0-.17,0c-.53,0-.94.17-1.22.51s-.43.74-.43,1.18v3.61h-1.05v-6.28Z"/><path d="m538.07,549.03v.92c-.27.26-.63.72-1.08,1.37s-.84,1.35-1.19,2.1c-.34.73-.6,1.4-.77,2-.11.39-.26,1.01-.44,1.87h-1.17c.27-1.6.85-3.2,1.76-4.78.54-.93,1.1-1.73,1.69-2.41h-4.64v-1.06h5.84Z"/><path d="m578.58,551.34c.44.34.71.94.8,1.78h-1.03c-.06-.39-.21-.71-.43-.96s-.58-.38-1.07-.38c-.67,0-1.15.33-1.44.98-.19.43-.28.95-.28,1.58s.13,1.16.4,1.59.68.64,1.25.64c.44,0,.78-.13,1.04-.4s.43-.63.53-1.1h1.03c-.12.83-.41,1.44-.88,1.83s-1.07.58-1.8.58c-.82,0-1.47-.3-1.96-.9s-.73-1.35-.73-2.25c0-1.1.27-1.96.8-2.57s1.22-.92,2.04-.92c.71,0,1.28.17,1.73.52Z"/><path d="m580.43,548.64h1.05v3.21c.25-.32.47-.54.67-.67.34-.22.76-.33,1.27-.33.91,0,1.53.32,1.85.96.18.35.26.83.26,1.45v4.03h-1.08v-3.96c0-.46-.06-.8-.18-1.01-.19-.34-.55-.52-1.08-.52-.44,0-.83.15-1.19.45s-.53.87-.53,1.71v3.33h-1.05v-8.64Z"/><path d="m587.14,551h1v1.08c.08-.21.28-.47.6-.77s.69-.45,1.11-.45c.02,0,.05,0,.1,0s.13.01.24.02v1.11c-.06-.01-.12-.02-.17-.02s-.11,0-.17,0c-.53,0-.94.17-1.22.51s-.43.74-.43,1.18v3.61h-1.05v-6.28Z"/><path d="m591.47,552.37c-.31-.31-.46-.72-.46-1.22,0-.62.23-1.16.68-1.61s1.1-.67,1.93-.67,1.44.21,1.89.64.69.92.69,1.49c0,.52-.13.95-.4,1.27-.15.18-.38.36-.69.54.35.16.62.34.82.55.37.39.56.9.56,1.52,0,.74-.25,1.36-.74,1.88s-1.2.77-2.1.77c-.82,0-1.51-.22-2.07-.67s-.85-1.09-.85-1.93c0-.5.12-.92.36-1.29s.6-.64,1.08-.83c-.29-.12-.52-.27-.69-.44Zm3.4,3.79c.32-.26.48-.66.48-1.18s-.17-.96-.5-1.24-.76-.42-1.28-.42-.92.14-1.23.43-.48.68-.48,1.19c0,.44.15.82.44,1.13s.74.48,1.35.48c.49,0,.89-.13,1.22-.4Zm-.19-4.15c.26-.26.39-.57.39-.93,0-.31-.12-.6-.38-.86s-.63-.39-1.14-.39-.88.13-1.1.39-.34.57-.34.92c0,.39.15.7.44.93s.64.33,1.04.33c.46,0,.83-.13,1.09-.39Z"/><path d="m637.11,551.34c.44.34.71.94.8,1.78h-1.03c-.06-.39-.21-.71-.43-.96s-.58-.38-1.07-.38c-.67,0-1.15.33-1.44.98-.19.43-.28.95-.28,1.58s.13,1.16.4,1.59.68.64,1.25.64c.44,0,.78-.13,1.04-.4s.43-.63.53-1.1h1.03c-.12.83-.41,1.44-.88,1.83s-1.07.58-1.8.58c-.82,0-1.47-.3-1.96-.9s-.73-1.35-.73-2.25c0-1.1.27-1.96.8-2.57s1.22-.92,2.04-.92c.71,0,1.28.17,1.73.52Z"/><path d="m638.96,548.64h1.05v3.21c.25-.32.47-.54.67-.67.34-.22.76-.33,1.27-.33.91,0,1.53.32,1.85.96.18.35.26.83.26,1.45v4.03h-1.08v-3.96c0-.46-.06-.8-.18-1.01-.19-.34-.55-.52-1.08-.52-.44,0-.83.15-1.19.45s-.53.87-.53,1.71v3.33h-1.05v-8.64Z"/><path d="m645.67,551h1v1.08c.08-.21.28-.47.6-.77s.69-.45,1.11-.45c.02,0,.05,0,.1,0s.13.01.24.02v1.11c-.06-.01-.12-.02-.17-.02s-.11,0-.17,0c-.53,0-.94.17-1.22.51s-.43.74-.43,1.18v3.61h-1.05v-6.28Z"/><path d="m650.45,555.25c.03.58.26.98.67,1.21.21.12.46.18.73.18.5,0,.93-.21,1.29-.63s.61-1.27.76-2.56c-.23.37-.52.63-.87.78s-.72.23-1.12.23c-.81,0-1.45-.25-1.92-.76s-.71-1.15-.71-1.95.23-1.43.7-2.01,1.15-.87,2.06-.87c1.22,0,2.07.55,2.53,1.65.26.61.39,1.36.39,2.27,0,1.03-.15,1.94-.46,2.73-.51,1.32-1.38,1.98-2.6,1.98-.82,0-1.44-.21-1.87-.64s-.64-.97-.64-1.62h1.07Zm2.75-2.14c.35-.28.52-.76.52-1.44,0-.62-.16-1.08-.47-1.38s-.71-.45-1.19-.45c-.52,0-.92.17-1.23.52s-.45.81-.45,1.39c0,.55.13.98.4,1.3s.69.48,1.27.48c.42,0,.8-.14,1.15-.41Z"/><line class="cls-4" x1="96.8" y1="288" x2="387.41" y2="288"/><line class="cls-4" x1="96.8" y1="288" x2="96.8" y2="295.2"/><line class="cls-4" x1="387.41" y1="288" x2="387.41" y2="295.2"/><line class="cls-4" x1="389.5" y1="48.65" x2="680.8" y2="48.65"/><line class="cls-4" x1="389.5" y1="48.65" x2="389.5" y2="55.85"/><line class="cls-4" x1="680.8" y1="48.65" x2="680.8" y2="55.85"/><g class="cls-15"><path d="m223.04,274.4h1.38l4.35,6.97v-6.97h1.11v8.61h-1.31l-4.41-6.97v6.97h-1.11v-8.61Z"/><path d="m235.48,276.91c.42.21.74.48.96.81.21.32.35.69.42,1.11.06.29.09.75.09,1.38h-4.6c.02.64.17,1.15.45,1.53s.72.58,1.31.58c.55,0,.99-.18,1.32-.54.19-.21.32-.46.4-.73h1.04c-.03.23-.12.49-.27.77s-.33.51-.52.69c-.32.31-.72.52-1.19.63-.25.06-.54.09-.86.09-.78,0-1.44-.28-1.99-.85s-.81-1.36-.81-2.39.27-1.83.82-2.46,1.26-.94,2.14-.94c.45,0,.88.1,1.29.31Zm.39,2.46c-.04-.46-.14-.82-.3-1.1-.29-.51-.77-.76-1.45-.76-.48,0-.89.17-1.22.52s-.5.79-.52,1.33h3.49Z"/><path d="m239.3,276.73v4.17c0,.32.05.58.15.79.19.38.54.56,1.05.56.73,0,1.23-.33,1.5-.98.14-.35.22-.83.22-1.45v-3.08h1.05v6.28h-1v-.93c-.12.24-.29.44-.5.6-.4.33-.89.49-1.46.49-.89,0-1.5-.3-1.83-.9-.18-.32-.26-.75-.26-1.28v-4.27h1.08Z"/><path d="m245.13,274.98h1.07v1.75h1v.86h-1v4.1c0,.22.07.37.22.44.08.04.22.06.41.06.05,0,.11,0,.16,0s.13,0,.21-.01v.83c-.12.04-.25.06-.38.08s-.27.02-.42.02c-.49,0-.83-.13-1-.38s-.26-.58-.26-.98v-4.15h-.85v-.86h.85v-1.75Z"/><path d="m248.28,276.73h1v1.08c.08-.21.28-.47.6-.77s.69-.45,1.11-.45c.02,0,.05,0,.1,0s.13.01.24.02v1.11c-.06-.01-.12-.02-.17-.02s-.11,0-.17,0c-.53,0-.94.17-1.22.51s-.43.74-.43,1.18v3.61h-1.05v-6.28Z"/><path d="m255.49,279.21c.24-.03.4-.13.49-.3.05-.09.07-.23.07-.4,0-.36-.13-.62-.38-.78s-.62-.24-1.1-.24c-.55,0-.94.15-1.17.45-.13.16-.21.41-.25.73h-.98c.02-.77.27-1.31.75-1.61s1.04-.45,1.68-.45c.74,0,1.34.14,1.8.42.46.28.69.72.69,1.31v3.62c0,.11.02.2.07.26s.14.1.28.1c.05,0,.1,0,.16,0s.12-.01.19-.03v.78c-.16.05-.29.08-.38.09s-.2.02-.35.02c-.36,0-.63-.13-.79-.39-.09-.14-.15-.33-.18-.58-.21.28-.52.53-.93.73s-.85.31-1.33.31c-.58,0-1.06-.18-1.43-.53s-.55-.8-.55-1.33c0-.58.18-1.03.54-1.35s.84-.52,1.43-.59l1.68-.21Zm-2.22,2.85c.22.18.49.26.79.26.37,0,.73-.09,1.08-.26.59-.29.88-.75.88-1.4v-.85c-.13.08-.29.15-.5.21s-.4.09-.6.12l-.64.08c-.38.05-.67.13-.86.24-.32.18-.49.48-.49.88,0,.3.11.54.33.72Z"/><path d="m258.83,274.4h1.05v8.61h-1.05v-8.61Z"/></g><path d="m503.41,35.05h1.38l4.35,6.97v-6.97h1.11v8.61h-1.31l-4.41-6.97v6.97h-1.11v-8.61Z"/><path d="m516.52,38.01c.56.54.84,1.33.84,2.38s-.25,1.85-.74,2.51-1.26.99-2.29.99c-.86,0-1.55-.29-2.06-.88s-.76-1.37-.76-2.35c0-1.05.27-1.89.8-2.52s1.25-.94,2.16-.94c.81,0,1.49.27,2.05.81Zm-.65,4.17c.26-.53.39-1.12.39-1.77,0-.59-.09-1.06-.28-1.43-.3-.58-.81-.87-1.54-.87-.64,0-1.11.25-1.41.74s-.44,1.09-.44,1.78.15,1.22.44,1.67.76.67,1.39.67c.7,0,1.18-.26,1.44-.79Z"/><path d="m518.61,37.38h1v.89c.3-.37.61-.63.94-.79s.7-.24,1.11-.24c.89,0,1.49.31,1.8.93.17.34.26.83.26,1.46v4.03h-1.07v-3.96c0-.38-.06-.69-.17-.93-.19-.39-.53-.59-1.02-.59-.25,0-.46.03-.62.08-.29.09-.54.26-.76.52-.18.21-.29.42-.34.64s-.08.54-.08.95v3.29h-1.05v-6.28Z"/><path d="m528.76,35.05h1.38l4.35,6.97v-6.97h1.11v8.61h-1.31l-4.41-6.97v6.97h-1.11v-8.61Z"/><path d="m541.2,37.56c.42.21.74.48.96.81.21.32.35.69.42,1.11.06.29.09.75.09,1.38h-4.6c.02.64.17,1.15.45,1.53s.72.58,1.31.58c.55,0,.99-.18,1.32-.54.19-.21.32-.46.4-.73h1.04c-.03.23-.12.49-.27.77s-.33.51-.52.69c-.32.31-.72.52-1.19.63-.25.06-.54.09-.86.09-.78,0-1.44-.28-1.99-.85s-.81-1.36-.81-2.39.27-1.83.82-2.46,1.26-.94,2.14-.94c.45,0,.88.1,1.29.31Zm.39,2.46c-.04-.46-.14-.82-.3-1.1-.29-.51-.77-.76-1.45-.76-.48,0-.89.17-1.22.52s-.5.79-.52,1.33h3.49Z"/><path d="m545.02,37.38v4.17c0,.32.05.58.15.79.19.38.54.56,1.05.56.73,0,1.23-.33,1.5-.98.14-.35.22-.83.22-1.45v-3.08h1.05v6.28h-1v-.93c-.12.24-.29.44-.5.6-.4.33-.89.49-1.46.49-.89,0-1.5-.3-1.83-.9-.18-.32-.26-.75-.26-1.28v-4.27h1.08Z"/><path d="m550.85,35.63h1.07v1.75h1v.86h-1v4.1c0,.22.07.37.22.44.08.04.22.06.41.06.05,0,.11,0,.16,0s.13,0,.21-.01v.83c-.12.04-.25.06-.38.08s-.27.02-.42.02c-.49,0-.83-.13-1-.38s-.26-.58-.26-.98v-4.15h-.85v-.86h.85v-1.75Z"/><path d="m554,37.38h1v1.08c.08-.21.28-.47.6-.77s.69-.45,1.11-.45c.02,0,.05,0,.1,0s.13.01.24.02v1.11c-.06-.01-.12-.02-.17-.02s-.11,0-.17,0c-.53,0-.94.17-1.22.51s-.43.74-.43,1.18v3.61h-1.05v-6.28Z"/><path d="m561.21,39.86c.24-.03.4-.13.49-.3.05-.09.07-.23.07-.4,0-.36-.13-.62-.38-.78s-.62-.24-1.1-.24c-.55,0-.94.15-1.17.45-.13.16-.21.41-.25.73h-.98c.02-.77.27-1.31.75-1.61s1.04-.45,1.68-.45c.74,0,1.34.14,1.8.42.46.28.69.72.69,1.31v3.62c0,.11.02.2.07.26s.14.1.28.1c.05,0,.1,0,.16,0s.12-.01.19-.03v.78c-.16.05-.29.08-.38.09s-.2.02-.35.02c-.36,0-.63-.13-.79-.39-.09-.14-.15-.33-.18-.58-.21.28-.52.53-.93.73s-.85.31-1.33.31c-.58,0-1.06-.18-1.43-.53s-.55-.8-.55-1.33c0-.58.18-1.03.54-1.35s.84-.52,1.43-.59l1.68-.21Zm-2.22,2.85c.22.18.49.26.79.26.37,0,.73-.09,1.08-.26.59-.29.88-.75.88-1.4v-.85c-.13.08-.29.15-.5.21s-.4.09-.6.12l-.64.08c-.38.05-.67.13-.86.24-.32.18-.49.48-.49.88,0,.3.11.54.33.72Z"/><path d="m564.55,35.05h1.05v8.61h-1.05v-8.61Z"/><line class="cls-4" x1="153.95" y1="545.76" x2="680.8" y2="545.76"/><line class="cls-4" x1="153.95" y1="545.76" x2="153.95" y2="552.96"/><line class="cls-4" x1="212.48" y1="545.76" x2="212.48" y2="552.96"/><line class="cls-4" x1="271.02" y1="545.76" x2="271.02" y2="552.96"/><line class="cls-4" x1="329.56" y1="545.76" x2="329.56" y2="552.96"/><line class="cls-4" x1="388.1" y1="545.76" x2="388.1" y2="552.96"/><line class="cls-4" x1="446.64" y1="545.76" x2="446.64" y2="552.96"/><line class="cls-4" x1="505.18" y1="545.76" x2="505.18" y2="552.96"/><line class="cls-4" x1="563.72" y1="545.76" x2="563.72" y2="552.96"/><line class="cls-4" x1="622.26" y1="545.76" x2="622.26" y2="552.96"/><line class="cls-4" x1="680.8" y1="545.76" x2="680.8" y2="552.96"/><line class="cls-4" x1="80.64" y1="545.76" x2="80.64" y2="30.24"/><line class="cls-4" x1="80.64" y1="545.76" x2="73.44" y2="545.76"/><line class="cls-4" x1="80.64" y1="508.94" x2="73.44" y2="508.94"/><line class="cls-4" x1="80.64" y1="472.11" x2="73.44" y2="472.11"/><line class="cls-4" x1="80.64" y1="435.29" x2="73.44" y2="435.29"/><line class="cls-4" x1="80.64" y1="398.47" x2="73.44" y2="398.47"/><line class="cls-4" x1="80.64" y1="361.65" x2="73.44" y2="361.65"/><line class="cls-4" x1="80.64" y1="324.82" x2="73.44" y2="324.82"/><line class="cls-4" x1="80.64" y1="288" x2="73.44" y2="288"/><line class="cls-4" x1="80.64" y1="251.18" x2="73.44" y2="251.18"/><line class="cls-4" x1="80.64" y1="214.35" x2="73.44" y2="214.35"/><line class="cls-4" x1="80.64" y1="177.53" x2="73.44" y2="177.53"/><line class="cls-4" x1="80.64" y1="140.71" x2="73.44" y2="140.71"/><line class="cls-4" x1="80.64" y1="103.89" x2="73.44" y2="103.89"/><line class="cls-4" x1="80.64" y1="67.06" x2="73.44" y2="67.06"/><line class="cls-4" x1="80.64" y1="30.24" x2="73.44" y2="30.24"/><path d="m65.17,543.02c.38.69.56,1.64.56,2.84,0,1.14-.17,2.08-.51,2.83-.49,1.07-1.3,1.61-2.41,1.61-1.01,0-1.76-.44-2.25-1.31-.41-.73-.62-1.71-.62-2.94,0-.95.12-1.77.37-2.46.46-1.27,1.29-1.91,2.5-1.91,1.09,0,1.87.45,2.36,1.34Zm-1.06,5.59c.32-.48.49-1.39.49-2.71,0-.95-.12-1.74-.35-2.35s-.69-.92-1.37-.92c-.62,0-1.08.29-1.36.88s-.43,1.44-.43,2.58c0,.86.09,1.54.28,2.06.28.79.76,1.19,1.44,1.19.55,0,.98-.24,1.31-.73Z"/><path d="m54.05,507.31v-.81c.76-.07,1.29-.2,1.59-.37s.53-.58.67-1.23h.83v8.36h-1.12v-5.94h-1.97Z"/><path d="m65.18,506.2c.38.69.56,1.64.56,2.84,0,1.14-.17,2.08-.51,2.83-.49,1.07-1.3,1.61-2.41,1.61-1.01,0-1.76-.44-2.25-1.31-.41-.73-.62-1.71-.62-2.94,0-.95.12-1.77.37-2.46.46-1.27,1.29-1.91,2.5-1.91,1.09,0,1.87.45,2.36,1.34Zm-1.06,5.59c.32-.48.49-1.39.49-2.71,0-.95-.12-1.74-.35-2.35s-.69-.92-1.37-.92c-.62,0-1.08.29-1.36.88s-.43,1.44-.43,2.58c0,.86.09,1.54.28,2.06.28.79.76,1.19,1.44,1.19.55,0,.98-.24,1.31-.73Z"/><path d="m53.72,474.53c.26-.54.77-1.02,1.52-1.46l1.12-.65c.5-.29.86-.54,1.06-.75.32-.32.48-.7.48-1.11,0-.49-.15-.88-.44-1.16s-.68-.43-1.17-.43c-.72,0-1.22.27-1.5.82-.15.29-.23.7-.25,1.22h-1.07c.01-.73.15-1.33.4-1.79.46-.81,1.26-1.22,2.42-1.22.96,0,1.66.26,2.11.78s.67,1.1.67,1.73c0,.67-.24,1.25-.71,1.72-.27.28-.76.61-1.47,1.01l-.8.45c-.38.21-.68.41-.9.6-.39.34-.64.72-.74,1.13h4.58v1h-5.76c.04-.72.19-1.35.45-1.89Z"/><path d="m65.18,469.37c.38.69.56,1.64.56,2.84,0,1.14-.17,2.08-.51,2.83-.49,1.07-1.3,1.61-2.41,1.61-1.01,0-1.76-.44-2.25-1.31-.41-.73-.62-1.71-.62-2.94,0-.95.12-1.77.37-2.46.46-1.27,1.29-1.91,2.5-1.91,1.09,0,1.87.45,2.36,1.34Zm-1.06,5.59c.32-.48.49-1.39.49-2.71,0-.95-.12-1.74-.35-2.35s-.69-.92-1.37-.92c-.62,0-1.08.29-1.36.88s-.43,1.44-.43,2.58c0,.86.09,1.54.28,2.06.28.79.76,1.19,1.44,1.19.55,0,.98-.24,1.31-.73Z"/><path d="m53.86,439.01c-.45-.54-.67-1.21-.67-1.99h1.1c.05.54.15.94.3,1.18.27.44.77.66,1.48.66.55,0,1-.15,1.34-.45s.5-.68.5-1.15c0-.58-.18-.98-.53-1.21s-.84-.35-1.47-.35c-.07,0-.14,0-.21,0s-.15,0-.22,0v-.93c.11.01.2.02.28.02s.15,0,.24,0c.39,0,.72-.06.97-.19.45-.22.67-.61.67-1.17,0-.42-.15-.74-.45-.97s-.64-.34-1.04-.34c-.7,0-1.19.23-1.46.7-.15.26-.23.62-.25,1.1h-1.04c0-.62.12-1.16.38-1.59.43-.78,1.19-1.17,2.27-1.17.86,0,1.52.19,1.99.57s.7.93.7,1.66c0,.52-.14.93-.42,1.25-.17.2-.39.36-.67.47.44.12.79.35,1.03.7s.37.77.37,1.27c0,.8-.26,1.45-.79,1.96s-1.28.76-2.24.76-1.71-.27-2.16-.82Z"/><path d="m65.18,432.55c.38.69.56,1.64.56,2.84,0,1.14-.17,2.08-.51,2.83-.49,1.07-1.3,1.61-2.41,1.61-1.01,0-1.76-.44-2.25-1.31-.41-.73-.62-1.71-.62-2.94,0-.95.12-1.77.37-2.46.46-1.27,1.29-1.91,2.5-1.91,1.09,0,1.87.45,2.36,1.34Zm-1.06,5.59c.32-.48.49-1.39.49-2.71,0-.95-.12-1.74-.35-2.35s-.69-.92-1.37-.92c-.62,0-1.08.29-1.36.88s-.43,1.44-.43,2.58c0,.86.09,1.54.28,2.06.28.79.76,1.19,1.44,1.19.55,0,.98-.24,1.31-.73Z"/><path d="m56.88,402.78v-2.05h-3.68v-1.03l3.84-5.33h.89v5.44h1.24v.92h-1.24v2.05h-1.05Zm-.02-2.97v-3.8l-2.69,3.8h2.69Z"/><path d="m65.18,395.73c.38.69.56,1.64.56,2.84,0,1.14-.17,2.08-.51,2.83-.49,1.07-1.3,1.61-2.41,1.61-1.01,0-1.76-.44-2.25-1.31-.41-.73-.62-1.71-.62-2.94,0-.95.12-1.77.37-2.46.46-1.27,1.29-1.91,2.5-1.91,1.09,0,1.87.45,2.36,1.34Zm-1.06,5.59c.32-.48.49-1.39.49-2.71,0-.95-.12-1.74-.35-2.35s-.69-.92-1.37-.92c-.62,0-1.08.29-1.36.88s-.43,1.44-.43,2.58c0,.86.09,1.54.28,2.06.28.79.76,1.19,1.44,1.19.55,0,.98-.24,1.31-.73Z"/><path d="m54.38,363.81c.07.6.35,1.02.84,1.25.25.12.54.18.87.18.62,0,1.09-.2,1.39-.6s.45-.84.45-1.32c0-.59-.18-1.04-.54-1.36s-.79-.48-1.29-.48c-.36,0-.67.07-.93.21s-.48.34-.67.59l-.91-.05.64-4.52h4.36v1.02h-3.57l-.36,2.33c.2-.15.38-.26.56-.33.31-.13.67-.19,1.08-.19.77,0,1.42.25,1.96.74s.8,1.12.8,1.89-.25,1.49-.74,2.1-1.27.91-2.35.91c-.68,0-1.29-.19-1.81-.58s-.82-.98-.88-1.77h1.1Z"/><path d="m65.18,358.9c.38.69.56,1.64.56,2.84,0,1.14-.17,2.08-.51,2.83-.49,1.07-1.3,1.61-2.41,1.61-1.01,0-1.76-.44-2.25-1.31-.41-.73-.62-1.71-.62-2.94,0-.95.12-1.77.37-2.46.46-1.27,1.29-1.91,2.5-1.91,1.09,0,1.87.45,2.36,1.34Zm-1.06,5.59c.32-.48.49-1.39.49-2.71,0-.95-.12-1.74-.35-2.35s-.69-.92-1.37-.92c-.62,0-1.08.29-1.36.88s-.43,1.44-.43,2.58c0,.86.09,1.54.28,2.06.28.79.76,1.19,1.44,1.19.55,0,.98-.24,1.31-.73Z"/><path d="m58.37,321.43c.37.49.55.99.55,1.5h-1.04c-.06-.33-.16-.59-.3-.78-.25-.35-.64-.53-1.15-.53-.59,0-1.06.27-1.41.82s-.54,1.33-.58,2.34c.24-.36.55-.62.91-.8.34-.16.71-.23,1.12-.23.7,0,1.32.22,1.84.67s.79,1.12.79,2.01c0,.76-.25,1.44-.74,2.02s-1.2.88-2.12.88c-.79,0-1.46-.3-2.03-.89s-.86-1.6-.86-3.01c0-1.04.13-1.93.38-2.65.49-1.39,1.38-2.09,2.68-2.09.94,0,1.59.24,1.96.73Zm-.79,6.42c.28-.37.41-.81.41-1.32,0-.43-.12-.84-.37-1.23s-.69-.58-1.34-.58c-.45,0-.85.15-1.19.45s-.51.75-.51,1.36c0,.53.16.98.47,1.34s.74.54,1.29.54.97-.19,1.25-.56Z"/><path d="m65.18,322.08c.38.69.56,1.64.56,2.84,0,1.14-.17,2.08-.51,2.83-.49,1.07-1.3,1.61-2.41,1.61-1.01,0-1.76-.44-2.25-1.31-.41-.73-.62-1.71-.62-2.94,0-.95.12-1.77.37-2.46.46-1.27,1.29-1.91,2.5-1.91,1.09,0,1.87.45,2.36,1.34Zm-1.06,5.59c.32-.48.49-1.39.49-2.71,0-.95-.12-1.74-.35-2.35s-.69-.92-1.37-.92c-.62,0-1.08.29-1.36.88s-.43,1.44-.43,2.58c0,.86.09,1.54.28,2.06.28.79.76,1.19,1.44,1.19.55,0,.98-.24,1.31-.73Z"/><path d="m59.18,284.06v.92c-.27.26-.63.72-1.08,1.37s-.84,1.35-1.19,2.1c-.34.73-.6,1.4-.77,2-.11.39-.26,1.01-.44,1.87h-1.17c.27-1.6.85-3.2,1.76-4.78.54-.93,1.1-1.73,1.69-2.41h-4.64v-1.06h5.84Z"/><path d="m65.18,285.26c.38.69.56,1.64.56,2.84,0,1.14-.17,2.08-.51,2.83-.49,1.07-1.3,1.61-2.41,1.61-1.01,0-1.76-.44-2.25-1.31-.41-.73-.62-1.71-.62-2.94,0-.95.12-1.77.37-2.46.46-1.27,1.29-1.91,2.5-1.91,1.09,0,1.87.45,2.36,1.34Zm-1.06,5.59c.32-.48.49-1.39.49-2.71,0-.95-.12-1.74-.35-2.35s-.69-.92-1.37-.92c-.62,0-1.08.29-1.36.88s-.43,1.44-.43,2.58c0,.86.09,1.54.28,2.06.28.79.76,1.19,1.44,1.19.55,0,.98-.24,1.31-.73Z"/><path d="m54.04,250.58c-.31-.31-.46-.72-.46-1.22,0-.62.23-1.16.68-1.61s1.1-.67,1.93-.67,1.44.21,1.89.64.69.92.69,1.49c0,.52-.13.95-.4,1.27-.15.18-.38.36-.69.54.35.16.62.34.82.55.37.39.56.9.56,1.52,0,.74-.25,1.36-.74,1.88s-1.2.77-2.1.77c-.82,0-1.51-.22-2.07-.67s-.85-1.09-.85-1.93c0-.5.12-.92.36-1.29s.6-.64,1.08-.83c-.29-.12-.52-.27-.69-.44Zm3.4,3.79c.32-.26.48-.66.48-1.18s-.17-.96-.5-1.24-.76-.42-1.28-.42-.92.14-1.23.43-.48.68-.48,1.19c0,.44.15.82.44,1.13s.74.48,1.35.48c.49,0,.89-.13,1.22-.4Zm-.19-4.15c.26-.26.39-.57.39-.93,0-.31-.12-.6-.38-.86s-.63-.39-1.14-.39-.88.13-1.1.39-.34.57-.34.92c0,.39.15.7.44.93s.64.33,1.04.33c.46,0,.83-.13,1.09-.39Z"/><path d="m65.18,248.44c.38.69.56,1.64.56,2.84,0,1.14-.17,2.08-.51,2.83-.49,1.07-1.3,1.61-2.41,1.61-1.01,0-1.76-.44-2.25-1.31-.41-.73-.62-1.71-.62-2.94,0-.95.12-1.77.37-2.46.46-1.27,1.29-1.91,2.5-1.91,1.09,0,1.87.45,2.36,1.34Zm-1.06,5.59c.32-.48.49-1.39.49-2.71,0-.95-.12-1.74-.35-2.35s-.69-.92-1.37-.92c-.62,0-1.08.29-1.36.88s-.43,1.44-.43,2.58c0,.86.09,1.54.28,2.06.28.79.76,1.19,1.44,1.19.55,0,.98-.24,1.31-.73Z"/><path d="m54.49,216.63c.03.58.26.98.67,1.21.21.12.46.18.73.18.5,0,.93-.21,1.29-.63s.61-1.27.76-2.56c-.23.37-.52.63-.87.78s-.72.23-1.12.23c-.81,0-1.45-.25-1.92-.76s-.71-1.15-.71-1.95.23-1.43.7-2.01,1.15-.87,2.06-.87c1.22,0,2.07.55,2.53,1.65.26.61.39,1.36.39,2.27,0,1.03-.15,1.94-.46,2.73-.51,1.32-1.38,1.98-2.6,1.98-.82,0-1.44-.21-1.87-.64s-.64-.97-.64-1.62h1.07Zm2.75-2.14c.35-.28.52-.76.52-1.44,0-.62-.16-1.08-.47-1.38s-.71-.45-1.19-.45c-.52,0-.92.17-1.23.52s-.45.81-.45,1.39c0,.55.13.98.4,1.3s.69.48,1.27.48c.42,0,.8-.14,1.15-.41Z"/><path d="m65.18,211.61c.38.69.56,1.64.56,2.84,0,1.14-.17,2.08-.51,2.83-.49,1.07-1.3,1.61-2.41,1.61-1.01,0-1.76-.44-2.25-1.31-.41-.73-.62-1.71-.62-2.94,0-.95.12-1.77.37-2.46.46-1.27,1.29-1.91,2.5-1.91,1.09,0,1.87.45,2.36,1.34Zm-1.06,5.59c.32-.48.49-1.39.49-2.71,0-.95-.12-1.74-.35-2.35s-.69-.92-1.37-.92c-.62,0-1.08.29-1.36.88s-.43,1.44-.43,2.58c0,.86.09,1.54.28,2.06.28.79.76,1.19,1.44,1.19.55,0,.98-.24,1.31-.73Z"/><path d="m47.37,175.9v-.81c.76-.07,1.29-.2,1.59-.37s.53-.58.67-1.23h.83v8.36h-1.12v-5.94h-1.97Z"/><path d="m58.5,174.79c.38.69.56,1.64.56,2.84,0,1.14-.17,2.08-.51,2.83-.49,1.07-1.3,1.61-2.41,1.61-1.01,0-1.76-.44-2.25-1.31-.41-.73-.62-1.71-.62-2.94,0-.95.12-1.77.37-2.46.46-1.27,1.29-1.91,2.5-1.91,1.09,0,1.87.45,2.36,1.34Zm-1.06,5.59c.32-.48.49-1.39.49-2.71,0-.95-.12-1.74-.35-2.35s-.69-.92-1.37-.92c-.62,0-1.08.29-1.36.88s-.43,1.44-.43,2.58c0,.86.09,1.54.28,2.06.28.79.76,1.19,1.44,1.19.55,0,.98-.24,1.31-.73Z"/><path d="m65.17,174.79c.38.69.56,1.64.56,2.84,0,1.14-.17,2.08-.51,2.83-.49,1.07-1.3,1.61-2.41,1.61-1.01,0-1.76-.44-2.25-1.31-.41-.73-.62-1.71-.62-2.94,0-.95.12-1.77.37-2.46.46-1.27,1.29-1.91,2.5-1.91,1.09,0,1.87.45,2.36,1.34Zm-1.06,5.59c.32-.48.49-1.39.49-2.71,0-.95-.12-1.74-.35-2.35s-.69-.92-1.37-.92c-.62,0-1.08.29-1.36.88s-.43,1.44-.43,2.58c0,.86.09,1.54.28,2.06.28.79.76,1.19,1.44,1.19.55,0,.98-.24,1.31-.73Z"/><path d="m47.37,139.08v-.81c.76-.07,1.29-.2,1.59-.37s.53-.58.67-1.23h.83v8.36h-1.12v-5.94h-1.97Z"/><path d="m54.04,139.08v-.81c.76-.07,1.29-.2,1.59-.37s.53-.58.67-1.23h.83v8.36h-1.12v-5.94h-1.97Z"/><path d="m65.17,137.97c.38.69.56,1.64.56,2.84,0,1.14-.17,2.08-.51,2.83-.49,1.07-1.3,1.61-2.41,1.61-1.01,0-1.76-.44-2.25-1.31-.41-.73-.62-1.71-.62-2.94,0-.95.12-1.77.37-2.46.46-1.27,1.29-1.91,2.5-1.91,1.09,0,1.87.45,2.36,1.34Zm-1.06,5.59c.32-.48.49-1.39.49-2.71,0-.95-.12-1.74-.35-2.35s-.69-.92-1.37-.92c-.62,0-1.08.29-1.36.88s-.43,1.44-.43,2.58c0,.86.09,1.54.28,2.06.28.79.76,1.19,1.44,1.19.55,0,.98-.24,1.31-.73Z"/><path d="m47.37,102.25v-.81c.76-.07,1.29-.2,1.59-.37s.53-.58.67-1.23h.83v8.36h-1.12v-5.94h-1.97Z"/><path d="m53.72,106.3c.26-.54.77-1.02,1.52-1.46l1.12-.65c.5-.29.86-.54,1.06-.75.32-.32.48-.7.48-1.11,0-.49-.15-.88-.44-1.16s-.68-.43-1.17-.43c-.72,0-1.22.27-1.5.82-.15.29-.23.7-.25,1.22h-1.07c.01-.73.15-1.33.4-1.79.46-.81,1.26-1.22,2.42-1.22.96,0,1.66.26,2.11.78s.67,1.1.67,1.73c0,.67-.24,1.25-.71,1.72-.27.28-.76.61-1.47,1.01l-.8.45c-.38.21-.68.41-.9.6-.39.34-.64.72-.74,1.13h4.58v1h-5.76c.04-.72.19-1.35.45-1.89Z"/><path d="m65.17,101.14c.38.69.56,1.64.56,2.84,0,1.14-.17,2.08-.51,2.83-.49,1.07-1.3,1.61-2.41,1.61-1.01,0-1.76-.44-2.25-1.31-.41-.73-.62-1.71-.62-2.94,0-.95.12-1.77.37-2.46.46-1.27,1.29-1.91,2.5-1.91,1.09,0,1.87.45,2.36,1.34Zm-1.06,5.59c.32-.48.49-1.39.49-2.71,0-.95-.12-1.74-.35-2.35s-.69-.92-1.37-.92c-.62,0-1.08.29-1.36.88s-.43,1.44-.43,2.58c0,.86.09,1.54.28,2.06.28.79.76,1.19,1.44,1.19.55,0,.98-.24,1.31-.73Z"/><path d="m47.37,65.43v-.81c.76-.07,1.29-.2,1.59-.37s.53-.58.67-1.23h.83v8.36h-1.12v-5.94h-1.97Z"/><path d="m53.85,70.78c-.45-.54-.67-1.21-.67-1.99h1.1c.05.54.15.94.3,1.18.27.44.77.66,1.48.66.55,0,1-.15,1.34-.45s.5-.68.5-1.15c0-.58-.18-.98-.53-1.21s-.84-.35-1.47-.35c-.07,0-.14,0-.21,0s-.15,0-.22,0v-.93c.11.01.2.02.28.02s.15,0,.24,0c.39,0,.72-.06.97-.19.45-.22.67-.61.67-1.17,0-.42-.15-.74-.45-.97s-.64-.34-1.04-.34c-.7,0-1.19.23-1.46.7-.15.26-.23.62-.25,1.1h-1.04c0-.62.12-1.16.38-1.59.43-.78,1.19-1.17,2.27-1.17.86,0,1.52.19,1.99.57s.7.93.7,1.66c0,.52-.14.93-.42,1.25-.17.2-.39.36-.67.47.44.12.79.35,1.03.7s.37.77.37,1.27c0,.8-.26,1.45-.79,1.96s-1.28.76-2.24.76-1.71-.27-2.16-.82Z"/><path d="m65.17,64.32c.38.69.56,1.64.56,2.84,0,1.14-.17,2.08-.51,2.83-.49,1.07-1.3,1.61-2.41,1.61-1.01,0-1.76-.44-2.25-1.31-.41-.73-.62-1.71-.62-2.94,0-.95.12-1.77.37-2.46.46-1.27,1.29-1.91,2.5-1.91,1.09,0,1.87.45,2.36,1.34Zm-1.06,5.59c.32-.48.49-1.39.49-2.71,0-.95-.12-1.74-.35-2.35s-.69-.92-1.37-.92c-.62,0-1.08.29-1.36.88s-.43,1.44-.43,2.58c0,.86.09,1.54.28,2.06.28.79.76,1.19,1.44,1.19.55,0,.98-.24,1.31-.73Z"/><path d="m47.37,28.61v-.81c.76-.07,1.29-.2,1.59-.37s.53-.58.67-1.23h.83v8.36h-1.12v-5.94h-1.97Z"/><path d="m56.88,34.55v-2.05h-3.68v-1.03l3.84-5.33h.89v5.44h1.24v.92h-1.24v2.05h-1.05Zm-.02-2.97v-3.8l-2.69,3.8h2.69Z"/><path d="m65.17,27.5c.38.69.56,1.64.56,2.84,0,1.14-.17,2.08-.51,2.83-.49,1.07-1.3,1.61-2.41,1.61-1.01,0-1.76-.44-2.25-1.31-.41-.73-.62-1.71-.62-2.94,0-.95.12-1.77.37-2.46.46-1.27,1.29-1.91,2.5-1.91,1.09,0,1.87.45,2.36,1.34Zm-1.06,5.59c.32-.48.49-1.39.49-2.71,0-.95-.12-1.74-.35-2.35s-.69-.92-1.37-.92c-.62,0-1.08.29-1.36.88s-.43,1.44-.43,2.58c0,.86.09,1.54.28,2.06.28.79.76,1.19,1.44,1.19.55,0,.98-.24,1.31-.73Z"/><g class="cls-9"><rect class="cls-14" x="84.24" y="41.04" width="8.64" height="7.2"/><rect class="cls-4" x="84.24" y="41.04" width="8.64" height="7.2"/><rect class="cls-1" x="84.24" y="55.44" width="8.64" height="7.2"/><rect class="cls-4" x="84.24" y="55.44" width="8.64" height="7.2"/><rect class="cls-7" x="84.24" y="69.84" width="8.64" height="7.2"/><rect class="cls-4" x="84.24" y="69.84" width="8.64" height="7.2"/><rect class="cls-12" x="84.24" y="84.24" width="8.64" height="7.2"/><rect class="cls-4" x="84.24" y="84.24" width="8.64" height="7.2"/><rect class="cls-10" x="84.24" y="98.64" width="8.64" height="7.2"/><rect class="cls-4" x="84.24" y="98.64" width="8.64" height="7.2"/><rect class="cls-11" x="84.24" y="113.04" width="8.64" height="7.2"/><rect class="cls-4" x="84.24" y="113.04" width="8.64" height="7.2"/><rect class="cls-2" x="84.24" y="127.44" width="8.64" height="7.2"/><rect class="cls-4" x="84.24" y="127.44" width="8.64" height="7.2"/><path d="m104.71,40.34h3.87c.77,0,1.38.22,1.85.65s.7,1.04.7,1.82c0,.67-.21,1.26-.63,1.75s-1.06.75-1.93.75h-2.71v3.64h-1.17v-8.61Zm4.55,1.18c-.26-.12-.61-.18-1.06-.18h-2.32v2.98h2.32c.52,0,.95-.11,1.27-.33s.49-.62.49-1.18c0-.63-.23-1.06-.7-1.29Z"/><path d="m115.34,45.15c.24-.03.4-.13.49-.3.05-.09.07-.23.07-.4,0-.36-.13-.62-.38-.78s-.62-.24-1.1-.24c-.55,0-.94.15-1.17.45-.13.16-.21.41-.25.73h-.98c.02-.77.27-1.31.75-1.61s1.04-.45,1.68-.45c.74,0,1.34.14,1.8.42.46.28.69.72.69,1.31v3.62c0,.11.02.2.07.26s.14.1.28.1c.05,0,.1,0,.16,0s.12-.01.19-.03v.78c-.16.05-.29.08-.38.09s-.2.02-.35.02c-.36,0-.63-.13-.79-.39-.09-.14-.15-.33-.18-.58-.21.28-.52.53-.93.73s-.85.31-1.33.31c-.58,0-1.06-.18-1.43-.53s-.55-.8-.55-1.33c0-.58.18-1.03.54-1.35s.84-.52,1.43-.59l1.68-.21Zm-2.22,2.85c.22.18.49.26.79.26.37,0,.73-.09,1.08-.26.59-.29.88-.75.88-1.4v-.85c-.13.08-.29.15-.5.21s-.4.09-.6.12l-.64.08c-.38.05-.67.13-.86.24-.32.18-.49.48-.49.88,0,.3.11.54.33.72Z"/><path d="m118.68,40.34h1.05v8.61h-1.05v-8.61Z"/><path d="m125.23,42.85c.42.21.74.48.96.81.21.32.35.69.42,1.11.06.29.09.75.09,1.38h-4.6c.02.64.17,1.15.45,1.53s.72.58,1.31.58c.55,0,.99-.18,1.32-.54.19-.21.32-.46.4-.73h1.04c-.03.23-.12.49-.27.77s-.33.51-.52.69c-.32.31-.72.52-1.19.63-.25.06-.54.09-.86.09-.78,0-1.44-.28-1.99-.85s-.81-1.36-.81-2.39.27-1.83.82-2.46,1.26-.94,2.14-.94c.45,0,.88.1,1.29.31Zm.39,2.46c-.04-.46-.14-.82-.3-1.1-.29-.51-.77-.76-1.45-.76-.48,0-.89.17-1.22.52s-.5.79-.52,1.33h3.49Z"/><path d="m128.62,46.98c.03.35.12.62.26.81.27.34.73.51,1.38.51.39,0,.73-.08,1.03-.25s.45-.43.45-.79c0-.27-.12-.47-.36-.62-.15-.09-.45-.19-.9-.3l-.84-.21c-.54-.13-.93-.28-1.18-.45-.45-.29-.68-.68-.68-1.18,0-.59.21-1.07.64-1.44s1-.55,1.73-.55c.95,0,1.63.28,2.04.83.26.35.39.73.38,1.14h-1c-.02-.24-.1-.46-.25-.65-.24-.28-.66-.42-1.26-.42-.4,0-.7.08-.91.23s-.31.35-.31.6c0,.27.13.49.4.66.16.1.39.18.69.26l.7.17c.76.18,1.27.36,1.52.53.41.27.62.69.62,1.27s-.21,1.04-.64,1.45-1.07.61-1.94.61c-.93,0-1.59-.21-1.98-.64s-.6-.95-.62-1.57h1.01Z"/><path d="m134.2,40.92h1.07v1.75h1v.86h-1v4.1c0,.22.07.37.22.44.08.04.22.06.41.06.05,0,.11,0,.16,0s.13,0,.21-.01v.83c-.12.04-.25.06-.38.08s-.27.02-.42.02c-.49,0-.83-.13-1-.38s-.26-.58-.26-.98v-4.15h-.85v-.86h.85v-1.75Z"/><path d="m137.33,40.34h1.07v1.2h-1.07v-1.2Zm0,2.36h1.07v6.25h-1.07v-6.25Z"/><path d="m139.99,42.67h1v.89c.3-.37.61-.63.94-.79s.7-.24,1.11-.24c.89,0,1.49.31,1.8.93.17.34.26.83.26,1.46v4.03h-1.07v-3.96c0-.38-.06-.69-.17-.93-.19-.39-.53-.59-1.02-.59-.25,0-.46.03-.62.08-.29.09-.54.26-.76.52-.18.21-.29.42-.34.64s-.08.54-.08.95v3.29h-1.05v-6.28Z"/><path d="m146.67,40.34h1.07v1.2h-1.07v-1.2Zm0,2.36h1.07v6.25h-1.07v-6.25Z"/><path d="m152.69,45.15c.24-.03.4-.13.49-.3.05-.09.07-.23.07-.4,0-.36-.13-.62-.38-.78s-.62-.24-1.1-.24c-.55,0-.94.15-1.17.45-.13.16-.21.41-.25.73h-.98c.02-.77.27-1.31.75-1.61s1.04-.45,1.68-.45c.74,0,1.34.14,1.8.42.46.28.69.72.69,1.31v3.62c0,.11.02.2.07.26s.14.1.28.1c.05,0,.1,0,.16,0s.12-.01.19-.03v.78c-.16.05-.29.08-.38.09s-.2.02-.35.02c-.36,0-.63-.13-.79-.39-.09-.14-.15-.33-.18-.58-.21.28-.52.53-.93.73s-.85.31-1.33.31c-.58,0-1.06-.18-1.43-.53s-.55-.8-.55-1.33c0-.58.18-1.03.54-1.35s.84-.52,1.43-.59l1.68-.21Zm-2.22,2.85c.22.18.49.26.79.26.37,0,.73-.09,1.08-.26.59-.29.88-.75.88-1.4v-.85c-.13.08-.29.15-.5.21s-.4.09-.6.12l-.64.08c-.38.05-.67.13-.86.24-.32.18-.49.48-.49.88,0,.3.11.54.33.72Z"/><path d="m156,42.67h1v.89c.3-.37.61-.63.94-.79s.7-.24,1.11-.24c.89,0,1.49.31,1.8.93.17.34.26.83.26,1.46v4.03h-1.07v-3.96c0-.38-.06-.69-.17-.93-.19-.39-.53-.59-1.02-.59-.25,0-.46.03-.62.08-.29.09-.54.26-.76.52-.18.21-.29.42-.34.64s-.08.54-.08.95v3.29h-1.05v-6.28Z"/><path d="m105.36,60.57c.03.49.14.88.35,1.19.39.57,1.07.86,2.04.86.44,0,.84-.06,1.2-.19.7-.24,1.04-.68,1.04-1.3,0-.47-.15-.8-.44-1-.3-.2-.76-.37-1.39-.51l-1.17-.26c-.76-.17-1.3-.36-1.62-.57-.55-.36-.82-.9-.82-1.61,0-.77.27-1.41.8-1.9s1.29-.74,2.27-.74c.9,0,1.67.22,2.3.65s.95,1.13.95,2.09h-1.1c-.06-.46-.18-.81-.38-1.06-.36-.45-.96-.67-1.81-.67-.69,0-1.18.14-1.48.43s-.45.62-.45,1.01c0,.42.18.73.53.93.23.12.75.28,1.56.47l1.21.28c.58.13,1.03.31,1.35.54.55.4.82.99.82,1.75,0,.95-.35,1.63-1.04,2.04s-1.5.62-2.42.62c-1.07,0-1.91-.27-2.51-.82-.61-.54-.9-1.28-.89-2.21h1.1Z"/><path d="m112.38,57.1h1.03v.83c.21-.29.44-.51.69-.66.36-.23.77-.35,1.25-.35.71,0,1.31.27,1.81.82s.74,1.32.74,2.33c0,1.37-.36,2.34-1.07,2.93-.45.37-.98.56-1.58.56-.47,0-.87-.1-1.19-.31-.19-.12-.4-.32-.63-.6v3.21h-1.05v-8.75Zm3.96,4.92c.33-.41.49-1.03.49-1.85,0-.5-.07-.93-.22-1.29-.27-.69-.77-1.04-1.5-1.04s-1.23.37-1.5,1.1c-.14.39-.22.89-.22,1.49,0,.48.07.9.22,1.24.27.65.77.97,1.5.97.49,0,.9-.21,1.23-.62Z"/><path d="m122.49,59.55c.24-.03.4-.13.49-.3.05-.09.07-.23.07-.4,0-.36-.13-.62-.38-.78s-.62-.24-1.1-.24c-.55,0-.94.15-1.17.45-.13.16-.21.41-.25.73h-.98c.02-.77.27-1.31.75-1.61s1.04-.45,1.68-.45c.74,0,1.34.14,1.8.42.46.28.69.72.69,1.31v3.62c0,.11.02.2.07.26s.14.1.28.1c.05,0,.1,0,.16,0s.12-.01.19-.03v.78c-.16.05-.29.08-.38.09s-.2.02-.35.02c-.36,0-.63-.13-.79-.39-.09-.14-.15-.33-.18-.58-.21.28-.52.53-.93.73s-.85.31-1.33.31c-.58,0-1.06-.18-1.43-.53s-.55-.8-.55-1.33c0-.58.18-1.03.54-1.35s.84-.52,1.43-.59l1.68-.21Zm-2.22,2.85c.22.18.49.26.79.26.37,0,.73-.09,1.08-.26.59-.29.88-.75.88-1.4v-.85c-.13.08-.29.15-.5.21s-.4.09-.6.12l-.64.08c-.38.05-.67.13-.86.24-.32.18-.49.48-.49.88,0,.3.11.54.33.72Z"/><path d="m125.81,57.07h1v.89c.3-.37.61-.63.94-.79s.7-.24,1.11-.24c.89,0,1.49.31,1.8.93.17.34.26.83.26,1.46v4.03h-1.07v-3.96c0-.38-.06-.69-.17-.93-.19-.39-.53-.59-1.02-.59-.25,0-.46.03-.62.08-.29.09-.54.26-.76.52-.18.21-.29.42-.34.64s-.08.54-.08.95v3.29h-1.05v-6.28Z"/><path d="m132.48,54.74h1.07v1.2h-1.07v-1.2Zm0,2.36h1.07v6.25h-1.07v-6.25Z"/><path d="m135.77,61.38c.03.35.12.62.26.81.27.34.73.51,1.38.51.39,0,.73-.08,1.03-.25s.45-.43.45-.79c0-.27-.12-.47-.36-.62-.15-.09-.45-.19-.9-.3l-.84-.21c-.54-.13-.93-.28-1.18-.45-.45-.29-.68-.68-.68-1.18,0-.59.21-1.07.64-1.44s1-.55,1.73-.55c.95,0,1.63.28,2.04.83.26.35.39.73.38,1.14h-1c-.02-.24-.1-.46-.25-.65-.24-.28-.66-.42-1.26-.42-.4,0-.7.08-.91.23s-.31.35-.31.6c0,.27.13.49.4.66.16.1.39.18.69.26l.7.17c.76.18,1.27.36,1.52.53.41.27.62.69.62,1.27s-.21,1.04-.64,1.45-1.07.61-1.94.61c-.93,0-1.59-.21-1.98-.64s-.6-.95-.62-1.57h1.01Z"/><path d="m141.15,54.71h1.05v3.21c.25-.32.47-.54.67-.67.34-.22.76-.33,1.27-.33.91,0,1.53.32,1.85.96.18.35.26.83.26,1.45v4.03h-1.08v-3.96c0-.46-.06-.8-.18-1.01-.19-.34-.55-.52-1.08-.52-.44,0-.83.15-1.19.45s-.53.87-.53,1.71v3.33h-1.05v-8.64Z"/><path d="m104.86,69.14h1.18v8.61h-1.18v-8.61Z"/><path d="m111.93,71.81c.44.34.71.94.8,1.78h-1.03c-.06-.39-.21-.71-.43-.96s-.58-.38-1.07-.38c-.67,0-1.15.33-1.44.98-.19.43-.28.95-.28,1.58s.13,1.16.4,1.59.68.64,1.25.64c.44,0,.78-.13,1.04-.4s.43-.63.53-1.1h1.03c-.12.83-.41,1.44-.88,1.83s-1.07.58-1.8.58c-.82,0-1.47-.3-1.96-.9s-.73-1.35-.73-2.25c0-1.1.27-1.96.8-2.57s1.22-.92,2.04-.92c.71,0,1.28.17,1.73.52Z"/><path d="m117.7,71.65c.42.21.74.48.96.81.21.32.35.69.42,1.11.06.29.09.75.09,1.38h-4.6c.02.64.17,1.15.45,1.53s.72.58,1.31.58c.55,0,.99-.18,1.32-.54.19-.21.32-.46.4-.73h1.04c-.03.23-.12.49-.27.77s-.33.51-.52.69c-.32.31-.72.52-1.19.63-.25.06-.54.09-.86.09-.78,0-1.44-.28-1.99-.85s-.81-1.36-.81-2.39.27-1.83.82-2.46,1.26-.94,2.14-.94c.45,0,.88.1,1.29.31Zm.39,2.46c-.04-.46-.14-.82-.3-1.1-.29-.51-.77-.76-1.45-.76-.48,0-.89.17-1.22.52s-.5.79-.52,1.33h3.49Z"/><path d="m120.49,69.14h1.05v8.61h-1.05v-8.61Z"/><path d="m126.49,73.95c.24-.03.4-.13.49-.3.05-.09.07-.23.07-.4,0-.36-.13-.62-.38-.78s-.62-.24-1.1-.24c-.55,0-.94.15-1.17.45-.13.16-.21.41-.25.73h-.98c.02-.77.27-1.31.75-1.61s1.04-.45,1.68-.45c.74,0,1.34.14,1.8.42.46.28.69.72.69,1.31v3.62c0,.11.02.2.07.26s.14.1.28.1c.05,0,.1,0,.16,0s.12-.01.19-.03v.78c-.16.05-.29.08-.38.09s-.2.02-.35.02c-.36,0-.63-.13-.79-.39-.09-.14-.15-.33-.18-.58-.21.28-.52.53-.93.73s-.85.31-1.33.31c-.58,0-1.06-.18-1.43-.53s-.55-.8-.55-1.33c0-.58.18-1.03.54-1.35s.84-.52,1.43-.59l1.68-.21Zm-2.22,2.85c.22.18.49.26.79.26.37,0,.73-.09,1.08-.26.59-.29.88-.75.88-1.4v-.85c-.13.08-.29.15-.5.21s-.4.09-.6.12l-.64.08c-.38.05-.67.13-.86.24-.32.18-.49.48-.49.88,0,.3.11.54.33.72Z"/><path d="m129.8,71.47h1v.89c.3-.37.61-.63.94-.79s.7-.24,1.11-.24c.89,0,1.49.31,1.8.93.17.34.26.83.26,1.46v4.03h-1.07v-3.96c0-.38-.06-.69-.17-.93-.19-.39-.53-.59-1.02-.59-.25,0-.46.03-.62.08-.29.09-.54.26-.76.52-.18.21-.29.42-.34.64s-.08.54-.08.95v3.29h-1.05v-6.28Z"/><path d="m139.94,71.67c.19.12.4.32.64.62v-3.17h1.01v8.64h-.95v-.87c-.25.39-.54.67-.87.84s-.72.26-1.15.26c-.7,0-1.3-.29-1.82-.88s-.77-1.37-.77-2.35c0-.91.23-1.71.7-2.38s1.13-1,2-1c.48,0,.88.1,1.21.3Zm-2.37,4.71c.29.45.74.68,1.37.68.49,0,.89-.21,1.2-.63s.47-1.02.47-1.81-.16-1.38-.49-1.76-.72-.57-1.2-.57c-.53,0-.96.2-1.29.61s-.5,1-.5,1.79c0,.67.14,1.23.43,1.69Z"/><path d="m143.15,69.14h1.07v1.2h-1.07v-1.2Zm0,2.36h1.07v6.25h-1.07v-6.25Z"/><path d="m149.96,71.81c.44.34.71.94.8,1.78h-1.03c-.06-.39-.21-.71-.43-.96s-.58-.38-1.07-.38c-.67,0-1.15.33-1.44.98-.19.43-.28.95-.28,1.58s.13,1.16.4,1.59.68.64,1.25.64c.44,0,.78-.13,1.04-.4s.43-.63.53-1.1h1.03c-.12.83-.41,1.44-.88,1.83s-1.07.58-1.8.58c-.82,0-1.47-.3-1.96-.9s-.73-1.35-.73-2.25c0-1.1.27-1.96.8-2.57s1.22-.92,2.04-.92c.71,0,1.28.17,1.73.52Z"/><path d="m105.36,89.37c.03.49.14.88.35,1.19.39.57,1.07.86,2.04.86.44,0,.84-.06,1.2-.19.7-.24,1.04-.68,1.04-1.3,0-.47-.15-.8-.44-1-.3-.2-.76-.37-1.39-.51l-1.17-.26c-.76-.17-1.3-.36-1.62-.57-.55-.36-.82-.9-.82-1.61,0-.77.27-1.41.8-1.9s1.29-.74,2.27-.74c.9,0,1.67.22,2.3.65s.95,1.13.95,2.09h-1.1c-.06-.46-.18-.81-.38-1.06-.36-.45-.96-.67-1.81-.67-.69,0-1.18.14-1.48.43s-.45.62-.45,1.01c0,.42.18.73.53.93.23.12.75.28,1.56.47l1.21.28c.58.13,1.03.31,1.35.54.55.4.82.99.82,1.75,0,.95-.35,1.63-1.04,2.04s-1.5.62-2.42.62c-1.07,0-1.91-.27-2.51-.82-.61-.54-.9-1.28-.89-2.21h1.1Z"/><path d="m115.82,88.35c.24-.03.4-.13.49-.3.05-.09.07-.23.07-.4,0-.36-.13-.62-.38-.78s-.62-.24-1.1-.24c-.55,0-.94.15-1.17.45-.13.16-.21.41-.25.73h-.98c.02-.77.27-1.31.75-1.61s1.04-.45,1.68-.45c.74,0,1.34.14,1.8.42.46.28.69.72.69,1.31v3.62c0,.11.02.2.07.26s.14.1.28.1c.05,0,.1,0,.16,0s.12-.01.19-.03v.78c-.16.05-.29.08-.38.09s-.2.02-.35.02c-.36,0-.63-.13-.79-.39-.09-.14-.15-.33-.18-.58-.21.28-.52.53-.93.73s-.85.31-1.33.31c-.58,0-1.06-.18-1.43-.53s-.55-.8-.55-1.33c0-.58.18-1.03.54-1.35s.84-.52,1.43-.59l1.68-.21Zm-2.22,2.85c.22.18.49.26.79.26.37,0,.73-.09,1.08-.26.59-.29.88-.75.88-1.4v-.85c-.13.08-.29.15-.5.21s-.4.09-.6.12l-.64.08c-.38.05-.67.13-.86.24-.32.18-.49.48-.49.88,0,.3.11.54.33.72Z"/><path d="m122.49,88.35c.24-.03.4-.13.49-.3.05-.09.07-.23.07-.4,0-.36-.13-.62-.38-.78s-.62-.24-1.1-.24c-.55,0-.94.15-1.17.45-.13.16-.21.41-.25.73h-.98c.02-.77.27-1.31.75-1.61s1.04-.45,1.68-.45c.74,0,1.34.14,1.8.42.46.28.69.72.69,1.31v3.62c0,.11.02.2.07.26s.14.1.28.1c.05,0,.1,0,.16,0s.12-.01.19-.03v.78c-.16.05-.29.08-.38.09s-.2.02-.35.02c-.36,0-.63-.13-.79-.39-.09-.14-.15-.33-.18-.58-.21.28-.52.53-.93.73s-.85.31-1.33.31c-.58,0-1.06-.18-1.43-.53s-.55-.8-.55-1.33c0-.58.18-1.03.54-1.35s.84-.52,1.43-.59l1.68-.21Zm-2.22,2.85c.22.18.49.26.79.26.37,0,.73-.09,1.08-.26.59-.29.88-.75.88-1.4v-.85c-.13.08-.29.15-.5.21s-.4.09-.6.12l-.64.08c-.38.05-.67.13-.86.24-.32.18-.49.48-.49.88,0,.3.11.54.33.72Z"/><path d="m125.81,85.87h1.04v.89c.25-.31.48-.53.68-.67.35-.24.74-.36,1.18-.36.5,0,.9.12,1.21.37.17.14.33.35.47.62.23-.34.51-.58.83-.75s.67-.24,1.07-.24c.84,0,1.42.3,1.72.91.16.33.25.77.25,1.32v4.18h-1.1v-4.36c0-.42-.1-.71-.31-.86s-.46-.23-.76-.23c-.41,0-.77.14-1.07.42s-.45.74-.45,1.39v3.65h-1.07v-4.1c0-.43-.05-.74-.15-.93-.16-.29-.46-.44-.9-.44-.4,0-.76.15-1.09.46s-.49.87-.49,1.68v3.33h-1.05v-6.28Z"/><path d="m135.8,83.54h1.07v1.2h-1.07v-1.2Zm0,2.36h1.07v6.25h-1.07v-6.25Z"/><path d="m110.86,97.94v1.03h-2.9v7.58h-1.18v-7.58h-2.9v-1.03h6.98Z"/><path d="m111.41,100.27v4.17c0,.32.05.58.15.79.19.38.54.56,1.05.56.73,0,1.23-.33,1.5-.98.14-.35.22-.83.22-1.45v-3.08h1.05v6.28h-1v-.93c-.12.24-.29.44-.5.6-.4.33-.89.49-1.46.49-.89,0-1.5-.3-1.83-.9-.18-.32-.26-.75-.26-1.28v-4.27h1.08Z"/><path d="m116.95,97.91h1.03v3.12c.23-.3.51-.53.83-.69s.67-.24,1.04-.24c.78,0,1.42.27,1.9.81s.73,1.33.73,2.38c0,.99-.24,1.82-.72,2.47s-1.15.98-2,.98c-.48,0-.88-.12-1.21-.35-.2-.14-.4-.36-.63-.66v.8h-.97v-8.64Zm4.02,7.22c.28-.45.42-1.05.42-1.79,0-.66-.14-1.21-.42-1.64s-.7-.65-1.25-.65c-.48,0-.9.18-1.26.53s-.54.94-.54,1.76c0,.59.07,1.07.22,1.44.28.69.79,1.04,1.55,1.04.57,0,1-.23,1.28-.68Z"/><path d="m127.07,102.75c.24-.03.4-.13.49-.3.05-.09.07-.23.07-.4,0-.36-.13-.62-.38-.78s-.62-.24-1.1-.24c-.55,0-.94.15-1.17.45-.13.16-.21.41-.25.73h-.98c.02-.77.27-1.31.75-1.61s1.04-.45,1.68-.45c.74,0,1.34.14,1.8.42.46.28.69.72.69,1.31v3.62c0,.11.02.2.07.26s.14.1.28.1c.05,0,.1,0,.16,0s.12-.01.19-.03v.78c-.16.05-.29.08-.38.09s-.2.02-.35.02c-.36,0-.63-.13-.79-.39-.09-.14-.15-.33-.18-.58-.21.28-.52.53-.93.73s-.85.31-1.33.31c-.58,0-1.06-.18-1.43-.53s-.55-.8-.55-1.33c0-.58.18-1.03.54-1.35s.84-.52,1.43-.59l1.68-.21Zm-2.22,2.85c.22.18.49.26.79.26.37,0,.73-.09,1.08-.26.59-.29.88-.75.88-1.4v-.85c-.13.08-.29.15-.5.21s-.4.09-.6.12l-.64.08c-.38.05-.67.13-.86.24-.32.18-.49.48-.49.88,0,.3.11.54.33.72Z"/><path d="m130.41,97.94h1.05v8.61h-1.05v-8.61Z"/><path d="m136.41,102.75c.24-.03.4-.13.49-.3.05-.09.07-.23.07-.4,0-.36-.13-.62-.38-.78s-.62-.24-1.1-.24c-.55,0-.94.15-1.17.45-.13.16-.21.41-.25.73h-.98c.02-.77.27-1.31.75-1.61s1.04-.45,1.68-.45c.74,0,1.34.14,1.8.42.46.28.69.72.69,1.31v3.62c0,.11.02.2.07.26s.14.1.28.1c.05,0,.1,0,.16,0s.12-.01.19-.03v.78c-.16.05-.29.08-.38.09s-.2.02-.35.02c-.36,0-.63-.13-.79-.39-.09-.14-.15-.33-.18-.58-.21.28-.52.53-.93.73s-.85.31-1.33.31c-.58,0-1.06-.18-1.43-.53s-.55-.8-.55-1.33c0-.58.18-1.03.54-1.35s.84-.52,1.43-.59l1.68-.21Zm-2.22,2.85c.22.18.49.26.79.26.37,0,.73-.09,1.08-.26.59-.29.88-.75.88-1.4v-.85c-.13.08-.29.15-.5.21s-.4.09-.6.12l-.64.08c-.38.05-.67.13-.86.24-.32.18-.49.48-.49.88,0,.3.11.54.33.72Z"/><path d="m139.75,100.27h1v1.08c.08-.21.28-.47.6-.77s.69-.45,1.11-.45c.02,0,.05,0,.1,0s.13.01.24.02v1.11c-.06-.01-.12-.02-.17-.02s-.11,0-.17,0c-.53,0-.94.17-1.22.51s-.43.74-.43,1.18v3.61h-1.05v-6.28Z"/><path d="m104.71,112.34h3.87c.77,0,1.38.22,1.85.65s.7,1.04.7,1.82c0,.67-.21,1.26-.63,1.75s-1.06.75-1.93.75h-2.71v3.64h-1.17v-8.61Zm4.55,1.18c-.26-.12-.61-.18-1.06-.18h-2.32v2.98h2.32c.52,0,.95-.11,1.27-.33s.49-.62.49-1.18c0-.63-.23-1.06-.7-1.29Z"/><path d="m115.34,117.15c.24-.03.4-.13.49-.3.05-.09.07-.23.07-.4,0-.36-.13-.62-.38-.78s-.62-.24-1.1-.24c-.55,0-.94.15-1.17.45-.13.16-.21.41-.25.73h-.98c.02-.77.27-1.31.75-1.61s1.04-.45,1.68-.45c.74,0,1.34.14,1.8.42.46.28.69.72.69,1.31v3.62c0,.11.02.2.07.26s.14.1.28.1c.05,0,.1,0,.16,0s.12-.01.19-.03v.78c-.16.05-.29.08-.38.09s-.2.02-.35.02c-.36,0-.63-.13-.79-.39-.09-.14-.15-.33-.18-.58-.21.28-.52.53-.93.73s-.85.31-1.33.31c-.58,0-1.06-.18-1.43-.53s-.55-.8-.55-1.33c0-.58.18-1.03.54-1.35s.84-.52,1.43-.59l1.68-.21Zm-2.22,2.85c.22.18.49.26.79.26.37,0,.73-.09,1.08-.26.59-.29.88-.75.88-1.4v-.85c-.13.08-.29.15-.5.21s-.4.09-.6.12l-.64.08c-.38.05-.67.13-.86.24-.32.18-.49.48-.49.88,0,.3.11.54.33.72Z"/><path d="m118.57,114.7h1.03v.83c.21-.29.44-.51.69-.66.36-.23.77-.35,1.25-.35.71,0,1.31.27,1.81.82s.74,1.32.74,2.33c0,1.37-.36,2.34-1.07,2.93-.45.37-.98.56-1.58.56-.47,0-.87-.1-1.19-.31-.19-.12-.4-.32-.63-.6v3.21h-1.05v-8.75Zm3.96,4.92c.33-.41.49-1.03.49-1.85,0-.5-.07-.93-.22-1.29-.27-.69-.77-1.04-1.5-1.04s-1.23.37-1.5,1.1c-.14.39-.22.89-.22,1.49,0,.48.07.9.22,1.24.27.65.77.97,1.5.97.49,0,.9-.21,1.23-.62Z"/><path d="m126.38,114.67v4.17c0,.32.05.58.15.79.19.38.54.56,1.05.56.73,0,1.23-.33,1.5-.98.14-.35.22-.83.22-1.45v-3.08h1.05v6.28h-1v-.93c-.12.24-.29.44-.5.6-.4.33-.89.49-1.46.49-.89,0-1.5-.3-1.83-.9-.18-.32-.26-.75-.26-1.28v-4.27h1.08Z"/><path d="m135.36,117.15c.24-.03.4-.13.49-.3.05-.09.07-.23.07-.4,0-.36-.13-.62-.38-.78s-.62-.24-1.1-.24c-.55,0-.94.15-1.17.45-.13.16-.21.41-.25.73h-.98c.02-.77.27-1.31.75-1.61s1.04-.45,1.68-.45c.74,0,1.34.14,1.8.42.46.28.69.72.69,1.31v3.62c0,.11.02.2.07.26s.14.1.28.1c.05,0,.1,0,.16,0s.12-.01.19-.03v.78c-.16.05-.29.08-.38.09s-.2.02-.35.02c-.36,0-.63-.13-.79-.39-.09-.14-.15-.33-.18-.58-.21.28-.52.53-.93.73s-.85.31-1.33.31c-.58,0-1.06-.18-1.43-.53s-.55-.8-.55-1.33c0-.58.18-1.03.54-1.35s.84-.52,1.43-.59l1.68-.21Zm-2.22,2.85c.22.18.49.26.79.26.37,0,.73-.09,1.08-.26.59-.29.88-.75.88-1.4v-.85c-.13.08-.29.15-.5.21s-.4.09-.6.12l-.64.08c-.38.05-.67.13-.86.24-.32.18-.49.48-.49.88,0,.3.11.54.33.72Z"/><path d="m138.67,114.67h1v.89c.3-.37.61-.63.94-.79s.7-.24,1.11-.24c.89,0,1.49.31,1.8.93.17.34.26.83.26,1.46v4.03h-1.07v-3.96c0-.38-.06-.69-.17-.93-.19-.39-.53-.59-1.02-.59-.25,0-.46.03-.62.08-.29.09-.54.26-.76.52-.18.21-.29.42-.34.64s-.08.54-.08.95v3.29h-1.05v-6.28Z"/><path d="m104.59,126.74h1.14v4.2l4.2-4.2h1.61l-3.58,3.47,3.68,5.14h-1.52l-3.01-4.32-1.38,1.32v3h-1.14v-8.61Z"/><path d="m115.82,131.55c.24-.03.4-.13.49-.3.05-.09.07-.23.07-.4,0-.36-.13-.62-.38-.78s-.62-.24-1.1-.24c-.55,0-.94.15-1.17.45-.13.16-.21.41-.25.73h-.98c.02-.77.27-1.31.75-1.61s1.04-.45,1.68-.45c.74,0,1.34.14,1.8.42.46.28.69.72.69,1.31v3.62c0,.11.02.2.07.26s.14.1.28.1c.05,0,.1,0,.16,0s.12-.01.19-.03v.78c-.16.05-.29.08-.38.09s-.2.02-.35.02c-.36,0-.63-.13-.79-.39-.09-.14-.15-.33-.18-.58-.21.28-.52.53-.93.73s-.85.31-1.33.31c-.58,0-1.06-.18-1.43-.53s-.55-.8-.55-1.33c0-.58.18-1.03.54-1.35s.84-.52,1.43-.59l1.68-.21Zm-2.22,2.85c.22.18.49.26.79.26.37,0,.73-.09,1.08-.26.59-.29.88-.75.88-1.4v-.85c-.13.08-.29.15-.5.21s-.4.09-.6.12l-.64.08c-.38.05-.67.13-.86.24-.32.18-.49.48-.49.88,0,.3.11.54.33.72Z"/><path d="m119.16,129.07h1v1.08c.08-.21.28-.47.6-.77s.69-.45,1.11-.45c.02,0,.05,0,.1,0s.13.01.24.02v1.11c-.06-.01-.12-.02-.17-.02s-.11,0-.17,0c-.53,0-.94.17-1.22.51s-.43.74-.43,1.18v3.61h-1.05v-6.28Z"/><path d="m123.3,126.74h1.07v1.2h-1.07v-1.2Zm0,2.36h1.07v6.25h-1.07v-6.25Z"/><path d="m126.17,127.32h1.07v1.75h1v.86h-1v4.1c0,.22.07.37.22.44.08.04.22.06.41.06.05,0,.11,0,.16,0s.13,0,.21-.01v.83c-.12.04-.25.06-.38.08s-.27.02-.42.02c-.49,0-.83-.13-1-.38s-.26-.58-.26-.98v-4.15h-.85v-.86h.85v-1.75Z"/><path d="m129.3,126.74h1.07v1.2h-1.07v-1.2Zm0,2.36h1.07v6.25h-1.07v-6.25Z"/><path d="m135.32,131.55c.24-.03.4-.13.49-.3.05-.09.07-.23.07-.4,0-.36-.13-.62-.38-.78s-.62-.24-1.1-.24c-.55,0-.94.15-1.17.45-.13.16-.21.41-.25.73h-.98c.02-.77.27-1.31.75-1.61s1.04-.45,1.68-.45c.74,0,1.34.14,1.8.42.46.28.69.72.69,1.31v3.62c0,.11.02.2.07.26s.14.1.28.1c.05,0,.1,0,.16,0s.12-.01.19-.03v.78c-.16.05-.29.08-.38.09s-.2.02-.35.02c-.36,0-.63-.13-.79-.39-.09-.14-.15-.33-.18-.58-.21.28-.52.53-.93.73s-.85.31-1.33.31c-.58,0-1.06-.18-1.43-.53s-.55-.8-.55-1.33c0-.58.18-1.03.54-1.35s.84-.52,1.43-.59l1.68-.21Zm-2.22,2.85c.22.18.49.26.79.26.37,0,.73-.09,1.08-.26.59-.29.88-.75.88-1.4v-.85c-.13.08-.29.15-.5.21s-.4.09-.6.12l-.64.08c-.38.05-.67.13-.86.24-.32.18-.49.48-.49.88,0,.3.11.54.33.72Z"/><path d="m138.64,129.07h1v.89c.3-.37.61-.63.94-.79s.7-.24,1.11-.24c.89,0,1.49.31,1.8.93.17.34.26.83.26,1.46v4.03h-1.07v-3.96c0-.38-.06-.69-.17-.93-.19-.39-.53-.59-1.02-.59-.25,0-.46.03-.62.08-.29.09-.54.26-.76.52-.18.21-.29.42-.34.64s-.08.54-.08.95v3.29h-1.05v-6.28Z"/><path d="m148.67,131.55c.24-.03.4-.13.49-.3.05-.09.07-.23.07-.4,0-.36-.13-.62-.38-.78s-.62-.24-1.1-.24c-.55,0-.94.15-1.17.45-.13.16-.21.41-.25.73h-.98c.02-.77.27-1.31.75-1.61s1.04-.45,1.68-.45c.74,0,1.34.14,1.8.42.46.28.69.72.69,1.31v3.62c0,.11.02.2.07.26s.14.1.28.1c.05,0,.1,0,.16,0s.12-.01.19-.03v.78c-.16.05-.29.08-.38.09s-.2.02-.35.02c-.36,0-.63-.13-.79-.39-.09-.14-.15-.33-.18-.58-.21.28-.52.53-.93.73s-.85.31-1.33.31c-.58,0-1.06-.18-1.43-.53s-.55-.8-.55-1.33c0-.58.18-1.03.54-1.35s.84-.52,1.43-.59l1.68-.21Zm-2.22,2.85c.22.18.49.26.79.26.37,0,.73-.09,1.08-.26.59-.29.88-.75.88-1.4v-.85c-.13.08-.29.15-.5.21s-.4.09-.6.12l-.64.08c-.38.05-.67.13-.86.24-.32.18-.49.48-.49.88,0,.3.11.54.33.72Z"/></g></svg>